<svg width="414" height="427" viewBox="0 0 414 427" fill="none" xmlns="http://www.w3.org/2000/svg">
<path d="M372.517 409.904H345.094V410.201H372.517V409.904Z" fill="#EBEBEB"/>
<path d="M274.25 413.15H267.055V413.447H274.25V413.15Z" fill="#EBEBEB"/>
<path d="M344.266 398.829H328.376V399.127H344.266V398.829Z" fill="#EBEBEB"/>
<path d="M79.1978 400.834H43.4365V401.132H79.1978V400.834Z" fill="#EBEBEB"/>
<path d="M91.8169 400.834H86.5757V401.132H91.8169V400.834Z" fill="#EBEBEB"/>
<path d="M186.424 405.87H108.857V406.167H186.424V405.87Z" fill="#EBEBEB"/>
<path d="M196.236 337.479H36.3656C35.1117 337.479 33.9091 336.761 33.0225 335.484C32.1358 334.206 31.6377 332.473 31.6377 330.665V6.75436C31.6486 4.95753 32.1515 3.23964 33.037 1.97464C33.9225 0.70964 35.1188 -6.88872e-05 36.3656 5.01511e-09H196.236C197.49 5.01513e-09 198.692 0.717905 199.579 1.99578C200.466 3.27366 200.964 5.00683 200.964 6.81403V330.665C200.964 332.473 200.466 334.206 199.579 335.484C198.692 336.761 197.49 337.479 196.236 337.479ZM36.3656 0.238671C35.1672 0.241825 34.0186 0.92931 33.1713 2.15056C32.3239 3.3718 31.8469 5.02726 31.8447 6.75436V330.665C31.8469 332.392 32.3239 334.048 33.1713 335.269C34.0186 336.49 35.1672 337.178 36.3656 337.181H196.236C197.434 337.178 198.583 336.49 199.43 335.269C200.277 334.048 200.755 332.392 200.757 330.665V6.75436C200.755 5.02726 200.277 3.3718 199.43 2.15056C198.583 0.92931 197.434 0.241825 196.236 0.238671H36.3656Z" fill="#EBEBEB"/>
<path d="M375.341 337.479H215.454C214.201 337.476 212.999 336.757 212.113 335.48C211.227 334.203 210.728 332.472 210.726 330.665V6.75436C210.739 4.9585 211.243 3.24242 212.128 1.97809C213.013 0.713753 214.208 0.003041 215.454 0H375.341C376.585 0.00621078 377.777 0.718694 378.659 1.98302C379.541 3.24735 380.041 4.96165 380.052 6.75436V330.665C380.052 332.468 379.556 334.198 378.673 335.475C377.79 336.752 376.592 337.473 375.341 337.479ZM215.454 0.238671C214.256 0.241825 213.107 0.92931 212.26 2.15056C211.412 3.3718 210.935 5.02726 210.933 6.75436V330.665C210.935 332.392 211.412 334.048 212.26 335.269C213.107 336.49 214.256 337.178 215.454 337.181H375.341C376.539 337.178 377.688 336.49 378.535 335.269C379.382 334.048 379.859 332.392 379.862 330.665V6.75436C379.859 5.02726 379.382 3.3718 378.535 2.15056C377.688 0.92931 376.539 0.241825 375.341 0.238671H215.454Z" fill="#EBEBEB"/>
<path d="M414 390.703H0V391H414V390.703Z" fill="#EBEBEB"/>
<path d="M350.037 261.093C349.199 264.785 347.864 268.202 346.109 271.15C344.354 274.098 342.212 276.518 339.808 278.272C337.403 280.027 334.782 281.081 332.095 281.375C329.407 281.668 326.706 281.195 324.145 279.984C313.381 274.9 321.537 267.692 325.064 252.178C328.592 236.665 326.157 218.681 336.93 223.777C339.491 224.985 341.862 226.909 343.908 229.438C345.953 231.968 347.632 235.054 348.85 238.519C350.067 241.985 350.798 245.763 351.002 249.636C351.206 253.509 350.878 257.402 350.037 261.093Z" fill="#F0F0F0"/>
<path d="M70.0319 134.24C72.6999 122.513 78.4904 112.794 86.1298 107.219C93.7693 101.645 102.632 100.672 110.769 104.514C127.71 112.521 114.868 123.858 109.312 148.274C103.756 172.69 107.59 200.948 90.6491 192.941C82.516 189.093 75.7757 180.748 71.9097 169.741C68.0437 158.734 67.3683 145.965 70.0319 134.24Z" fill="#F5F5F5"/>
<path d="M243.192 82.1144C243.192 71.8874 248.988 67.4243 256.042 67.4243C263.097 67.4243 268.885 71.8874 268.885 82.1144C268.717 86.8576 267.292 91.3269 264.904 94.5989C262.515 97.8708 259.346 99.6953 256.051 99.6953C252.755 99.6953 249.586 97.8708 247.198 94.5989C244.809 91.3269 243.384 86.8576 243.217 82.1144H243.192Z" fill="#EBEBEB"/>
<path d="M256.042 90.3127C254.38 90.3094 252.761 89.543 251.421 88.1247C250.081 86.7064 249.09 84.7099 248.59 82.4247C248.564 82.3067 248.51 82.2061 248.437 82.1415C248.364 82.0768 248.277 82.0524 248.192 82.0727C248.107 82.093 248.031 82.1568 247.976 82.2521C247.921 82.3475 247.892 82.4681 247.895 82.5918V82.6872C247.889 84.2309 248.095 85.7609 248.5 87.19C248.904 88.6191 249.501 89.9194 250.254 91.0164C251.008 92.1135 251.904 92.9859 252.891 93.5838C253.879 94.1818 254.938 94.4936 256.009 94.5014C257.08 94.5092 258.142 94.213 259.133 93.6295C260.125 93.046 261.027 92.1868 261.788 91.1008C262.549 90.0148 263.155 88.7234 263.57 87.3003C263.984 85.8772 264.201 84.3502 264.206 82.8066C264.214 81.7192 264.093 80.6378 263.85 79.6084C263.75 82.4958 262.884 85.2173 261.431 87.2098C259.977 89.2023 258.048 90.3133 256.042 90.3127Z" fill="#E0E0E0"/>
<path d="M249.551 73.5223C249.406 73.575 249.253 73.5494 249.12 73.4503C248.987 73.3513 248.884 73.1856 248.83 72.9846C248.776 72.7836 248.775 72.561 248.827 72.3589C248.879 72.1568 248.98 71.9891 249.112 71.8874C251.421 70.2151 253.981 69.395 256.564 69.5007C259.182 69.3351 261.755 70.5245 263.817 72.854C263.939 72.9874 264.021 73.1812 264.048 73.3974C264.076 73.6136 264.046 73.8368 263.965 74.0232C263.885 74.2097 263.758 74.3461 263.612 74.4057C263.465 74.4653 263.308 74.4439 263.172 74.3457C260.514 72.5676 256.026 70.9805 249.551 73.5223Z" fill="#F5F5F5"/>
<path d="M133.797 147.164C138.814 139.932 145.074 142.641 150.092 149.873C155.109 157.104 156.989 166.114 151.971 173.346C149.548 176.716 146.303 178.581 142.935 178.538C139.567 178.495 136.346 176.548 133.964 173.117C131.582 169.685 130.23 165.043 130.198 160.19C130.167 155.336 131.459 150.658 133.797 147.164Z" fill="#EBEBEB"/>
<path d="M138.864 166.055C137.695 164.363 136.929 162.18 136.677 159.82C136.426 157.461 136.702 155.047 137.465 152.928C137.498 152.818 137.504 152.694 137.481 152.579C137.459 152.463 137.41 152.362 137.342 152.292C137.274 152.222 137.192 152.188 137.109 152.195C137.026 152.202 136.947 152.25 136.885 152.331L136.835 152.403C136.074 153.489 135.469 154.78 135.054 156.203C134.639 157.627 134.423 159.154 134.418 160.697C134.412 162.241 134.618 163.771 135.023 165.2C135.428 166.629 136.024 167.929 136.777 169.026C137.531 170.123 138.427 170.995 139.414 171.593C140.402 172.191 141.461 172.503 142.532 172.511C143.603 172.518 144.665 172.222 145.657 171.639C146.648 171.055 147.55 170.196 148.311 169.11C148.847 168.348 149.292 167.466 149.628 166.496C148.137 168.425 146.188 169.455 144.185 169.373C142.182 169.291 140.277 168.103 138.864 166.055Z" fill="#E0E0E0"/>
<path d="M142.507 147.57C142.383 147.457 142.291 147.283 142.248 147.081C142.205 146.878 142.213 146.66 142.273 146.466C142.332 146.272 142.438 146.116 142.57 146.025C142.703 145.934 142.854 145.914 142.996 145.971C145.445 147.161 147.651 149.211 149.413 151.937C151.345 154.487 152.579 157.95 152.89 161.699C152.917 161.918 152.885 162.144 152.799 162.33C152.714 162.516 152.583 162.648 152.432 162.698C152.281 162.749 152.123 162.714 151.99 162.601C151.856 162.489 151.758 162.307 151.715 162.093C150.696 158.071 148.336 152.367 142.507 147.57Z" fill="#F5F5F5"/>
<path d="M250.809 335.188C245.792 327.956 247.671 318.935 252.689 311.703C257.707 304.471 263.966 301.774 268.984 308.994C271.394 312.467 272.748 317.179 272.748 322.091C272.748 327.003 271.394 331.714 268.984 335.188C266.574 338.661 263.305 340.613 259.897 340.613C256.488 340.613 253.22 338.661 250.809 335.188Z" fill="#EBEBEB"/>
<path d="M263.917 327.885C262.743 329.569 261.229 330.672 259.592 331.037C257.955 331.402 256.281 331.008 254.809 329.914C254.733 329.855 254.645 329.838 254.561 329.866C254.477 329.894 254.403 329.964 254.352 330.065C254.302 330.165 254.278 330.289 254.286 330.413C254.294 330.536 254.333 330.651 254.395 330.737L254.444 330.809C255.198 331.906 256.094 332.778 257.081 333.376C258.069 333.974 259.128 334.286 260.199 334.293C261.27 334.301 262.332 334.005 263.324 333.421C264.315 332.838 265.217 331.978 265.978 330.892C266.74 329.806 267.345 328.515 267.76 327.092C268.175 325.668 268.391 324.141 268.396 322.598C268.402 321.054 268.196 319.524 267.791 318.095C267.386 316.666 266.79 315.366 266.036 314.269C265.505 313.497 264.89 312.856 264.215 312.371C265.556 314.518 266.274 317.326 266.218 320.214C266.163 323.102 265.339 325.849 263.917 327.885Z" fill="#E0E0E0"/>
<path d="M251.091 322.634C251.013 322.813 250.892 322.946 250.752 323.008C250.611 323.07 250.46 323.058 250.325 322.972C250.191 322.887 250.082 322.735 250.019 322.543C249.956 322.352 249.942 322.134 249.981 321.93C250.807 318.4 252.23 315.221 254.121 312.681C255.89 309.897 258.293 308.118 260.894 307.669C261.042 307.649 261.191 307.706 261.312 307.831C261.432 307.957 261.517 308.141 261.551 308.35C261.584 308.559 261.564 308.778 261.493 308.967C261.423 309.156 261.307 309.301 261.168 309.376C258.377 310.784 254.428 314.233 251.091 322.634Z" fill="#F5F5F5"/>
<path d="M114.521 247.107C122.163 236.092 131.702 240.209 139.361 251.236C147.02 262.263 149.868 276.01 142.226 287.037C138.553 292.33 133.572 295.304 128.377 295.304C123.183 295.304 118.202 292.33 114.529 287.037C110.856 281.743 108.793 274.564 108.793 267.078C108.793 259.592 110.856 252.412 114.529 247.119L114.521 247.107Z" fill="#F0F0F0"/>
<path d="M122.237 275.902C120.438 273.325 119.257 269.987 118.865 266.374C118.473 262.762 118.892 259.064 120.06 255.818C120.118 255.65 120.134 255.458 120.103 255.275C120.072 255.093 119.996 254.932 119.89 254.823C119.784 254.713 119.655 254.662 119.525 254.678C119.395 254.695 119.273 254.777 119.182 254.911L119.107 255.019C117.947 256.676 117.024 258.646 116.391 260.818C115.759 262.989 115.43 265.318 115.422 267.673C115.414 270.028 115.729 272.362 116.347 274.542C116.965 276.721 117.875 278.704 119.025 280.377C120.175 282.05 121.542 283.38 123.048 284.292C124.555 285.203 126.171 285.678 127.805 285.689C129.439 285.7 131.058 285.247 132.571 284.356C134.083 283.465 135.459 282.154 136.62 280.497C137.442 279.337 138.122 277.985 138.632 276.499C136.366 279.444 133.402 281.023 130.352 280.912C127.302 280.801 124.397 279.008 122.237 275.902Z" fill="#E6E6E6"/>
<path d="M127.785 247.727C127.611 247.547 127.485 247.285 127.43 246.986C127.374 246.687 127.393 246.37 127.482 246.088C127.571 245.806 127.725 245.578 127.917 245.442C128.11 245.305 128.33 245.27 128.539 245.341C131.163 246.474 134.583 248.992 138.325 254.374C142.068 259.756 143.36 265.114 143.625 269.255C143.646 269.58 143.584 269.904 143.452 270.168C143.32 270.433 143.126 270.619 142.906 270.694C142.686 270.768 142.455 270.725 142.255 270.572C142.055 270.42 141.901 270.168 141.82 269.864C140.321 263.73 136.669 255.043 127.785 247.727Z" fill="#FAFAFA"/>
<path d="M275.923 175.625C270.905 168.394 272.785 159.372 277.802 152.14C282.82 144.909 289.08 142.188 294.097 149.431C295.291 151.151 296.237 153.193 296.883 155.44C297.529 157.688 297.861 160.096 297.861 162.528C297.861 164.961 297.529 167.369 296.883 169.616C296.237 171.864 295.291 173.905 294.097 175.625C292.904 177.345 291.487 178.71 289.928 179.64C288.369 180.571 286.698 181.05 285.01 181.05C283.322 181.05 281.651 180.571 280.092 179.64C278.533 178.71 277.116 177.345 275.923 175.625Z" fill="#F0F0F0"/>
<path d="M289.038 168.322C287.862 170.021 286.34 171.133 284.694 171.498C283.049 171.863 281.365 171.461 279.889 170.351C279.813 170.292 279.725 170.275 279.641 170.303C279.557 170.331 279.483 170.401 279.432 170.502C279.382 170.602 279.358 170.726 279.366 170.849C279.374 170.973 279.413 171.088 279.475 171.174L279.525 171.246C281.046 173.461 283.116 174.714 285.28 174.73C286.351 174.738 287.412 174.442 288.404 173.858C289.395 173.274 290.297 172.415 291.059 171.329C291.82 170.243 292.425 168.952 292.84 167.528C293.255 166.105 293.471 164.578 293.476 163.035C293.482 161.491 293.276 159.961 292.871 158.532C292.466 157.103 291.87 155.803 291.117 154.706C290.591 153.927 289.978 153.282 289.303 152.796C290.648 154.94 291.37 157.746 291.32 160.635C291.271 163.524 290.454 166.276 289.038 168.322Z" fill="#E6E6E6"/>
<path d="M276.204 163.071C276.126 163.251 276.006 163.383 275.865 163.446C275.724 163.508 275.573 163.495 275.439 163.409C275.304 163.324 275.195 163.172 275.132 162.98C275.069 162.789 275.056 162.571 275.095 162.367C275.92 158.833 277.343 155.65 279.235 153.107C281.006 150.321 283.412 148.543 286.016 148.095C286.163 148.078 286.31 148.138 286.428 148.264C286.547 148.391 286.63 148.575 286.663 148.782C286.695 148.99 286.674 149.207 286.604 149.394C286.534 149.582 286.419 149.726 286.281 149.801C283.499 151.221 279.541 154.67 276.204 163.071Z" fill="#FAFAFA"/>
<path d="M258.758 215.615C257.848 212.452 252.002 205.96 252.002 205.96C252.002 205.96 247.655 174.516 244.5 164.599C243.672 161.985 240.567 154.157 240.567 154.157L236.551 128.393C236.551 128.393 234.895 110.206 231.923 105.826C228.321 100.456 212.722 96.9597 212.722 96.9597L211.372 85.0263L207 85.9213L202.628 84.9785L201.279 96.912C201.279 96.912 185.679 100.409 182.077 105.779C179.138 110.158 177.449 128.345 177.449 128.345L173.433 154.109C173.433 154.109 170.336 161.938 169.5 164.551C166.345 174.468 161.998 205.913 161.998 205.913C161.998 205.913 156.153 212.404 155.242 215.567C154.762 217.226 154.538 220.066 155.242 221.534C156.393 223.92 160.823 226.044 162.835 225.686C164.175 225.097 165.35 223.905 166.188 222.285C167.521 219.242 167.844 209.29 167.844 209.29C167.844 209.29 178.782 177.415 181.622 166.329C183.526 158.918 187.584 135.899 187.584 135.899C187.584 135.899 189.62 176.795 188.941 190.435C188.536 198.406 186.888 213.872 186.457 221.832C185.472 240.066 187.774 282.693 187.285 300.915C187.02 310.462 185.24 323.302 185.182 332.837C185.075 350.26 186.681 402.052 186.681 402.052C186.681 402.052 175.089 413.078 174.451 420.262C174.459 422.132 174.98 423.921 175.9 425.238C177.97 427.219 183.766 427.207 185.836 425.238C189.803 421.455 192.543 410.429 193.288 404.749C195.565 387.349 200.442 351.752 200.326 334.043C200.285 328.362 199.755 317.049 199.912 311.369C200.343 295.462 206.984 248.718 206.984 248.718C206.984 248.718 213.608 295.462 214.055 311.369C214.212 317.049 213.682 328.362 213.641 334.043C213.525 351.752 218.402 387.349 220.679 404.749C221.424 410.429 224.165 421.455 228.131 425.238C230.201 427.207 235.997 427.219 238.067 425.238C238.987 423.921 239.508 422.132 239.516 420.262C238.878 413.102 227.286 402.052 227.286 402.052C227.286 402.052 228.892 350.272 228.785 332.837C228.727 323.29 226.947 310.438 226.682 300.915C226.185 282.645 228.487 240.054 227.51 221.832C227.087 213.872 225.44 198.406 225.026 190.435C224.347 176.795 226.384 135.899 226.384 135.899C226.384 135.899 230.441 158.918 232.345 166.329C235.185 177.439 246.123 209.29 246.123 209.29C246.123 209.29 246.463 219.242 247.779 222.285C248.606 223.895 249.765 225.086 251.091 225.686C253.103 226.044 257.533 223.944 258.684 221.534C259.462 220.113 259.239 217.273 258.758 215.615Z" fill="#407BFF"/>
<path opacity="0.7" d="M258.758 215.615C257.848 212.452 252.002 205.96 252.002 205.96C252.002 205.96 247.655 174.516 244.5 164.599C243.672 161.985 240.567 154.157 240.567 154.157L236.551 128.393C236.551 128.393 234.895 110.206 231.923 105.826C228.321 100.456 212.722 96.9597 212.722 96.9597L211.372 85.0263L207 85.9213L202.628 84.9785L201.279 96.912C201.279 96.912 185.679 100.409 182.077 105.779C179.138 110.158 177.449 128.345 177.449 128.345L173.433 154.109C173.433 154.109 170.336 161.938 169.5 164.551C166.345 174.468 161.998 205.913 161.998 205.913C161.998 205.913 156.153 212.404 155.242 215.567C154.762 217.226 154.538 220.066 155.242 221.534C156.393 223.92 160.823 226.044 162.835 225.686C164.175 225.097 165.35 223.905 166.188 222.285C167.521 219.242 167.844 209.29 167.844 209.29C167.844 209.29 178.782 177.415 181.622 166.329C183.526 158.918 187.584 135.899 187.584 135.899C187.584 135.899 189.62 176.795 188.941 190.435C188.536 198.406 186.888 213.872 186.457 221.832C185.472 240.066 187.774 282.693 187.285 300.915C187.02 310.462 185.24 323.302 185.182 332.837C185.075 350.26 186.681 402.052 186.681 402.052C186.681 402.052 175.089 413.078 174.451 420.262C174.459 422.132 174.98 423.921 175.9 425.238C177.97 427.219 183.766 427.207 185.836 425.238C189.803 421.455 192.543 410.429 193.288 404.749C195.565 387.349 200.442 351.752 200.326 334.043C200.285 328.362 199.755 317.049 199.912 311.369C200.343 295.462 206.984 248.718 206.984 248.718C206.984 248.718 213.608 295.462 214.055 311.369C214.212 317.049 213.682 328.362 213.641 334.043C213.525 351.752 218.402 387.349 220.679 404.749C221.424 410.429 224.165 421.455 228.131 425.238C230.201 427.207 235.997 427.219 238.067 425.238C238.987 423.921 239.508 422.132 239.516 420.262C238.878 413.102 227.286 402.052 227.286 402.052C227.286 402.052 228.892 350.272 228.785 332.837C228.727 323.29 226.947 310.438 226.682 300.915C226.185 282.645 228.487 240.054 227.51 221.832C227.087 213.872 225.44 198.406 225.026 190.435C224.347 176.795 226.384 135.899 226.384 135.899C226.384 135.899 230.441 158.918 232.345 166.329C235.185 177.439 246.123 209.29 246.123 209.29C246.123 209.29 246.463 219.242 247.779 222.285C248.606 223.895 249.765 225.086 251.091 225.686C253.103 226.044 257.533 223.944 258.684 221.534C259.462 220.113 259.239 217.273 258.758 215.615Z" fill="white"/>
<path opacity="0.2" d="M202.14 89.2746C206.52 93.7138 209.989 91.4465 211.869 89.3581L211.372 84.9785L207 85.9213L202.628 84.9785L202.14 89.2746Z" fill="black"/>
<path opacity="0.2" d="M202.786 249.923C203.308 257.763 203.051 261.57 201.544 291.69C203.639 272.322 207 248.73 207 248.73C207 248.73 201.983 237.727 202.786 249.923Z" fill="black"/>
<path opacity="0.2" d="M185.473 133.56C184.231 137.975 185.29 147.653 182.69 161.615C184.736 151.997 187.567 135.923 187.567 135.923C187.567 135.923 186.748 129.144 185.473 133.56Z" fill="black"/>
<path opacity="0.2" d="M228.454 133.56C227.005 130.934 226.4 135.947 226.4 135.947C226.4 135.947 228.495 147.797 230.375 157.236C230.309 156.89 230.242 156.532 230.16 156.138C227.957 145.887 229.903 136.197 228.454 133.56Z" fill="black"/>
<path d="M219.197 70.6941C219.041 70.1297 218.757 69.6577 218.392 69.3545C218.027 69.0513 217.601 68.9346 217.184 69.0234C217.317 66.2429 217.458 63.3192 217.516 62.1019C217.905 53.9752 213.218 47.3879 207.042 47.3402H207C200.823 47.3402 196.137 53.9752 196.526 62.1019L196.857 69.0234C196.44 68.9346 196.015 69.0513 195.65 69.3545C195.284 69.6577 195.001 70.1297 194.845 70.6941C193.719 73.57 195.267 79.8829 197.826 79.2981C199.325 85.1336 202.951 89.358 207 89.4058H207.083C211.132 89.4058 214.758 85.1336 216.257 79.2981C218.774 79.8829 220.323 73.57 219.197 70.6941Z" fill="#407BFF"/>
<path opacity="0.7" d="M219.197 70.6941C219.041 70.1297 218.757 69.6577 218.392 69.3545C218.027 69.0513 217.601 68.9346 217.184 69.0234C217.317 66.2429 217.458 63.3192 217.516 62.1019C217.905 53.9752 213.218 47.3879 207.042 47.3402H207C200.823 47.3402 196.137 53.9752 196.526 62.1019L196.857 69.0234C196.44 68.9346 196.015 69.0513 195.65 69.3545C195.284 69.6577 195.001 70.1297 194.845 70.6941C193.719 73.57 195.267 79.8829 197.826 79.2981C199.325 85.1336 202.951 89.358 207 89.4058H207.083C211.132 89.4058 214.758 85.1336 216.257 79.2981C218.774 79.8829 220.323 73.57 219.197 70.6941Z" fill="white"/>
<path d="M210.685 139.359C210.594 138.428 209.898 130.17 212.242 128.189C213.277 127.318 214.626 127.784 216.266 129.562L215.868 129.896C215.418 129.507 214.907 129.289 214.383 129.262C213.859 129.235 213.339 129.4 212.871 129.741C211.587 130.815 211.67 136.531 211.91 139.12L210.685 139.359Z" fill="#263238"/>
<path d="M214.642 231.343C213.558 214.636 209.674 207.154 208.507 205.328C208.64 200.844 208.426 196.354 207.869 191.939C206.213 178.668 203.638 158.608 206.429 144.742V144.503C206.478 143.644 207.455 123.977 202.653 115.397C203.481 113.38 205.137 107.962 204.822 97.8429C204.771 93.2147 204.212 88.6274 203.166 84.2506C202.632 82.2441 202.339 80.1217 202.297 77.9736C202.344 75.7502 202.575 73.5429 202.984 71.3982C203.38 69.2737 203.61 67.0924 203.671 64.8945C204.35 64.5484 205.725 63.3789 205.982 59.6437L206.81 55.2641L206.412 55.109L205.402 58.1759L203.746 56.1711L203.44 56.5172L205.096 59.6557C204.872 62.2691 204.061 63.2357 203.556 63.6415C203.475 62.5312 203.164 61.4818 202.663 60.6302C202.163 59.7786 201.495 59.1645 200.749 58.8681L200.649 59.2619C203.804 60.861 202.926 65.9804 202.123 71.076C201.7 73.3149 201.464 75.6184 201.419 77.9378C201.419 78.0571 201.419 78.1526 201.419 78.2719C200.851 77.3017 200.177 76.4714 199.424 75.8136C198.256 74.8351 197.768 71.4221 197.842 70.2049H197.428C197.428 70.4078 197.147 75.3363 199.01 76.8996C200.032 77.8436 200.903 79.088 201.568 80.5512C201.743 81.9309 201.995 83.2878 202.322 84.6086C203.369 88.8672 203.942 93.3379 204.019 97.8548C204.317 107.091 202.877 112.294 202.09 114.407C201.433 113.409 200.638 112.621 199.757 112.095C198.875 111.569 197.927 111.315 196.973 111.352C195.402 111.361 193.844 111.764 192.369 112.545C191.293 111.578 188.974 109.848 186.789 110.54C186.107 110.777 185.472 111.23 184.927 111.866C184.383 112.502 183.944 113.304 183.642 114.216C181.878 118.917 180.595 125.743 179.113 133.655C178.285 138.238 177.879 143.202 176.811 147.976L177.093 148.107C178.161 143.333 179.055 138.56 179.916 133.978C181.382 126.137 182.657 119.371 184.371 114.788C184.616 114.03 184.976 113.361 185.425 112.83C185.873 112.299 186.399 111.92 186.962 111.722C188.514 111.449 190.083 111.95 191.409 113.142C183.46 118.512 180.554 134.526 179.61 142.14C178.525 150.816 174.253 167.2 171.479 177.32C170.121 178.299 167.405 182.034 165.252 196.33L165.501 196.402C167.157 185.661 169.641 181.377 170.874 179.504C170.259 181.715 169.826 184.022 169.583 186.378L170.046 186.664C171.839 181.747 173.437 176.687 174.832 171.508C174.522 177.051 173.482 182.458 171.769 187.44C167.952 198.454 162.131 217.834 162.064 218.025L162.305 218.192C162.363 218.001 168.688 198.979 172.514 187.965C174.665 181.76 175.774 174.913 175.751 167.976C178.07 159.002 180.446 148.882 181.233 142.57C181.624 139.361 182.177 136.198 182.889 133.106C183.063 137.498 182.682 146.4 179.179 161.663L179.502 161.806C183.874 142.713 183.932 133.715 183.535 130.553C185.803 122.283 189.852 113.846 196.973 113.714C197.735 113.682 198.492 113.89 199.191 114.325C199.891 114.76 200.516 115.411 201.022 116.232C203.928 120.696 204.698 129.968 204.856 136.627C202.777 137.343 198.919 138.333 197.768 137.056C197.139 136.364 197.933 134.371 198.703 132.45C199.045 131.632 199.354 130.787 199.631 129.92C199.881 129.769 200.15 129.691 200.422 129.691C200.693 129.691 200.962 129.769 201.212 129.92L201.37 129.491C200.798 129.037 200.426 128.416 199.962 128.512C200.106 127.823 200.064 127.082 199.846 126.436L199.507 126.71C199.887 127.7 198.679 130.016 197.983 131.794C197.288 133.572 196.675 135.063 196.708 136.364C196.032 135.863 195.467 135.101 195.075 134.163C194.683 133.225 194.48 132.149 194.489 131.054H194.1C194.1 136.698 196.932 137.88 197.412 138.035C197.821 138.389 198.279 138.609 198.753 138.679C196.708 139.312 193.934 139.706 192.344 137.904C192.226 137.761 192.138 137.574 192.09 137.363C192.042 137.152 192.035 136.926 192.071 136.71C192.253 135.66 192.402 134.025 191.765 133.13L191.5 133.524C191.641 133.715 191.384 134.515 191.392 134.896H189.579V135.35L191.318 136.09C191.318 136.293 191.21 136.639 191.144 136.949C191.104 137.128 191.102 137.321 191.139 137.502C191.176 137.683 191.25 137.843 191.351 137.963C191.992 138.805 192.729 139.483 193.528 139.968C192.599 140.448 191.84 141.439 191.417 142.725L191.641 142.856C192.402 140.266 195.988 140.362 196.012 140.362C197.235 140.294 198.448 140.033 199.631 139.586C198.539 140.51 197.724 141.986 197.346 143.727C197.139 144.014 195.822 146.209 192.262 145.66V146.162C192.779 146.243 193.298 146.287 193.818 146.293C194.852 146.334 195.882 146.083 196.849 145.553C196.294 146.902 195.514 148.03 194.58 148.834C193.646 149.639 192.587 150.094 191.5 150.159V150.625C191.5 150.625 191.682 150.625 191.964 150.625C192.792 150.621 193.615 150.419 194.398 150.028C193.984 151.221 194.083 153.19 194.05 155.923H194.373C194.448 150.792 195.88 148.954 195.897 148.93C196.414 148.409 196.865 147.763 197.23 147.021C196.972 148.727 196.972 150.494 197.23 152.2C197.909 155.422 197.884 160.911 196.849 162.403L197.089 162.749C198.049 161.365 198.538 157.88 198.364 154.658C198.707 155.075 199.141 155.307 199.589 155.315V154.754C198.571 154.754 198.041 151.925 198.016 151.854C197.403 148.906 198.753 142.963 198.993 141.985C200.608 139.181 203.647 139.061 204.996 139.169C204.996 141.71 204.922 143.548 204.905 144.014C202.86 153.942 203.44 166.472 204.516 177.702C202.83 177.921 201.253 179 200.07 180.745C199.123 182.285 197.921 183.455 196.576 184.146L196.203 184.241C195.474 184.385 194.481 184.576 193.851 183.716L193.578 184.122C193.846 184.493 194.153 184.799 194.489 185.029C193.974 185.265 193.506 185.677 193.126 186.23C192.745 186.783 192.463 187.46 192.303 188.203L192.543 188.275C192.767 186.557 195.226 185.769 196.319 185.423L196.6 185.351H196.749C198.262 184.636 199.614 183.35 200.666 181.628C201.725 180.077 203.135 179.125 204.64 178.943C205.137 183.812 205.717 188.418 206.222 192.416C206.77 196.744 206.975 201.148 206.834 205.543C206.625 211.014 205.093 216.207 202.504 220.221C201.4 221.987 200.431 223.92 199.614 225.985C198.679 225.782 196.865 225.138 195.988 223.18C195.276 221.581 195.317 219.362 196.104 216.593C197.057 213.181 198.391 210.016 200.053 207.225C201.394 204.839 202.454 202.953 202.471 199.254C202.471 193.55 203.647 191.628 203.647 191.628L203.506 191.306C203.307 191.485 201.775 192.678 201.759 199.397C201.759 202.464 200.765 204.421 199.482 206.7C198.198 208.98 196.368 210.925 194.953 215.913C194 219.266 194 222.035 194.953 224.147C195.928 226.039 197.384 227.296 199.002 227.644C198.679 228.539 198.364 229.505 198.058 230.531C196.84 232.023 194.439 234.493 193.09 233.849C192.543 233.574 192.187 232.656 192.03 231.188C191.62 226.331 190.173 221.777 187.89 218.156L187.501 218.586C189.271 222.454 190.403 226.854 190.813 231.45C191.044 233.658 191.641 235.03 192.692 235.532C192.972 235.67 193.266 235.739 193.562 235.734C194.874 235.557 196.126 234.859 197.18 233.718C196.749 235.508 196.352 237.441 195.996 239.577C194.116 240.281 189.281 243.921 189.223 262.585C189.148 284.459 189.836 293.827 189.844 293.91L190.465 293.815C190.465 293.731 190.39 284.352 190.465 262.597C190.506 247.25 193.885 242.906 195.673 241.677C194.78 248.237 194.352 254.91 194.398 261.594C194.398 271.678 194.34 290.235 194.042 310.677C192.444 316.298 187.939 336.179 190.266 363.435L190.738 363.351C189.239 346.847 190.349 330.068 193.984 314.269C193.421 349.079 192.932 388.066 189.894 399.295L190.597 400.154C190.2 407.319 188.566 414.227 185.845 420.25L186.259 420.632C191.492 408.615 191.674 399.808 191.442 396.216C193.288 385.476 194.406 364.139 195.077 340.881C195.557 344.604 195.905 351.06 195.019 361.776L195.458 361.848C196.683 346.251 195.913 339.508 195.184 336.942C195.921 309.161 196.012 279.304 196.012 261.594C195.913 253.388 196.624 245.203 198.124 237.286C199.465 239.159 201.858 243.849 200.98 252.919C200.533 257.573 199.97 262.227 199.416 266.738C198.57 273.834 198.124 281.018 198.082 288.218H198.712C198.761 282.311 199.672 274.876 200.641 267C201.187 262.477 201.767 257.811 202.214 253.122C203.257 242.274 199.937 237.059 198.521 235.365C199.554 230.365 201.31 225.737 203.671 221.784C206.166 217.877 207.78 212.971 208.3 207.715C209.956 210.567 213.268 217.858 214.162 231.498L214.642 231.343Z" fill="#263238"/>
<path d="M241.172 179.002C242.124 179.492 243.581 180.852 244.484 184.623C244.992 186.73 245.369 188.899 245.61 191.103C245.825 192.988 246.496 194.301 247.316 196.891L247.597 196.712C247.003 194.871 246.607 192.912 246.421 190.9C246.181 188.63 245.796 186.397 245.27 184.229C244.028 179.038 241.768 177.857 240.75 177.594C240.288 176.031 239.769 174.506 239.193 173.024C237.048 167.916 233.215 145.577 233.074 135.206C232.942 125.361 229.596 115.039 223.386 111.757C224.293 110.804 225.386 110.294 226.508 110.301C227.094 110.371 227.663 110.62 228.177 111.032C228.691 111.443 229.138 112.008 229.489 112.688C231.63 116.484 233.068 121 233.67 125.815C234.043 128.463 234.516 131.08 235.086 133.655L235.376 133.464C234.817 130.931 234.35 128.358 233.977 125.755C233.206 120.707 232.47 115.958 230.118 111.948C229.695 111.145 229.158 110.481 228.542 110.002C227.927 109.522 227.247 109.238 226.549 109.167C225.033 109.189 223.57 109.969 222.409 111.375C221.701 111.084 220.974 110.892 220.24 110.802C219.18 110.614 218.105 110.734 217.078 111.156C216.051 111.579 215.093 112.294 214.262 113.261C214.264 111.637 214.027 110.031 213.566 108.55C213.105 107.068 212.431 105.745 211.587 104.669C210.675 103.567 209.885 102.271 209.244 100.826C209.708 92.5322 210.42 84.119 210.577 82.2932C211.289 81.8517 213.061 80.0975 213.972 73.6295C215.537 62.6387 215.231 56.4453 213.053 54.691L212.929 55.0132C214.162 56.0157 214.982 60.5981 213.161 73.3908C212.457 78.3432 211.273 80.2168 210.61 80.897C210.61 79.0234 210.453 74.9303 209.584 72.6271C210.213 71.7917 211.703 69.5482 211.736 66.9467H211.43C211.43 68.9635 209.907 70.849 209.178 71.6485C208.391 69.3215 208.284 64.2736 208.35 62.3881H208.01C208.01 62.7103 207.389 70.1688 208.731 72.8777C209.89 75.2644 209.815 81.5295 209.807 81.8397C209.766 82.3529 209.054 90.4796 208.54 99.0001C207.348 95.4201 206.677 90.4557 207.712 83.6059L206.884 83.3434C205.584 91.6252 206.735 97.3533 208.35 101.148C208.259 102.759 208.184 104.37 208.118 105.922C207.762 114.848 210.172 119.132 211.165 120.504C210.984 121.397 210.846 122.306 210.751 123.225H210.668C210.299 123.239 209.936 123.371 209.607 123.613C209.277 123.855 208.989 124.199 208.764 124.621C208.507 122.757 208.063 120.956 207.447 119.275C206.131 115.695 203.39 111.077 197.752 109.179C186.888 105.528 182.45 125.111 182.4 125.313L182.723 125.481C182.773 125.29 187.418 106.936 197.561 110.349C206.512 113.356 207.878 123.297 208.085 126.018L207.986 126.244C205.369 133.154 207.158 140.051 208.482 143.476C207.944 144.562 203.407 154.216 210.072 158.119C209.087 164.372 207.091 178.764 207.679 189.551C207.124 194.217 205.361 205.924 200.997 212.368C195.276 220.817 195.483 229.171 195.499 229.529L195.723 229.469C195.723 229.386 195.516 221.283 200.989 213.204C204.79 207.583 206.926 198.394 207.944 192.726C208.038 193.53 208.159 194.326 208.309 195.113C209.194 199.886 210.859 203.979 212.622 208.323C215.736 215.984 218.957 223.896 217.913 236.283C217.607 239.863 217.417 243.849 217.301 248.073C216.207 249.167 215.317 250.629 214.706 252.332C214.096 254.036 213.784 255.93 213.798 257.847C213.748 260.663 213.898 262.048 213.517 263.575C212.937 265.83 212.49 267.62 213.898 271.165L214.022 270.914C212.805 267.847 213.144 266.523 213.699 264.327C214.273 262.276 214.587 260.093 214.626 257.883C214.618 256.308 214.851 254.749 215.307 253.318C215.763 251.887 216.433 250.618 217.267 249.601C217.069 259.052 217.267 269.542 217.673 279.208C216.729 280.401 214.941 283.504 215.595 290.592C216.208 297.168 216.547 301.13 216.274 306.106C216.183 307.801 216.083 309.603 216.009 311.655H216.282C216.357 309.614 216.456 307.824 216.547 306.142C216.941 300.927 216.899 295.662 216.423 290.461C215.918 285.019 216.936 282.167 217.748 280.819C218.112 289.053 218.625 296.583 219.155 302.216C219.553 306.44 219.843 312.288 220.083 319.066C217.893 325.765 216.738 333.069 216.696 340.474C216.744 344.757 217.048 349.025 217.607 353.231C218.013 356.632 218.824 360.141 218.94 366.358H219.379C219.308 361.901 218.989 357.46 218.427 353.076C217.87 348.866 217.574 344.593 217.541 340.307C217.561 333.88 218.461 327.521 220.19 321.596C220.414 328.589 220.596 336.429 220.778 344.496C221.027 355.105 221.275 366.072 221.648 375.392L221.764 378.208C222.633 400.106 222.956 408.293 227.725 417.708L228.048 417.362C223.535 408.448 224.09 400.142 223.213 378.089L223.097 375.261C222.724 365.976 222.476 354.974 222.227 344.424C222.153 341.131 222.078 337.873 222.004 334.699C223.878 339.643 224.815 345.212 224.719 350.845C224.719 356.382 224.537 361.036 224.363 365.535C224.231 371.191 224.328 376.853 224.653 382.492L224.993 382.433C224.83 376.819 224.896 371.197 225.191 365.594C225.365 361.084 225.547 356.418 225.547 350.845C225.547 340.415 222.989 334.353 221.946 332.312C221.623 319.794 221.258 308.684 220.604 301.774C219.205 286.81 217.905 258.336 219.155 239.278C220.124 240.615 221.639 243.646 221.821 249.625C221.929 253.324 221.772 258.3 221.623 263.11C221.391 270.52 221.623 278.277 222.302 282.072C222.92 285.899 222.92 289.88 222.302 293.707L222.641 293.91C223.285 289.883 223.271 285.696 222.6 281.678C221.954 278.098 222.194 270.484 222.418 263.169C222.567 258.324 222.724 253.324 222.616 249.577C222.577 246.92 222.166 244.302 221.407 241.88C222.136 240.687 224.587 235.973 223.709 230.376C222.649 223.598 221.681 216.056 222.592 211.378C223.585 206.318 222.12 197.153 222.053 196.759L221.681 196.903C221.681 196.986 223.171 206.151 222.235 210.924C221.3 215.698 221.813 223.717 222.898 230.639C223.618 235.209 221.797 239.219 220.985 240.734C220.529 239.61 219.931 238.618 219.222 237.811C219.263 237.333 219.296 236.868 219.329 236.402C220.43 223.276 217.094 215.089 213.856 207.13C212.142 202.917 210.544 198.943 209.716 194.444C208.954 190.363 208.888 184.897 209.203 179.396C210.412 177.785 212.225 175.816 213.078 176.031C213.16 176.048 213.237 176.097 213.301 176.173C213.366 176.248 213.414 176.348 213.442 176.46C213.831 177.654 213.343 179.599 212.871 181.461C212.299 183.728 211.521 185.315 212.291 187.045C212.572 187.746 212.975 188.328 213.46 188.734C213.945 189.14 214.496 189.356 215.057 189.361C215.369 189.367 215.679 189.298 215.976 189.158L215.876 188.776C215.365 189.001 214.814 188.962 214.32 188.666C213.826 188.37 213.419 187.835 213.169 187.153C212.889 186.295 212.856 185.312 213.078 184.42C213.727 185.21 214.533 185.682 215.38 185.769C215.634 185.768 215.886 185.703 216.125 185.578C217.417 184.897 218.021 185.578 218.038 185.649L218.245 185.339C218.245 185.339 217.582 183.859 215.91 184.742C214.891 185.279 213.732 184.062 213.26 183.477C213.376 182.94 213.517 182.403 213.649 181.866C213.962 180.757 214.198 179.606 214.353 178.429C214.696 178.323 215.02 178.115 215.305 177.819C215.59 177.524 215.83 177.146 216.009 176.711C216.188 177.742 216.103 178.831 215.769 179.778C215.666 180.007 215.607 180.271 215.598 180.544C215.59 180.817 215.631 181.088 215.719 181.329C216.241 182.678 218.327 182.344 218.559 182.368V182.01C217.93 182.01 216.539 181.616 216.266 180.9C216.216 180.78 216.175 180.578 216.315 180.208C216.563 179.465 216.697 178.654 216.707 177.83C216.717 177.006 216.603 176.189 216.373 175.434C216.487 175.107 216.678 174.849 216.911 174.705C217.144 174.561 217.405 174.54 217.648 174.647C218.477 174.898 219.207 175.597 219.689 176.6C220.171 177.603 220.368 178.834 220.24 180.04H220.472C220.72 176.21 219.23 174.074 217.748 173.74C217.335 173.579 216.895 173.654 216.52 173.95C216.145 174.246 215.864 174.739 215.736 175.327C215.677 175.827 215.523 176.294 215.293 176.677C215.062 177.06 214.763 177.344 214.427 177.499C214.435 176.974 214.364 176.453 214.22 175.971C214.134 175.687 214 175.437 213.832 175.243C213.663 175.05 213.464 174.919 213.252 174.861C212.126 174.575 210.445 176.317 209.327 177.69C209.781 171.268 210.505 164.891 211.496 158.596L211.761 158.715C221.283 162.093 218.998 154.324 218.799 148.763C218.543 141.412 211.215 131.34 209.004 140.564C208.01 137.163 207.191 131.984 209.112 126.925C209.484 125.946 210.031 124.824 210.652 124.836C212.2 124.932 214.105 131.185 215.371 135.326C215.851 137.032 216.404 138.694 217.027 140.302C218.153 142.92 219.754 145.045 221.656 146.448L222.045 145.636C220.464 143.908 219.119 141.771 218.079 139.335C217.486 137.791 216.958 136.197 216.497 134.562C216.274 133.834 216.05 133.094 215.818 132.354C216.083 132.569 216.365 132.784 216.646 132.987C216.953 133.679 218.22 136.447 219.793 137.366C221.075 138.277 222.265 139.438 223.328 140.815L223.651 140.433C223 139.321 222.27 138.31 221.474 137.414C221.856 137.32 222.219 137.108 222.54 136.793C222.86 136.478 223.129 136.067 223.328 135.588L222.981 135.278C222.484 136.471 220.753 136.364 220.066 136.233C219.277 135.649 218.592 134.812 218.062 133.786C218.546 133.998 219.047 134.115 219.553 134.132C219.778 134.131 220.002 134.099 220.223 134.037C220.607 133.93 220.968 133.701 221.282 133.366C221.596 133.032 221.854 132.6 222.037 132.104V131.626H223.328V131.03L222.028 130.54V128.536L221.614 128.44L221.275 131.614C221.148 131.939 220.973 132.22 220.763 132.436C220.553 132.653 220.312 132.8 220.058 132.867C219.595 132.982 219.121 132.953 218.667 132.784C218.949 131.851 219.076 130.836 219.035 129.82C218.995 128.804 218.789 127.816 218.435 126.936L218.038 127.271C218.323 128.08 218.46 128.981 218.434 129.888C218.408 130.795 218.22 131.678 217.888 132.45C216.925 131.917 216.01 131.216 215.164 130.361C214.196 127.462 213.136 124.86 211.952 123.679C212.084 122.103 212.672 117.39 214.933 114.573C215.646 113.72 216.474 113.088 217.364 112.717C218.254 112.345 219.188 112.242 220.108 112.413C227.609 113.32 231.7 124.526 231.815 135.087C231.971 139.497 232.352 143.885 232.958 148.214C232.387 149.682 231.716 154.097 234.407 166.651L234.631 166.556C232.552 156.866 232.776 152.235 233.215 150.135C234.548 159.813 236.585 170.112 238.117 173.763C240.41 179.193 249.709 212.106 249.766 212.44L250.272 212.165C249.99 211.223 244.534 190.124 241.172 179.002ZM213.392 114.382C212.553 115.786 211.904 117.406 211.48 119.156C210.494 117.581 208.656 113.571 208.996 105.933C208.996 104.871 209.095 103.785 209.145 102.676C209.711 103.735 210.355 104.703 211.066 105.564C213.384 108.32 213.459 112.712 213.392 114.347V114.382Z" fill="#407BFF"/>
<path opacity="0.2" d="M208.714 149.169C208.684 148.993 208.614 148.836 208.515 148.725C208.416 148.613 208.293 148.552 208.168 148.552C208.042 148.552 207.92 148.613 207.821 148.725C207.722 148.836 207.651 148.993 207.621 149.169C207.158 152.104 207.307 156.114 211.057 157.737C213.732 158.93 215.429 158.799 216.497 158.31C216.623 158.245 216.728 158.118 216.795 157.951C216.862 157.785 216.885 157.59 216.861 157.401C216.837 157.212 216.768 157.041 216.665 156.919C216.562 156.797 216.432 156.731 216.299 156.734C214.44 156.893 212.603 156.084 211.124 154.455C209.941 153.12 209.095 151.263 208.714 149.169Z" fill="#263238"/>
<path opacity="0.2" d="M210.577 140.648C210.488 140.627 210.404 140.575 210.333 140.496C210.262 140.417 210.205 140.313 210.169 140.194C210.133 140.076 210.118 139.946 210.125 139.816C210.133 139.687 210.163 139.563 210.213 139.455C210.693 138.452 211.678 137.306 213.392 138.571C215.223 140.093 216.672 142.412 217.532 145.195C217.607 145.37 217.63 145.581 217.597 145.782C217.563 145.982 217.476 146.155 217.354 146.263C217.232 146.37 217.086 146.404 216.947 146.355C216.808 146.307 216.688 146.182 216.613 146.006C215.171 143.141 213.001 141.215 210.577 140.648Z" fill="white"/>
<path d="M312.984 98.2004C313.835 100.621 314.346 103.259 314.489 105.964C314.632 108.669 314.404 111.388 313.817 113.966C313.23 116.544 312.297 118.93 311.07 120.988C309.843 123.045 308.346 124.734 306.666 125.958C299.604 131.113 301.168 121.745 297.558 111.566C293.948 101.387 286.629 94.2505 293.692 89.0952C295.373 87.8631 297.206 87.1213 299.086 86.9122C300.966 86.7031 302.857 87.0309 304.649 87.8767C306.441 88.7226 308.1 90.0699 309.53 91.8415C310.961 93.613 312.134 95.7739 312.984 98.2004Z" fill="#407BFF"/>
<path opacity="0.8" d="M312.984 98.2004C313.835 100.621 314.346 103.259 314.489 105.964C314.632 108.669 314.404 111.388 313.817 113.966C313.23 116.544 312.297 118.93 311.07 120.988C309.843 123.045 308.346 124.734 306.666 125.958C299.604 131.113 301.168 121.745 297.558 111.566C293.948 101.387 286.629 94.2505 293.692 89.0952C295.373 87.8631 297.206 87.1213 299.086 86.9122C300.966 86.7031 302.857 87.0309 304.649 87.8767C306.441 88.7226 308.1 90.0699 309.53 91.8415C310.961 93.613 312.134 95.7739 312.984 98.2004Z" fill="white"/>
<path d="M94.8969 200.554C94.2998 198.872 93.9395 197.036 93.837 195.152C93.7345 193.268 93.8918 191.373 94.2997 189.577C94.7077 187.781 95.3583 186.119 96.2139 184.687C97.0696 183.255 98.1135 182.082 99.2853 181.234C104.204 177.654 103.119 184.169 105.603 191.246C108.087 198.323 113.212 203.299 108.294 206.891C107.127 207.749 105.853 208.266 104.546 208.412C103.239 208.558 101.926 208.33 100.68 207.741C99.4352 207.152 98.2831 206.214 97.2905 204.98C96.2979 203.747 95.4844 202.243 94.8969 200.554Z" fill="#407BFF"/>
<path opacity="0.8" d="M94.8969 200.554C94.2998 198.872 93.9395 197.036 93.837 195.152C93.7345 193.268 93.8918 191.373 94.2997 189.577C94.7077 187.781 95.3583 186.119 96.2139 184.687C97.0696 183.255 98.1135 182.082 99.2853 181.234C104.204 177.654 103.119 184.169 105.603 191.246C108.087 198.323 113.212 203.299 108.294 206.891C107.127 207.749 105.853 208.266 104.546 208.412C103.239 208.558 101.926 208.33 100.68 207.741C99.4352 207.152 98.2831 206.214 97.2905 204.98C96.2979 203.747 95.4844 202.243 94.8969 200.554Z" fill="white"/>
<path d="M77.8319 292.788C77.6543 291.393 77.6701 289.962 77.8782 288.576C78.0864 287.191 78.4829 285.878 79.0448 284.714C79.6067 283.55 80.323 282.558 81.1522 281.796C81.9815 281.033 82.9073 280.514 83.8763 280.27C87.9501 279.22 86.1947 283.563 86.9234 289.423C87.652 295.282 90.5831 300.449 86.5176 301.499C85.55 301.755 84.5569 301.733 83.5954 301.433C82.6339 301.133 81.7232 300.561 80.9157 299.751C80.1082 298.941 79.42 297.909 78.8907 296.714C78.3614 295.519 78.0016 294.185 77.8319 292.788Z" fill="#407BFF"/>
<path opacity="0.8" d="M77.8319 292.788C77.6543 291.393 77.6701 289.962 77.8782 288.576C78.0864 287.191 78.4829 285.878 79.0448 284.714C79.6067 283.55 80.323 282.558 81.1522 281.796C81.9815 281.033 82.9073 280.514 83.8763 280.27C87.9501 279.22 86.1947 283.563 86.9234 289.423C87.652 295.282 90.5831 300.449 86.5176 301.499C85.55 301.755 84.5569 301.733 83.5954 301.433C82.6339 301.133 81.7232 300.561 80.9157 299.751C80.1082 298.941 79.42 297.909 78.8907 296.714C78.3614 295.519 78.0016 294.185 77.8319 292.788Z" fill="white"/>
<path d="M308.016 336.93C305.387 337.875 302.605 337.282 300.278 335.281C297.951 333.28 296.268 330.033 295.596 326.25C294.197 318.338 298.494 321.369 303.984 319.352C309.473 317.335 314.085 310.999 315.484 318.947C315.816 320.834 315.885 322.798 315.689 324.724C315.492 326.65 315.034 328.502 314.34 330.173C313.646 331.843 312.73 333.3 311.645 334.46C310.56 335.619 309.327 336.459 308.016 336.93Z" fill="#407BFF"/>
<path opacity="0.8" d="M308.016 336.93C305.387 337.875 302.605 337.282 300.278 335.281C297.951 333.28 296.268 330.033 295.596 326.25C294.197 318.338 298.494 321.369 303.984 319.352C309.473 317.335 314.085 310.999 315.484 318.947C315.816 320.834 315.885 322.798 315.689 324.724C315.492 326.65 315.034 328.502 314.34 330.173C313.646 331.843 312.73 333.3 311.645 334.46C310.56 335.619 309.327 336.459 308.016 336.93Z" fill="white"/>
<path d="M155.813 117.939C150.357 117.939 145.223 110.588 145.223 101.53C145.223 92.4726 150.357 85.1096 155.813 85.1096C161.27 85.1096 164.996 92.4607 164.996 101.53C164.996 110.6 161.278 117.939 155.813 117.939Z" fill="#407BFF"/>
<path opacity="0.4" d="M155.813 117.939C150.357 117.939 145.223 110.588 145.223 101.53C145.223 92.4726 150.357 85.1096 155.813 85.1096C161.27 85.1096 164.996 92.4607 164.996 101.53C164.996 110.6 161.278 117.939 155.813 117.939Z" fill="white"/>
<path d="M149.487 101.53C149.474 98.8185 150.143 96.1918 151.37 94.1361C152.597 92.0804 154.299 90.7348 156.161 90.3483C155.971 90.3302 155.78 90.3302 155.59 90.3483C151.855 90.3483 148.345 95.3723 148.345 101.578C148.345 107.783 151.855 112.807 155.59 112.807C155.788 112.807 155.971 112.807 156.161 112.807C154.289 112.414 152.58 111.053 151.352 108.978C150.124 106.904 149.462 104.257 149.487 101.53Z" fill="#407BFF"/>
<path d="M156.161 91.7089C156.161 91.7089 161.452 93.1409 161.452 101.172C161.452 109.203 156.161 111.149 156.161 111.149C157.397 110.265 158.438 108.905 159.169 107.22C159.9 105.534 160.292 103.589 160.301 101.602C160.269 99.5757 159.871 97.5968 159.144 95.8615C158.418 94.1261 157.39 92.6946 156.161 91.7089Z" fill="#407BFF"/>
<g opacity="0.4">
<path d="M160.723 92.4964C160.625 92.3019 160.582 92.0604 160.603 91.8216C160.624 91.5827 160.708 91.3646 160.837 91.2119C160.966 91.0593 161.131 90.9837 161.298 91.0006C161.464 91.0176 161.62 91.1258 161.733 91.3031C163.226 93.6343 164.176 96.5802 164.449 99.7281C164.756 102.638 164.371 105.611 163.356 108.165C163.273 108.369 163.14 108.52 162.983 108.59C162.827 108.659 162.657 108.64 162.51 108.538C162.362 108.436 162.246 108.258 162.185 108.038C162.124 107.819 162.122 107.575 162.181 107.354C162.844 104.905 163.058 102.252 162.802 99.6499C162.547 97.0476 161.831 94.5839 160.723 92.4964Z" fill="white"/>
<path d="M160.632 110.301C160.806 109.872 161.725 109.036 162.015 110.301C162.304 111.566 160.052 111.721 160.632 110.301Z" fill="white"/>
</g>
<path d="M313.439 243.085C313.439 255.091 305.664 266.368 296.051 266.368C286.438 266.368 278.663 255.091 278.663 243.085C278.663 231.08 286.438 222.894 296.051 222.894C305.664 222.894 313.439 231.08 313.439 243.085Z" fill="#407BFF"/>
<path opacity="0.4" d="M313.439 243.085C313.439 255.091 305.664 266.368 296.051 266.368C286.438 266.368 278.663 255.091 278.663 243.085C278.663 231.08 286.438 222.894 296.051 222.894C305.664 222.894 313.439 231.08 313.439 243.085Z" fill="white"/>
<path d="M296.068 256.988C289.85 256.988 284.75 250.055 284.236 242.322C284.236 242.739 284.187 243.145 284.187 243.575C284.187 251.785 289.511 259.506 296.068 259.506C302.626 259.506 307.958 251.785 307.958 243.575C307.958 243.145 307.958 242.739 307.909 242.322C307.395 250.055 302.295 256.988 296.068 256.988Z" fill="#407BFF"/>
<path d="M285.66 242.322C285.66 242.322 287.184 230.687 295.687 230.687C304.191 230.687 306.244 242.322 306.244 242.322C306.244 242.322 303.379 233.264 296.134 233.264C288.889 233.264 285.66 242.322 285.66 242.322Z" fill="#407BFF"/>
<g opacity="0.4">
<path d="M286.488 232.285C286.282 232.498 286.028 232.59 285.777 232.541C285.526 232.493 285.297 232.308 285.137 232.025C284.978 231.741 284.899 231.381 284.918 231.017C284.936 230.652 285.051 230.312 285.238 230.066C287.706 226.785 290.824 224.699 294.155 224.099C297.235 223.41 300.386 224.252 303.089 226.486C303.294 226.671 303.444 226.958 303.513 227.291C303.581 227.625 303.563 227.983 303.462 228.299C303.36 228.615 303.182 228.867 302.961 229.007C302.741 229.148 302.492 229.168 302.261 229.063C298.005 226.736 292.499 226.295 286.488 232.285Z" fill="white"/>
<path d="M305.366 232.56C304.903 232.19 304.025 230.173 305.366 229.529C306.708 228.885 306.865 233.777 305.366 232.56Z" fill="white"/>
</g>
<path d="M159.804 332.801C159.804 344.794 152.037 356.059 142.457 356.059C132.877 356.059 125.069 344.794 125.069 332.801C125.069 320.808 132.836 312.621 142.457 312.621C152.079 312.621 159.804 320.808 159.804 332.801Z" fill="#407BFF"/>
<path opacity="0.4" d="M159.804 332.801C159.804 344.794 152.037 356.059 142.457 356.059C132.877 356.059 125.069 344.794 125.069 332.801C125.069 320.808 132.836 312.621 142.457 312.621C152.079 312.621 159.804 320.808 159.804 332.801Z" fill="white"/>
<path d="M142.482 346.692C136.264 346.692 131.164 339.758 130.659 332.037C130.625 332.453 130.609 332.872 130.609 333.29C130.609 341.501 135.925 349.21 142.482 349.21C149.04 349.21 154.356 341.501 154.356 333.29C154.356 332.861 154.356 332.455 154.306 332.037C153.793 339.758 148.701 346.692 142.482 346.692Z" fill="#407BFF"/>
<path d="M132.099 332.037C132.099 332.037 133.614 320.414 142.11 320.414C150.605 320.414 152.658 332.037 152.658 332.037C152.658 332.037 149.802 322.992 142.557 322.992C135.312 322.992 132.099 332.037 132.099 332.037Z" fill="#407BFF"/>
<g opacity="0.4">
<path d="M132.927 322.013C132.724 322.247 132.466 322.357 132.207 322.32C131.949 322.283 131.711 322.101 131.544 321.814C131.377 321.527 131.295 321.158 131.315 320.784C131.336 320.411 131.456 320.064 131.652 319.818C134.119 316.542 137.233 314.456 140.561 313.851C143.638 313.167 146.785 314.008 149.487 316.238C149.691 316.423 149.842 316.709 149.91 317.043C149.979 317.377 149.961 317.735 149.859 318.051C149.758 318.367 149.58 318.619 149.359 318.759C149.138 318.9 148.889 318.92 148.659 318.815C144.411 316.488 138.905 316.023 132.927 322.013Z" fill="white"/>
<path d="M151.764 322.288C151.308 321.918 150.422 319.901 151.764 319.257C153.105 318.612 153.262 323.493 151.764 322.288Z" fill="white"/>
</g>
</svg>
