<svg width="414" height="400" viewBox="0 0 414 400" fill="none" xmlns="http://www.w3.org/2000/svg">
<path d="M414 364.311H0V364.589H414V364.311Z" fill="#EBEBEB"/>
<path d="M372.517 382.215H345.094V382.493H372.517V382.215Z" fill="#EBEBEB"/>
<path d="M226.226 378.732H215.553V379.01H226.226V378.732Z" fill="#EBEBEB"/>
<path d="M289.527 379.912H267.055V380.19H289.527V379.912Z" fill="#EBEBEB"/>
<path d="M344.266 371.889H297.807V372.167H344.266V371.889Z" fill="#EBEBEB"/>
<path d="M65.4043 384.763H43.4375V385.041H65.4043V384.763Z" fill="#EBEBEB"/>
<path d="M91.8174 384.763H72.7734V385.041H91.8174V384.763Z" fill="#EBEBEB"/>
<path d="M158.818 378.598H108.468V378.877H158.818V378.598Z" fill="#EBEBEB"/>
<path d="M196.236 314.683H36.3573C35.1048 314.68 33.9044 314.009 33.0195 312.818C32.1347 311.627 31.6377 310.012 31.6377 308.329V6.2981C31.6486 4.62457 32.1504 3.0244 33.0341 1.84516C33.9178 0.665928 35.112 0.00286685 36.3573 0H196.236C197.49 0 198.692 0.66941 199.579 1.86097C200.466 3.05253 200.964 4.66862 200.964 6.35374V308.329C200.964 310.014 200.466 311.63 199.579 312.822C198.692 314.013 197.49 314.683 196.236 314.683ZM36.3573 0.222549C35.1597 0.225496 34.0119 0.866896 33.1659 2.00596C32.3199 3.14503 31.8447 4.68869 31.8447 6.2981V308.329C31.8447 309.938 32.3199 311.482 33.1659 312.621C34.0119 313.76 35.1597 314.401 36.3573 314.404H196.236C197.434 314.402 198.583 313.76 199.43 312.622C200.278 311.483 200.755 309.939 200.757 308.329V6.2981C200.755 4.68767 200.278 3.14404 199.43 2.00529C198.583 0.866535 197.434 0.22549 196.236 0.222549H36.3573Z" fill="#EBEBEB"/>
<path d="M375.34 314.683H215.453C214.2 314.68 212.999 314.009 212.113 312.818C211.227 311.628 210.728 310.013 210.726 308.329V6.2981C210.739 4.62356 211.242 3.0234 212.127 1.84447C213.012 0.665539 214.207 0.00283558 215.453 0H375.34C376.584 0.00579125 377.776 0.670146 378.658 1.84907C379.54 3.02799 380.041 4.62649 380.052 6.2981V308.329C380.052 310.01 379.556 311.623 378.673 312.814C377.79 314.005 376.591 314.677 375.34 314.683ZM215.453 0.222549C214.255 0.22549 213.106 0.866535 212.259 2.00529C211.412 3.14404 210.935 4.68767 210.933 6.2981V308.329C210.935 309.939 211.412 311.483 212.259 312.622C213.106 313.76 214.255 314.402 215.453 314.404H375.34C376.539 314.402 377.687 313.76 378.535 312.622C379.382 311.483 379.859 309.939 379.861 308.329V6.2981C379.859 4.68767 379.382 3.14404 378.535 2.00529C377.687 0.866535 376.539 0.22549 375.34 0.222549H215.453Z" fill="#EBEBEB"/>
<path d="M369.561 25.593H244.243V364.311H369.561V25.593Z" fill="#FAFAFA"/>
<path d="M329.255 68.9897H284.543V152.812H329.255V68.9897Z" fill="white"/>
<path d="M369.553 364.311H370.331L370.331 25.593H369.553L369.553 364.311Z" fill="#EBEBEB"/>
<path d="M363.343 364.311H362.515V35.0512H251.281V364.311H250.453V33.9385H363.343V364.311Z" fill="#E0E0E0"/>
<path d="M353.713 201.217H336.433C336.088 201.243 335.742 201.175 335.417 201.015C335.092 200.856 334.794 200.609 334.543 200.29C334.291 199.97 334.091 199.585 333.954 199.158C333.817 198.731 333.746 198.271 333.746 197.806C333.746 197.341 333.817 196.881 333.954 196.454C334.091 196.027 334.291 195.642 334.543 195.323C334.794 195.003 335.092 194.757 335.417 194.597C335.742 194.438 336.088 194.369 336.433 194.396H353.713C354.059 194.369 354.405 194.438 354.73 194.597C355.055 194.757 355.352 195.003 355.604 195.323C355.855 195.642 356.056 196.027 356.193 196.454C356.33 196.881 356.4 197.341 356.4 197.806C356.4 198.271 356.33 198.731 356.193 199.158C356.056 199.585 355.855 199.97 355.604 200.29C355.352 200.609 355.055 200.856 354.73 201.015C354.405 201.175 354.059 201.243 353.713 201.217ZM336.433 195.508C336.199 195.486 335.963 195.53 335.742 195.635C335.52 195.741 335.317 195.906 335.145 196.122C334.973 196.337 334.836 196.598 334.742 196.888C334.648 197.178 334.6 197.49 334.6 197.806C334.6 198.122 334.648 198.435 334.742 198.725C334.836 199.014 334.973 199.275 335.145 199.491C335.317 199.706 335.52 199.872 335.742 199.977C335.963 200.083 336.199 200.126 336.433 200.104H353.713C353.948 200.126 354.183 200.083 354.405 199.977C354.627 199.872 354.83 199.706 355.002 199.491C355.174 199.275 355.311 199.014 355.404 198.725C355.498 198.435 355.546 198.122 355.546 197.806C355.546 197.49 355.498 197.178 355.404 196.888C355.311 196.598 355.174 196.337 355.002 196.122C354.83 195.906 354.627 195.741 354.405 195.635C354.183 195.53 353.948 195.486 353.713 195.508H336.433Z" fill="#E0E0E0"/>
<path d="M162.901 120.665H46.3438V134.107H162.901V120.665Z" fill="#FAFAFA"/>
<path d="M162.893 134.108H47.834V364.311H162.893V134.108Z" fill="#FAFAFA"/>
<path d="M162.9 364.311H171.346L171.346 120.677H162.9L162.9 364.311Z" fill="#F0F0F0"/>
<path d="M102.001 147.46H57.4961V283.493H102.001V147.46Z" fill="#F0F0F0"/>
<path d="M89.2837 147.46H78.8426L70.2148 283.481H80.6476L89.2837 147.46Z" fill="white"/>
<path d="M151.789 353.851H58.9453C58.4233 353.848 57.9233 353.568 57.5542 353.072C57.1851 352.576 56.9768 351.904 56.9746 351.202V294.453C56.9768 293.751 57.1851 293.079 57.5542 292.583C57.9233 292.087 58.4233 291.807 58.9453 291.804H151.789C152.311 291.807 152.811 292.087 153.18 292.583C153.549 293.079 153.757 293.751 153.76 294.453V351.202C153.757 351.904 153.549 352.576 153.18 353.072C152.811 353.568 152.311 353.848 151.789 353.851ZM58.9453 293.14C58.6978 293.143 58.461 293.276 58.286 293.511C58.111 293.746 58.0118 294.065 58.0096 294.397V351.147C58.0118 351.479 58.111 351.798 58.286 352.033C58.461 352.268 58.6978 352.401 58.9453 352.404H151.789C152.036 352.401 152.273 352.268 152.448 352.033C152.623 351.798 152.722 351.479 152.725 351.147V294.397C152.722 294.065 152.623 293.746 152.448 293.511C152.273 293.276 152.036 293.143 151.789 293.14H58.9453Z" fill="#F0F0F0"/>
<path d="M145.728 305.458C145.299 305.458 144.879 305.287 144.522 304.966C144.165 304.645 143.887 304.189 143.723 303.656C143.559 303.122 143.517 302.536 143.601 301.97C143.685 301.404 143.893 300.884 144.197 300.477C144.501 300.07 144.888 299.793 145.31 299.682C145.731 299.571 146.168 299.63 146.564 299.852C146.96 300.075 147.298 300.45 147.536 300.931C147.773 301.412 147.899 301.977 147.897 302.554C147.897 302.936 147.841 303.315 147.732 303.668C147.623 304.021 147.463 304.341 147.261 304.611C147.06 304.881 146.821 305.095 146.557 305.24C146.294 305.385 146.012 305.459 145.728 305.458ZM145.728 301.007C145.504 301.007 145.284 301.096 145.098 301.264C144.911 301.431 144.766 301.67 144.68 301.948C144.594 302.227 144.572 302.533 144.615 302.829C144.659 303.125 144.767 303.396 144.926 303.609C145.084 303.823 145.287 303.968 145.507 304.027C145.727 304.085 145.955 304.055 146.162 303.94C146.369 303.824 146.546 303.629 146.671 303.378C146.796 303.128 146.862 302.833 146.862 302.531C146.861 302.333 146.831 302.136 146.773 301.953C146.716 301.77 146.632 301.604 146.527 301.465C146.421 301.325 146.297 301.215 146.16 301.14C146.022 301.065 145.876 301.028 145.728 301.029V301.007Z" fill="#F0F0F0"/>
<path d="M58.647 147.46H57.4961V283.493H58.647V147.46Z" fill="#EBEBEB"/>
<path d="M153.237 147.46H108.732V283.493H153.237V147.46Z" fill="#F0F0F0"/>
<path d="M129.351 147.46H125.054L116.426 283.481H120.723L129.351 147.46Z" fill="white"/>
<path d="M135.816 147.46H131.519L122.883 283.481H127.18L135.816 147.46Z" fill="white"/>
<path d="M109.883 147.46H108.732V283.493H109.883V147.46Z" fill="#EBEBEB"/>
<path d="M162.893 134.108H47.834V135.81H162.893V134.108Z" fill="#EBEBEB"/>
<path d="M185.745 23.0338H66.2402V100.558H185.745V23.0338Z" fill="#FAFAFA"/>
<path d="M141.34 90.588C137.104 90.588 132.962 88.8997 129.44 85.7366C125.917 82.5735 123.172 78.0777 121.55 72.8176C119.929 67.5576 119.505 61.7695 120.332 56.1855C121.158 50.6014 123.198 45.4722 126.194 41.4463C129.189 37.4204 133.006 34.6788 137.161 33.568C141.317 32.4573 145.623 33.0274 149.538 35.2062C153.452 37.3849 156.797 41.0746 159.151 45.8085C161.504 50.5424 162.761 56.108 162.761 61.8015C162.752 69.4325 160.492 76.7477 156.477 82.1436C152.462 87.5396 147.019 90.5763 141.34 90.588ZM141.34 34.1276C137.268 34.1276 133.286 35.7507 129.9 38.7915C126.513 41.8324 123.874 46.1544 122.315 51.2112C120.757 56.2679 120.349 61.8322 121.144 67.2004C121.938 72.5686 123.899 77.4996 126.779 81.3698C129.659 85.2401 133.328 87.8757 137.323 88.9436C141.317 90.0113 145.458 89.4633 149.221 87.3688C152.983 85.2742 156.199 81.7272 158.462 77.1762C160.725 72.6253 161.933 67.2748 161.933 61.8015C161.926 54.4646 159.754 47.4308 155.894 42.2429C152.034 37.0549 146.8 34.1365 141.34 34.1276Z" fill="white"/>
<path d="M165.261 41.3604C166.269 37.7301 166.448 33.7781 165.774 30.0104L163.539 29.9103C164.037 33.5679 163.699 37.3426 162.57 40.7372C154.431 40.6482 152.99 52.1873 146.49 49.6391C144.17 48.8495 141.751 48.7319 139.394 49.2942C138.414 49.4957 137.446 49.7894 136.496 50.1733C127.885 53.1888 117.369 60.3993 115.498 71.2263L117.494 71.7381C117.494 71.7381 118.793 63.7042 127.43 57.9736C126.609 59.4242 125.999 61.0703 125.633 62.8251C120.325 89.0635 156.318 84.4456 165.865 75.2878C177.54 64.1493 172.564 45.2327 165.261 41.3604Z" fill="#EBEBEB"/>
<path d="M108.195 31.8134H72.127V34.9068H108.195V31.8134Z" fill="#EBEBEB"/>
<path d="M99.0866 39.7024H72.127V42.7958H99.0866V39.7024Z" fill="#EBEBEB"/>
<path d="M108.195 55.4703H72.127V58.5638H108.195V55.4703Z" fill="#EBEBEB"/>
<path d="M89.5646 63.3594H72.127V66.4528H89.5646V63.3594Z" fill="#EBEBEB"/>
<path d="M104.809 63.3594H92.3887V66.4528H104.809V63.3594Z" fill="#EBEBEB"/>
<path d="M101.157 71.2487H72.127V74.3421H101.157V71.2487Z" fill="#EBEBEB"/>
<path d="M108.195 79.1268H72.127V82.2202H108.195V79.1268Z" fill="#EBEBEB"/>
<path d="M223.899 364.311H189.86C189.475 364.31 189.103 364.121 188.814 363.779C188.524 363.437 188.337 362.966 188.287 362.453L181.415 288.956C181.388 288.657 181.408 288.353 181.475 288.065C181.542 287.777 181.653 287.512 181.802 287.286C181.95 287.06 182.133 286.878 182.337 286.754C182.542 286.63 182.764 286.565 182.988 286.564H230.772C230.996 286.565 231.218 286.63 231.422 286.754C231.627 286.878 231.809 287.06 231.958 287.286C232.107 287.512 232.218 287.777 232.285 288.065C232.351 288.353 232.372 288.657 232.345 288.956L225.473 362.453C225.424 362.967 225.238 363.44 224.948 363.782C224.658 364.124 224.285 364.312 223.899 364.311Z" fill="#EBEBEB"/>
<path opacity="0.7" d="M180.677 285.05C179.435 286.252 180.421 304.857 182.052 308.963C183.683 313.069 193.42 309.542 205.045 308.162C216.67 306.782 230.597 312.301 231.202 308.963C231.806 305.625 235.201 287.465 233.421 285.05C231.997 283.114 214.874 283.114 207.347 284.271C199.821 285.429 183.327 282.502 180.677 285.05Z" fill="#F5F5F5"/>
<path d="M135.792 51.6086C129.54 43.7193 119.232 42.206 115.373 50.418C111.515 58.63 113.717 67.3094 105.802 76.4116C100.42 82.6318 104.411 101.693 135.113 99.946C149.644 99.1226 144.726 78.804 144.337 69.201C143.948 59.5981 143.923 47.8476 135.792 51.6086Z" fill="#263238"/>
<path d="M123.694 386.588L116.259 386.977L116.118 376.162L123.554 375.772L123.694 386.588Z" fill="#B55B52"/>
<path d="M115.795 384.908H124.199C124.347 384.906 124.492 384.972 124.608 385.095C124.724 385.219 124.805 385.392 124.837 385.587L126.294 394.544C126.328 394.763 126.324 394.988 126.284 395.205C126.244 395.421 126.168 395.623 126.063 395.794C125.957 395.966 125.824 396.104 125.674 396.198C125.523 396.292 125.359 396.339 125.193 396.336C122.254 396.269 120.829 396.035 117.128 396.035C114.851 396.035 108.948 396.358 105.801 396.358C102.655 396.358 102.257 392.174 103.541 391.796C109.337 390.093 112.707 387.756 114.561 385.52C114.902 385.117 115.342 384.898 115.795 384.908Z" fill="#263238"/>
<path opacity="0.2" d="M116.118 376.173L116.184 381.202L123.62 380.768L123.554 375.783L116.118 376.173Z" fill="black"/>
<path d="M105.155 168.747C103.499 180.742 105.404 239.373 107.929 265.266C111.291 299.65 114.769 379.489 114.769 379.489L124.705 378.688C124.705 378.688 127.189 294.609 125.16 267.002C126.311 231.472 129.159 169.415 129.159 169.415L105.155 168.747Z" fill="#407BFF"/>
<path opacity="0.2" d="M127.512 208.082C127.859 199.08 123.115 191.08 121.202 208.082C119.993 218.887 122.494 237.826 125.773 251.201C126.278 237.281 126.924 221.78 127.512 208.082Z" fill="black"/>
<path d="M178.326 352.95L173.491 359.159L166.941 349.723L171.769 343.525L178.326 352.95Z" fill="#B55B52"/>
<path d="M172.224 359.326L177.192 350.179C177.273 350.02 177.396 349.909 177.536 349.867C177.676 349.826 177.822 349.858 177.946 349.957L183.742 354.541C183.884 354.668 184.006 354.833 184.101 355.025C184.195 355.217 184.26 355.433 184.29 355.66C184.321 355.886 184.318 356.118 184.281 356.343C184.243 356.568 184.173 356.78 184.073 356.967C182.309 360.116 181.34 361.507 179.163 365.535C177.821 368.005 176.273 371.41 174.427 374.837C172.58 378.265 170.055 375.806 170.601 374.148C173.085 366.703 172.034 364.634 171.901 361.084C171.859 360.466 171.972 359.846 172.224 359.326Z" fill="#263238"/>
<path opacity="0.2" d="M166.941 349.734L170.32 354.586L175.114 348.332L171.777 343.525L166.941 349.734Z" fill="black"/>
<path d="M116.682 169.07C116.682 169.07 127.379 244.736 130.161 274.112C131.817 291.66 168.332 354.797 168.332 354.797L174.567 345.973C174.567 345.973 161.203 299.75 145.107 272.332C144.469 240.196 147.185 187.296 137.945 169.659L116.682 169.07Z" fill="#407BFF"/>
<path d="M107.292 111.051C107.292 117.55 107.068 123.926 106.712 130.369C106.356 136.811 105.884 143.221 105.114 149.675L104.973 150.888L104.783 152.256C104.639 153.154 104.482 154.033 104.311 154.893C103.947 156.596 103.483 158.232 103.069 159.812C102.163 162.91 101.135 165.941 99.9889 168.892C97.7321 174.662 95.1611 180.2 92.2968 185.46C91.9944 186.006 91.5528 186.382 91.0568 186.516C90.5608 186.651 90.0452 186.535 89.609 186.19C89.1728 185.845 88.8467 185.296 88.6933 184.648C88.5399 184 88.57 183.299 88.7778 182.678V182.612C90.7236 176.959 92.6114 171.162 94.2591 165.42C95.0871 162.549 95.824 159.645 96.4533 156.796C96.7514 155.372 97.0164 153.959 97.2234 152.579C97.331 151.889 97.4055 151.21 97.48 150.543L97.5628 149.552L97.6456 148.439C98.0679 142.275 98.3163 136.021 98.5482 129.757C98.78 123.492 98.8876 117.172 99.0201 110.962V110.907C99.0377 109.431 99.4907 108.025 100.28 106.999C101.068 105.972 102.128 105.409 103.226 105.432C104.324 105.456 105.37 106.065 106.134 107.125C106.898 108.185 107.318 109.609 107.3 111.085L107.292 111.051Z" fill="#B55B52"/>
<path d="M104.592 102.918C94.4243 106.912 95.7325 131.771 95.7325 131.771L110.189 137.001C110.189 137.001 112.591 118.796 112.375 112.265C112.16 105.477 110.198 100.726 104.592 102.918Z" fill="#407BFF"/>
<path d="M89.8539 181.243L84.7617 187.063L91.8991 190.98C91.8991 190.98 94.1098 186.451 93.0831 182.156L89.8539 181.243Z" fill="#B55B52"/>
<path d="M85.6642 195.943L88.9182 196.488C89.2797 196.548 89.646 196.447 89.9603 196.2C90.2747 195.952 90.5195 195.573 90.657 195.119L91.899 190.98L84.7616 187.063L84.2234 193.483C84.1743 194.066 84.298 194.65 84.5678 195.111C84.8375 195.571 85.2315 195.87 85.6642 195.943Z" fill="#B55B52"/>
<path d="M101.306 109.383C100.85 134.308 105.114 152.501 105.164 168.747L137.945 169.66C137.704 153.391 137.804 142.776 143.012 113.622C143.238 112.352 143.265 111.033 143.091 109.748C142.917 108.464 142.545 107.242 141.999 106.162C141.454 105.081 140.747 104.165 139.923 103.472C139.1 102.78 138.178 102.325 137.216 102.139C135.254 101.749 133.076 101.382 130.865 101.182C125.911 100.565 120.93 100.423 115.961 100.759C112.467 101.093 108.708 101.783 106.025 102.328C104.751 102.583 103.582 103.426 102.721 104.714C101.859 106.002 101.359 107.652 101.306 109.383Z" fill="#407BFF"/>
<path d="M131.858 132.416L122.137 132.327C122.04 132.333 121.944 132.31 121.854 132.261C121.765 132.211 121.684 132.137 121.618 132.041C121.552 131.946 121.502 131.833 121.471 131.709C121.441 131.586 121.431 131.455 121.442 131.325L121.98 125.139C122.015 124.863 122.121 124.612 122.28 124.431C122.439 124.25 122.641 124.15 122.849 124.148L132.562 124.237C132.658 124.23 132.755 124.251 132.844 124.299C132.934 124.347 133.015 124.421 133.081 124.515C133.147 124.609 133.197 124.722 133.228 124.845C133.258 124.968 133.268 125.099 133.257 125.228L132.719 131.426C132.686 131.701 132.581 131.951 132.423 132.133C132.266 132.314 132.065 132.414 131.858 132.416Z" fill="white"/>
<path opacity="0.4" d="M116.011 100.77C116.011 100.77 110.662 105.799 116.317 118.418C120.96 112.349 125.827 106.596 130.898 101.181L116.011 100.77Z" fill="white"/>
<path d="M129.772 78.6152C128.737 85.0246 127.611 96.7974 130.898 101.182C125.729 103.918 120.963 107.866 116.822 112.843C113.187 103.874 115.994 100.759 115.994 100.759C121.36 99.2009 121.31 93.8709 120.457 88.8413L129.772 78.6152Z" fill="#B55B52"/>
<path opacity="0.2" d="M128.762 79.728C128.633 83.5578 127.896 87.3061 126.601 90.7219C125.698 93.0698 123.289 94.0601 120.863 94.2493C120.943 92.4304 120.812 90.6059 120.474 88.8414L128.762 79.728Z" fill="black"/>
<path d="M137.53 70.7703C135.046 81.0297 134.218 85.4362 129.25 89.442C121.839 95.462 113.004 89.175 113.12 78.1477C113.236 68.2221 117.26 53.1222 125.598 51.5755C127.445 51.2163 129.329 51.4982 131.071 52.3944C132.814 53.2906 134.356 54.7713 135.552 56.6955C136.748 58.6197 137.558 60.9233 137.904 63.387C138.25 65.8507 138.121 68.3925 137.53 70.7703Z" fill="#B55B52"/>
<path d="M117.285 57.295C121.425 58.8639 131.51 60.0323 133.531 58.4077C131.634 62.3246 133.439 73.0291 136.371 75.6218C140.32 71.36 141.198 61.056 137.546 55.9486C133.895 50.8411 122.353 44.7321 117.285 57.295Z" fill="#263238"/>
<path d="M138.69 77.046C138.428 78.0235 138.024 78.9208 137.501 79.6852C136.977 80.4495 136.346 81.0656 135.643 81.497C133.771 82.6097 132.529 80.4732 132.794 77.8806C133.034 75.5549 134.301 72.1611 136.305 72.1166C136.737 72.1246 137.162 72.2756 137.54 72.5564C137.919 72.8371 138.241 73.2388 138.476 73.7261C138.712 74.2133 138.855 74.7711 138.892 75.3502C138.929 75.9292 138.86 76.5116 138.69 77.046Z" fill="#B55B52"/>
<path d="M138.473 167.089L139.898 171.084C140.005 171.384 139.732 171.696 139.351 171.685L104.964 170.717C104.675 170.717 104.434 170.505 104.418 170.249L104.178 166.299C104.178 166.032 104.426 165.81 104.749 165.81L137.952 166.744C138.054 166.736 138.155 166.764 138.247 166.824C138.338 166.885 138.416 166.976 138.473 167.089Z" fill="#263238"/>
<path d="M133.945 171.951H134.831C135.005 171.951 135.146 171.829 135.137 171.684L134.798 166.544C134.798 166.399 134.632 166.265 134.458 166.265H133.564C133.39 166.265 133.258 166.377 133.266 166.532L133.597 171.662C133.614 171.829 133.763 171.951 133.945 171.951Z" fill="#407BFF"/>
<path d="M107.457 171.217H108.351C108.525 171.217 108.666 171.106 108.658 170.95L108.318 165.809C108.318 165.665 108.153 165.542 107.979 165.531H107.085C106.911 165.531 106.77 165.643 106.786 165.798L107.118 170.928C107.134 171.084 107.283 171.206 107.457 171.217Z" fill="#407BFF"/>
<path d="M120.696 171.585H121.591C121.765 171.585 121.905 171.473 121.897 171.318L121.558 166.188C121.558 166.032 121.392 165.91 121.218 165.91H120.324C120.15 165.91 120.017 166.032 120.026 166.177L120.357 171.318C120.374 171.451 120.523 171.585 120.696 171.585Z" fill="#407BFF"/>
<path d="M125.615 69.9138C125.449 70.7595 124.986 71.3381 124.572 71.1934C124.158 71.0488 123.959 70.2476 124.116 69.4019C124.274 68.5562 124.746 67.9776 125.16 68.1223C125.574 68.2669 125.772 69.0681 125.615 69.9138Z" fill="#263238"/>
<path d="M118.478 67.4654C118.321 68.3222 117.857 68.8897 117.443 68.7451C117.029 68.6004 116.822 67.8104 116.988 66.9536C117.153 66.0968 117.609 65.5404 118.023 65.6739C118.437 65.8075 118.644 66.6198 118.478 67.4654Z" fill="#263238"/>
<path d="M118.197 65.7852L116.789 64.6725C116.789 64.6725 117.269 66.5419 118.197 65.7852Z" fill="#263238"/>
<path d="M120.06 69.5686C119.133 71.3125 118.032 72.8775 116.789 74.2199C117.052 74.6377 117.379 74.9737 117.748 75.2043C118.116 75.4349 118.518 75.5547 118.925 75.5551L120.06 69.5686Z" fill="#A02724"/>
<path d="M120.457 78.8822C120.428 78.8487 120.406 78.8049 120.395 78.7558C120.383 78.7067 120.382 78.6541 120.391 78.6041C120.398 78.5718 120.411 78.5419 120.427 78.5161C120.443 78.4902 120.463 78.4689 120.485 78.4534C120.507 78.4379 120.532 78.4285 120.557 78.4257C120.582 78.4229 120.607 78.4268 120.631 78.4371C121.404 78.7629 122.224 78.84 123.024 78.6622C123.823 78.4844 124.581 78.0566 125.235 77.4134C125.273 77.3692 125.323 77.3472 125.373 77.3524C125.424 77.3577 125.471 77.3896 125.504 77.4412C125.537 77.4929 125.553 77.56 125.549 77.6278C125.545 77.6957 125.521 77.7586 125.483 77.8029C124.783 78.5128 123.966 78.9847 123.101 79.1785C122.236 79.3722 121.349 79.282 120.515 78.9156L120.457 78.8822Z" fill="#263238"/>
<path d="M129.508 66.008C129.457 65.9477 129.415 65.8762 129.383 65.7966C129.212 65.1935 128.937 64.6538 128.58 64.2222C128.223 63.7907 127.794 63.4798 127.33 63.3152C127.23 63.2916 127.141 63.2156 127.083 63.1039C127.025 62.9923 127.002 62.8541 127.019 62.7198C127.037 62.5856 127.094 62.4662 127.177 62.3879C127.26 62.3097 127.363 62.279 127.462 62.3026C128.053 62.4989 128.6 62.8821 129.058 63.4202C129.516 63.9583 129.872 64.6357 130.095 65.396C130.125 65.5006 130.128 65.615 130.106 65.7225C130.083 65.83 130.035 65.925 129.97 65.9934C129.904 66.0618 129.823 66.1001 129.74 66.1028C129.657 66.1054 129.576 66.0722 129.508 66.008Z" fill="#263238"/>
<path d="M117.071 62.0575L117.021 61.9908C116.95 61.8948 116.91 61.7647 116.91 61.6291C116.91 61.4935 116.95 61.3634 117.021 61.2675C117.459 60.7162 117.986 60.311 118.562 60.0848C119.137 59.8586 119.744 59.8178 120.333 59.9656C120.383 59.9823 120.429 60.0122 120.47 60.0534C120.51 60.0945 120.544 60.1462 120.57 60.2053C120.595 60.2644 120.611 60.3298 120.618 60.3975C120.624 60.4653 120.62 60.5341 120.607 60.5998C120.581 60.7311 120.518 60.8435 120.431 60.9123C120.344 60.9812 120.241 61.0009 120.143 60.967C119.671 60.8474 119.184 60.8808 118.723 61.0647C118.262 61.2485 117.841 61.5775 117.493 62.0241C117.433 62.0852 117.361 62.1209 117.286 62.1268C117.211 62.1328 117.136 62.1087 117.071 62.0575Z" fill="#263238"/>
<path d="M143.003 110.006C145.413 114.29 147.665 118.607 149.851 123.091C150.935 125.317 152.012 127.542 153.03 129.946C154.127 132.377 155.112 134.896 155.978 137.49C156.24 138.299 156.467 139.127 156.657 139.972C156.795 140.623 156.889 141.29 156.938 141.963C156.952 142.234 156.952 142.505 156.938 142.776V143.277C156.923 143.497 156.899 143.716 156.864 143.933L156.806 144.278V144.434V144.556L156.74 144.801C156.351 146.136 156.044 147.483 155.581 148.773C154.741 151.419 153.733 153.962 152.567 156.373C151.366 158.808 149.96 161.049 148.377 163.05C147.57 164.066 146.704 164.993 145.785 165.821C145.313 166.232 144.833 166.633 144.336 167L143.55 167.512C143.252 167.69 143.036 167.812 142.606 168.024L141.033 162.95C141.145 162.802 141.264 162.665 141.389 162.538L141.844 162.004C142.15 161.637 142.448 161.236 142.738 160.824C143.328 159.974 143.881 159.079 144.394 158.143C145.406 156.231 146.287 154.202 147.027 152.078C147.375 150.966 147.756 149.92 148.046 148.74C148.336 147.561 148.658 146.515 148.923 145.402C149.188 144.289 149.395 143.065 149.652 141.908V141.696V141.585V141.685V141.908C149.652 142.041 149.611 142.242 149.602 142.32C149.598 142.405 149.598 142.49 149.602 142.575V142.898C149.602 143.154 149.602 143.076 149.602 142.965C149.602 142.854 149.371 142.253 149.197 141.785C148.443 139.883 147.433 137.691 146.398 135.599C145.363 133.507 144.287 131.359 143.185 129.256C140.991 125.039 138.731 120.777 136.512 116.593L143.003 110.006Z" fill="#B55B52"/>
<path d="M144.8 166.71L138.416 172.775L135.551 164.007C135.551 164.007 139.426 161.214 142.481 163.083L144.8 166.71Z" fill="#B55B52"/>
<path d="M133.97 173.498L132.372 170.505C132.069 169.928 131.945 169.214 132.027 168.516C132.109 167.818 132.39 167.19 132.811 166.766L135.551 164.007L138.416 172.775L136.661 174.233C136.227 174.591 135.707 174.715 135.208 174.578C134.708 174.442 134.266 174.056 133.97 173.498Z" fill="#B55B52"/>
<path d="M130.227 107.357C128.058 118.941 141.438 138.77 141.438 138.77L152.691 123.069C152.691 123.069 147.549 108.314 140.834 103.685C136.147 100.458 131.188 102.25 130.227 107.357Z" fill="#407BFF"/>
<path d="M125.333 68.2336L123.926 67.1208C123.926 67.1208 124.398 68.9903 125.333 68.2336Z" fill="#263238"/>
<path d="M110.952 138.303C110.891 138.302 110.832 138.277 110.782 138.232C110.732 138.186 110.693 138.122 110.67 138.047C110.643 137.948 110.646 137.839 110.679 137.743C110.711 137.647 110.771 137.572 110.844 137.535L112.136 136.867C113.346 136.267 114.39 135.184 115.13 133.765C115.87 132.345 116.27 130.655 116.276 128.922L116.367 112.654C116.393 111.415 116.102 110.202 115.542 109.218C114.983 108.233 114.188 107.536 113.292 107.245C112.396 106.953 111.453 107.083 110.62 107.614C109.787 108.145 109.115 109.044 108.716 110.161L103.119 124.627C102.517 126.154 102.275 127.89 102.422 129.607C102.57 131.323 103.102 132.939 103.947 134.241L104.858 135.632C104.888 135.67 104.913 135.717 104.929 135.768C104.945 135.82 104.954 135.876 104.953 135.932C104.952 135.988 104.943 136.044 104.925 136.095C104.908 136.146 104.882 136.191 104.851 136.228C104.819 136.265 104.782 136.292 104.742 136.309C104.702 136.325 104.66 136.33 104.618 136.323C104.577 136.316 104.537 136.298 104.501 136.269C104.465 136.24 104.434 136.201 104.41 136.155L103.5 134.642C102.567 133.227 101.978 131.463 101.811 129.586C101.644 127.709 101.906 125.808 102.564 124.137L108.161 109.672C108.64 108.437 109.413 107.455 110.358 106.883C111.302 106.312 112.362 106.184 113.367 106.521C114.372 106.857 115.264 107.639 115.898 108.739C116.532 109.84 116.872 111.195 116.864 112.587L116.772 128.855C116.766 130.742 116.333 132.582 115.532 134.132C114.731 135.682 113.598 136.868 112.285 137.535L110.993 138.191L110.952 138.303Z" fill="#263238"/>
<path d="M116.573 116.281C116.496 116.279 116.423 116.237 116.368 116.165C116.312 116.093 116.279 115.995 116.275 115.892C116.158 114.606 115.753 113.398 115.115 112.428C114.477 111.457 113.634 110.769 112.699 110.455C111.764 110.14 110.78 110.214 109.877 110.666C108.974 111.118 108.193 111.928 107.639 112.988C107.62 113.034 107.595 113.074 107.564 113.107C107.533 113.14 107.498 113.164 107.46 113.179C107.423 113.193 107.383 113.197 107.344 113.191C107.305 113.185 107.268 113.169 107.234 113.143C107.199 113.118 107.169 113.084 107.145 113.042C107.12 113.001 107.102 112.954 107.092 112.903C107.081 112.853 107.078 112.8 107.082 112.747C107.087 112.695 107.099 112.644 107.118 112.598C107.734 111.375 108.615 110.435 109.641 109.906C110.668 109.377 111.791 109.285 112.858 109.642C113.924 109.999 114.884 110.788 115.606 111.901C116.329 113.015 116.779 114.401 116.896 115.87C116.896 115.975 116.866 116.077 116.813 116.153C116.759 116.23 116.685 116.276 116.607 116.281H116.573Z" fill="#263238"/>
<path d="M113.344 107.391C113.295 107.39 113.247 107.373 113.204 107.342C113.161 107.311 113.124 107.267 113.096 107.213C112.944 106.761 112.866 106.272 112.866 105.777C112.866 105.282 112.944 104.793 113.096 104.342C113.311 103.444 113.673 102.623 114.156 101.939C114.639 101.256 115.23 100.727 115.886 100.392C115.922 100.372 115.961 100.364 116 100.366C116.039 100.368 116.077 100.381 116.112 100.404C116.147 100.427 116.179 100.459 116.204 100.5C116.229 100.54 116.248 100.586 116.259 100.636C116.283 100.735 116.277 100.843 116.243 100.936C116.209 101.03 116.149 101.102 116.077 101.137C115.515 101.447 115.01 101.916 114.597 102.514C114.184 103.111 113.872 103.822 113.684 104.598C113.56 104.942 113.489 105.316 113.473 105.698C113.457 106.08 113.498 106.462 113.593 106.823C113.614 106.868 113.629 106.917 113.636 106.97C113.643 107.022 113.642 107.075 113.633 107.127C113.625 107.179 113.609 107.228 113.586 107.271C113.564 107.314 113.535 107.351 113.501 107.38C113.45 107.4 113.397 107.404 113.344 107.391Z" fill="#263238"/>
<path d="M110.272 137.691C110.131 138.414 110.272 139.104 110.669 139.226C111.067 139.348 111.431 138.848 111.564 138.113C111.696 137.379 111.514 136.689 111.158 136.578C110.802 136.466 110.404 136.956 110.272 137.691Z" fill="#263238"/>
<path d="M133.772 118.473C134.037 120.154 134.931 121.311 135.751 121.077C136.57 120.844 137.017 119.275 136.744 117.605C136.471 115.936 135.585 114.757 134.765 115.002C133.946 115.246 133.498 116.838 133.772 118.473Z" fill="#263238"/>
<path d="M136.363 117.95C136.325 117.952 136.287 117.943 136.251 117.925C136.216 117.907 136.183 117.879 136.156 117.844C136.128 117.809 136.106 117.767 136.09 117.72C136.075 117.674 136.066 117.623 136.065 117.572C135.891 111.419 134.152 103.774 130.766 101.515C130.696 101.468 130.643 101.385 130.618 101.285C130.593 101.185 130.599 101.076 130.633 100.981C130.65 100.934 130.674 100.891 130.703 100.856C130.732 100.821 130.766 100.795 130.804 100.778C130.841 100.761 130.88 100.755 130.919 100.759C130.958 100.764 130.996 100.779 131.031 100.803C134.657 103.218 136.471 110.951 136.653 117.494C136.656 117.547 136.651 117.599 136.639 117.649C136.626 117.699 136.606 117.745 136.58 117.784C136.553 117.822 136.521 117.853 136.485 117.874C136.449 117.895 136.41 117.906 136.371 117.906L136.363 117.95Z" fill="#263238"/>
<path d="M132.885 118.618C133.059 120.054 133.829 121.077 134.607 120.91C135.385 120.744 135.882 119.442 135.708 117.995C135.534 116.548 134.756 115.536 133.978 115.703C133.199 115.87 132.711 117.172 132.885 118.618Z" fill="white"/>
<path d="M132.82 118.741C133.068 120.521 133.763 121.834 134.368 121.678C134.972 121.523 135.246 119.965 134.997 118.184C134.749 116.404 134.053 115.091 133.449 115.247C132.844 115.403 132.563 116.96 132.82 118.741Z" fill="#263238"/>
<path d="M104.013 135.588C103.88 136.322 104.063 137.012 104.419 137.123C104.775 137.234 105.172 136.756 105.313 136.01C105.454 135.265 105.263 134.597 104.907 134.475C104.551 134.353 104.154 134.864 104.013 135.588Z" fill="#263238"/>
<path d="M194.712 44.9769C189.471 46.2342 188.809 45.5889 188.743 40.5259C188.676 35.4629 186.772 27.0172 189.422 24.3689C189.603 24.1372 189.827 23.9736 190.071 23.8944C190.314 23.8153 190.569 23.8235 190.81 23.9181C191.05 24.0127 191.268 24.1904 191.441 24.4336C191.615 24.6767 191.738 24.9767 191.798 25.3036C191.96 24.7482 192.275 24.2982 192.677 24.0474C193.08 23.7965 193.539 23.7642 193.959 23.9572C194.067 22.9112 194.191 20.2295 195.615 19.5063C197.039 18.783 198.347 20.5189 198.347 20.5189C198.347 20.5189 198.24 16.3906 200.31 16.7912C200.928 16.9239 201.502 17.3038 201.957 17.8815C202.412 18.4591 202.726 19.2076 202.86 20.0292C202.86 20.0292 204.052 17.6925 205.667 18.6161C207.282 19.5396 206.942 22.2547 206.942 22.2547C206.942 22.2547 208.656 21.142 209.931 22.3994C211.206 23.6568 210.279 25.6708 210.279 25.6708C210.279 25.6708 211.438 21.665 213.649 23.8793C215.636 25.8823 213.831 29.0202 213.831 29.0202C213.831 29.0202 216.017 28.5417 216.547 30.0216C218.335 35.0624 211.521 40.6928 211.297 49.2053C200.831 54.5242 194.712 44.9769 194.712 44.9769Z" fill="#263238"/>
<path d="M156.94 180.264L153.446 179.396L148.826 185.327C148.574 185.648 148.376 186.038 148.243 186.469C148.11 186.9 148.047 187.364 148.056 187.83L148.122 192.682C148.13 193.511 148.368 194.307 148.789 194.914C149.21 195.521 149.784 195.895 150.399 195.964L152.005 196.154C152.589 196.228 153.174 196.022 153.656 195.571C154.138 195.121 154.486 194.456 154.638 193.694L155.466 189.733C155.466 189.733 160.028 182.489 156.94 180.264Z" fill="#FFB573"/>
<path d="M192.229 91.5337C189.886 99.69 187.551 107.88 185.299 116.092C183.047 124.304 180.811 132.549 178.716 140.661L178.344 142.163L178.087 143.143C177.988 143.51 177.888 143.888 177.797 144.177C177.408 145.502 177.019 146.592 176.63 147.694C175.851 149.919 175.065 151.911 174.27 153.925C172.672 157.931 171.024 161.792 169.36 165.642C166.048 173.353 162.736 180.887 159.308 188.531L148.768 179.718C152.245 172.452 155.599 164.952 158.811 157.463C160.393 153.702 161.949 149.93 163.398 146.191C164.119 144.322 164.814 142.453 165.427 140.628C165.717 139.749 166.007 138.847 166.197 138.113C166.263 137.902 166.288 137.757 166.329 137.612L166.462 137.034L166.843 135.409C168.838 126.863 170.933 118.607 172.953 110.228L179.014 85.1799L192.229 91.5337Z" fill="#407BFF"/>
<path opacity="0.6" d="M192.229 91.5337C189.886 99.69 187.551 107.88 185.299 116.092C183.047 124.304 180.811 132.549 178.716 140.661L178.344 142.163L178.087 143.143C177.988 143.51 177.888 143.888 177.797 144.177C177.408 145.502 177.019 146.592 176.63 147.694C175.851 149.919 175.065 151.911 174.27 153.925C172.672 157.931 171.024 161.792 169.36 165.642C166.048 173.353 162.736 180.887 159.308 188.531L148.768 179.718C152.245 172.452 155.599 164.952 158.811 157.463C160.393 153.702 161.949 149.93 163.398 146.191C164.119 144.322 164.814 142.453 165.427 140.628C165.717 139.749 166.007 138.847 166.197 138.113C166.263 137.902 166.288 137.757 166.329 137.612L166.462 137.034L166.843 135.409C168.838 126.863 170.933 118.607 172.953 110.228L179.014 85.1799L192.229 91.5337Z" fill="white"/>
<path d="M160.649 389.358L153.222 389.848L156.732 363.854L163.795 366.035L160.649 389.358Z" fill="#FFB573"/>
<path d="M213.931 389.737H206.504L206.529 366.625H213.948L213.931 389.737Z" fill="#FFB573"/>
<path d="M205.8 388.579H214.85C214.996 388.576 215.137 388.643 215.249 388.767C215.362 388.892 215.437 389.066 215.463 389.258L216.655 398.16C216.682 398.38 216.672 398.606 216.627 398.82C216.582 399.035 216.503 399.234 216.395 399.404C216.287 399.573 216.153 399.709 216.002 399.802C215.851 399.894 215.687 399.942 215.521 399.94C212.606 399.874 210.487 399.64 206.819 399.64C204.566 399.64 197.711 399.952 194.63 399.952C191.55 399.952 191.236 395.812 192.519 395.434C198.315 393.754 202.679 391.439 204.575 389.225C204.911 388.816 205.347 388.586 205.8 388.579Z" fill="#263238"/>
<path opacity="0.2" d="M156.732 363.865L155.109 375.883L162.172 378.064L163.795 366.046L156.732 363.865Z" fill="black"/>
<path opacity="0.2" d="M213.947 366.625H206.52V378.531H213.947V366.625Z" fill="black"/>
<path d="M219.925 91.2444C214.129 126.285 215.669 160.868 215.048 168.357L175.412 164.841C171.272 122.557 175.892 95.5841 178.517 84.5234C178.944 82.6977 179.751 81.0745 180.842 79.8459C181.934 78.6173 183.265 77.8348 184.677 77.5911C190.571 76.7229 196.507 76.4736 202.43 76.8455C206.439 77.1679 210.419 77.9799 214.32 79.2713C216.243 79.8629 217.914 81.4557 218.964 83.7003C220.015 85.9449 220.361 88.6579 219.925 91.2444Z" fill="#407BFF"/>
<path d="M207.978 53.0999C206.67 59.6984 205.122 71.3822 207.614 77.2908C208.003 78.2144 207.258 79.0044 207.225 80.0726C207.134 83.3441 203.838 84.3233 197.943 84.3678C192.048 84.4123 189.522 81.1075 191.128 77.9918C191.375 77.5169 191.749 77.1896 192.172 77.0794C197.694 75.4214 197.802 69.6018 197.049 64.0492L207.978 53.0999Z" fill="#FFB573"/>
<path opacity="0.4" d="M197.52 82.554C199.068 85.4483 200.05 88.8194 200.376 92.3573C206.263 88.6407 209.07 79.6164 209.07 79.6164L207.298 77.0682C207.298 77.0682 200.757 78.7262 197.52 82.554Z" fill="black"/>
<path opacity="0.4" d="M196.941 82.5873C194.773 84.9585 192.944 87.839 191.542 91.0886C187.427 87.6614 188.785 77.8915 188.785 77.8915L192.138 77.0013C192.138 77.0013 193.637 78.8596 196.941 82.5873Z" fill="black"/>
<path d="M197.205 82.3425L195.939 82.5094L193.794 84.4122C193.657 85.5583 193.809 86.733 194.225 87.7504C195.47 88.0774 196.742 88.1932 198.009 88.0954C198.859 87.5437 199.536 86.6056 199.921 85.4471L198.348 82.7431L197.205 82.3425Z" fill="#263238"/>
<path d="M197.205 82.3425C198.796 85.0179 200.016 88.0558 200.807 91.3111C206.694 87.5946 210.122 78.7149 210.122 78.7149L207.282 75.3767C207.282 75.3767 200.443 78.5369 197.205 82.3425Z" fill="#407BFF"/>
<path d="M197.206 82.3424C194.933 84.2689 192.946 86.7438 191.343 89.642C187.203 86.2258 188.785 77.0235 188.785 77.0235L192.138 76.1333C192.138 76.1333 193.91 78.637 197.206 82.3424Z" fill="#407BFF"/>
<path opacity="0.2" d="M203.523 57.5618L197.064 64.0379C197.26 65.3765 197.368 66.7355 197.387 68.0994C199.714 67.8657 203.059 64.7612 203.465 61.512C203.659 60.2104 203.679 58.8726 203.523 57.5618Z" fill="black"/>
<path d="M209.161 42.195C208.226 52.0204 208.052 57.7733 204.094 62.5692C198.141 69.6796 189.306 64.3607 188.039 54.3572C186.897 45.3551 188.619 30.8005 195.996 27.5179C197.621 26.7822 199.358 26.6168 201.043 27.0376C202.728 27.4584 204.306 28.4513 205.625 29.9221C206.944 31.3928 207.961 33.2925 208.58 35.4405C209.2 37.5886 209.399 39.9137 209.161 42.195Z" fill="#FFB573"/>
<path d="M207.373 51.0744C205.717 48.9268 206.752 38.6451 207.588 35.6963C203.448 36.2304 190.067 36.2082 190.573 31.2454C191.078 26.2825 195.946 22.0652 203.903 25.5481C210.527 28.4524 212.183 32.8922 212.183 36.5197C212.283 43.9751 207.373 51.0744 207.373 51.0744Z" fill="#263238"/>
<path d="M211.729 51.1862C210.943 53.2057 209.599 54.7314 207.986 55.4368C205.875 56.3159 204.832 53.701 205.428 50.8968C205.958 48.3821 207.705 44.8769 209.816 45.233C211.928 45.5891 212.698 48.6825 211.729 51.1862Z" fill="#FFB573"/>
<path d="M152.691 372.834L164.971 376.473C164.971 376.473 176.91 313.592 180.454 282.858C181.539 273.511 184.056 260.169 186.35 246.138C189.239 228.445 192.874 209.306 195.855 194.317C199.001 178.528 201.336 167.178 201.336 167.178L175.412 164.874C175.412 164.874 163.348 247.117 160.913 277.394C158.371 308.863 152.691 372.834 152.691 372.834Z" fill="#263238"/>
<path opacity="0.2" d="M186.35 246.115C189.239 228.423 192.874 209.284 195.855 194.295L193.131 186.506C186.697 196.832 185.05 228.779 186.35 246.115Z" fill="black"/>
<path d="M187.766 165.943C187.766 165.943 193.131 249.988 195.218 279.086C197.536 310.955 203.754 376.239 203.754 376.239H216.224C216.224 376.239 216.787 306.715 214.568 275.937C214.253 215.426 215.04 168.369 215.04 168.369L187.766 165.943Z" fill="#263238"/>
<path d="M202.165 376.629H218.178V370.197L201.544 368.962L202.165 376.629Z" fill="#407BFF"/>
<path d="M151.086 372.768L165.717 377.107L166.76 370.753L151.442 365.568L151.086 372.768Z" fill="#407BFF"/>
<path d="M198.473 43.9532C198.473 44.7544 198.083 45.3775 197.694 45.3441C197.305 45.3107 197.015 44.632 197.057 43.8308C197.098 43.0296 197.446 42.4065 197.835 42.4399C198.224 42.4733 198.514 43.152 198.473 43.9532Z" fill="#263238"/>
<path d="M191.716 43.3966C191.716 44.1977 191.327 44.8209 190.937 44.7875C190.548 44.7541 190.258 44.0753 190.3 43.2742C190.341 42.473 190.689 41.8499 191.078 41.8832C191.467 41.9166 191.757 42.5509 191.716 43.3966Z" fill="#263238"/>
<path d="M193.264 43.9531C192.429 46.3403 191.357 48.5638 190.076 50.5628C191.061 51.9871 192.891 51.542 192.891 51.542L193.264 43.9531Z" fill="#ED893E"/>
<path d="M195.309 53.9121C195.98 53.8612 196.636 53.6279 197.238 53.2263C197.84 52.8246 198.376 52.2629 198.811 51.5753C198.842 51.5318 198.859 51.4741 198.859 51.414C198.859 51.3539 198.842 51.2961 198.811 51.2526C198.778 51.2104 198.733 51.1869 198.687 51.1869C198.641 51.1869 198.597 51.2104 198.563 51.2526C198.071 52.0066 197.455 52.5947 196.763 52.9697C196.071 53.3447 195.324 53.4959 194.58 53.4113C194.557 53.4083 194.534 53.4113 194.512 53.4203C194.49 53.4293 194.47 53.444 194.452 53.4637C194.435 53.4833 194.42 53.5075 194.409 53.5348C194.399 53.5621 194.392 53.592 194.39 53.6227C194.388 53.6859 194.403 53.7478 194.434 53.7955C194.465 53.8432 194.509 53.873 194.555 53.8787C194.806 53.9102 195.058 53.9214 195.309 53.9121Z" fill="#263238"/>
<path d="M200.12 41.1711C200.179 41.162 200.236 41.1354 200.286 41.0932C200.365 41.0248 200.42 40.9175 200.44 40.7946C200.46 40.6717 200.443 40.5431 200.394 40.4367C200.098 39.7965 199.693 39.2605 199.212 38.8734C198.731 38.4863 198.188 38.2592 197.628 38.2112C197.544 38.2286 197.467 38.2858 197.412 38.3726C197.357 38.4593 197.326 38.5698 197.326 38.6841C197.326 38.7984 197.357 38.9089 197.412 38.9956C197.467 39.0824 197.544 39.1396 197.628 39.157C198.07 39.2009 198.498 39.3852 198.876 39.6947C199.255 40.0042 199.574 40.4301 199.806 40.9374C199.837 41.012 199.883 41.0735 199.938 41.1148C199.994 41.1561 200.057 41.1756 200.12 41.1711Z" fill="#263238"/>
<path d="M188.379 39.9806C188.437 39.9752 188.492 39.9511 188.541 39.9104C188.59 39.8697 188.631 39.8136 188.661 39.7469C188.872 39.2298 189.171 38.787 189.534 38.4544C189.896 38.1219 190.312 37.909 190.747 37.833C190.839 37.8217 190.925 37.7637 190.986 37.6707C191.048 37.5777 191.081 37.4567 191.078 37.3323C191.072 37.2073 191.029 37.0907 190.96 37.0075C190.89 36.9242 190.799 36.881 190.706 36.8872C190.15 36.9774 189.618 37.2459 189.156 37.67C188.693 38.0941 188.313 38.6614 188.048 39.3241C188.003 39.4319 187.992 39.5591 188.017 39.6779C188.042 39.7967 188.1 39.8975 188.18 39.9583C188.243 39.9962 188.313 40.004 188.379 39.9806Z" fill="#263238"/>
<path d="M203.291 390.315C203.95 390.294 204.605 390.175 205.245 389.959C205.278 389.949 205.309 389.925 205.332 389.892C205.356 389.858 205.372 389.816 205.377 389.77C205.386 389.727 205.385 389.681 205.373 389.639C205.361 389.597 205.339 389.561 205.311 389.536C205.046 389.303 202.711 387.311 201.867 387.89C201.775 387.954 201.698 388.05 201.643 388.167C201.588 388.284 201.556 388.419 201.552 388.557C201.523 388.786 201.537 389.022 201.593 389.242C201.65 389.462 201.747 389.659 201.875 389.815C202.29 390.196 202.79 390.373 203.291 390.315ZM204.74 389.625C203.473 389.97 202.504 389.904 202.115 389.447C202.027 389.342 201.961 389.208 201.923 389.057C201.885 388.907 201.877 388.746 201.9 388.591C201.9 388.413 201.966 388.346 202.016 388.312C202.455 388.023 203.796 388.869 204.74 389.625Z" fill="#407BFF"/>
<path d="M205.204 389.97C205.233 389.986 205.266 389.986 205.295 389.97C205.323 389.95 205.347 389.919 205.363 389.882C205.379 389.844 205.387 389.802 205.386 389.759C205.386 389.636 205.295 386.754 204.459 385.809C204.358 385.69 204.239 385.601 204.111 385.549C203.982 385.498 203.847 385.483 203.714 385.508C203.581 385.509 203.452 385.569 203.349 385.68C203.245 385.792 203.172 385.946 203.142 386.12C202.952 387.233 204.368 389.458 205.121 389.981C205.149 389.989 205.178 389.985 205.204 389.97ZM203.83 385.92C203.977 385.922 204.119 385.997 204.227 386.131C204.757 386.732 204.947 388.412 205.005 389.258C204.269 388.479 203.349 386.821 203.482 386.165C203.482 386.109 203.482 385.964 203.747 385.931H203.83V385.92Z" fill="#407BFF"/>
<path d="M152.112 385.453L160.823 388.791C160.962 388.845 161.083 388.962 161.164 389.122C161.246 389.283 161.283 389.476 161.27 389.67L160.624 398.65C160.603 398.871 160.547 399.083 160.459 399.272C160.371 399.461 160.254 399.622 160.116 399.745C159.977 399.867 159.821 399.948 159.657 399.982C159.493 400.016 159.326 400.002 159.167 399.941C156.376 398.828 154.389 397.815 150.887 396.469C148.717 395.645 141.655 392.24 139.079 389.881C136.504 387.522 138.02 383.884 139.237 384.551C144.71 387.534 148.56 387.055 150.829 385.664C151.225 385.392 151.679 385.317 152.112 385.453Z" fill="#263238"/>
<path d="M149.338 386.209C149.978 386.423 150.633 386.546 151.293 386.576C151.328 386.579 151.363 386.568 151.394 386.545C151.425 386.521 151.45 386.486 151.466 386.443C151.486 386.405 151.497 386.361 151.497 386.315C151.497 386.269 151.486 386.224 151.466 386.187C151.259 385.875 149.413 383.116 148.494 383.349C148.392 383.38 148.297 383.445 148.219 383.538C148.14 383.632 148.081 383.751 148.047 383.884C147.975 384.092 147.943 384.321 147.953 384.55C147.963 384.779 148.015 385.001 148.105 385.197C148.42 385.71 148.855 386.066 149.338 386.209ZM150.879 386.076C149.587 385.942 148.668 385.519 148.395 384.963C148.339 384.825 148.31 384.67 148.31 384.512C148.31 384.355 148.339 384.2 148.395 384.062C148.444 383.884 148.51 383.85 148.568 383.839C149.04 383.694 150.117 385.007 150.879 386.12V386.076Z" fill="#407BFF"/>
<path d="M151.251 386.566C151.284 386.577 151.318 386.577 151.351 386.566C151.383 386.555 151.412 386.533 151.435 386.501C151.459 386.47 151.475 386.431 151.483 386.388C151.483 386.276 151.997 383.472 151.392 382.248C151.318 382.099 151.222 381.972 151.109 381.877C150.996 381.781 150.87 381.718 150.738 381.692C150.61 381.644 150.473 381.655 150.35 381.724C150.227 381.792 150.125 381.914 150.059 382.07C149.645 383.072 150.572 385.698 151.177 386.521C151.199 386.544 151.224 386.559 151.251 386.566ZM150.746 382.17C150.888 382.223 151.009 382.347 151.086 382.515C151.483 383.294 151.318 384.985 151.21 385.853C150.655 384.841 150.125 382.916 150.382 382.326C150.382 382.27 150.457 382.148 150.688 382.192L150.746 382.17Z" fill="#407BFF"/>
<path d="M208.102 76.4228C208.014 76.4038 207.924 76.412 207.838 76.4468C207.753 76.4815 207.675 76.542 207.609 76.6234C207.544 76.7049 207.493 76.8054 207.461 76.9171C207.428 77.0289 207.415 77.149 207.423 77.2685C207.713 83.2328 200.799 93.9596 199.143 126.084C198.158 145.624 197.255 206.547 197.917 238.237C197.927 238.653 198.007 239.061 198.152 239.429C198.296 239.797 198.501 240.116 198.751 240.361C199 240.607 199.289 240.773 199.593 240.846C199.898 240.92 200.211 240.899 200.509 240.786C212.73 236.201 218.502 247.317 220.853 234.209C220.729 218.508 217.193 162.137 218.104 148.773C219.015 135.409 222.799 99.1004 223.743 89.4196C224.579 81.0073 211.521 77.2574 208.102 76.4228Z" fill="#407BFF"/>
<path opacity="0.7" d="M208.102 76.4228C208.014 76.4038 207.924 76.412 207.838 76.4468C207.753 76.4815 207.675 76.542 207.609 76.6234C207.544 76.7049 207.493 76.8054 207.461 76.9171C207.428 77.0289 207.415 77.149 207.423 77.2685C207.713 83.2328 200.799 93.9596 199.143 126.084C198.158 145.624 197.255 206.547 197.917 238.237C197.927 238.653 198.007 239.061 198.152 239.429C198.296 239.797 198.501 240.116 198.751 240.361C199 240.607 199.289 240.773 199.593 240.846C199.898 240.92 200.211 240.899 200.509 240.786C212.73 236.201 218.502 247.317 220.853 234.209C220.729 218.508 217.193 162.137 218.104 148.773C219.015 135.409 222.799 99.1004 223.743 89.4196C224.579 81.0073 211.521 77.2574 208.102 76.4228Z" fill="white"/>
<path opacity="0.2" d="M216.158 103.651C215.62 108.614 215.413 128.666 218.965 138.313C219.561 131.637 220.34 123.703 221.093 116.058L216.158 103.651Z" fill="#407BFF"/>
<path d="M221.234 190.367L217.707 190.924L214.585 198.412C214.414 198.818 214.308 199.267 214.274 199.73C214.24 200.194 214.278 200.662 214.387 201.105L215.513 205.712C215.704 206.5 216.106 207.165 216.642 207.576C217.178 207.988 217.808 208.116 218.411 207.937L219.984 207.492C220.562 207.334 221.08 206.905 221.444 206.281C221.808 205.657 221.995 204.88 221.971 204.087L221.872 199.992C221.872 199.992 224.67 191.302 221.234 190.367Z" fill="#FFB573"/>
<path d="M223.172 85.6805C224.298 90.1315 225.341 94.5268 226.376 98.9778C227.411 103.429 228.446 107.88 229.423 112.331C230.4 116.782 231.344 121.333 232.213 125.973C232.644 128.298 233.041 130.646 233.422 133.105C233.596 134.341 233.77 135.598 233.911 136.933C233.977 137.623 234.051 138.257 234.093 139.025L234.167 140.138L234.209 141.395C234.225 141.818 234.225 142.241 234.209 142.664C234.209 143.109 234.209 143.532 234.167 143.877L234.093 144.99L234.002 145.991C233.886 147.337 233.737 148.561 233.588 149.785C233.29 152.211 232.942 154.548 232.586 156.862C231.874 161.491 231.079 166.02 230.276 170.527C229.473 175.034 228.62 179.529 227.792 184.013L225.308 197.466L213.318 193.093C215.173 184.403 216.862 175.556 218.427 166.766C219.189 162.315 219.901 157.953 220.539 153.602C220.853 151.377 221.151 149.262 221.367 147.171C221.491 146.125 221.59 145.09 221.656 144.155C221.721 143.417 221.743 142.673 221.723 141.93V141.462L221.665 140.861C221.665 140.483 221.565 139.982 221.516 139.548C221.4 138.614 221.251 137.623 221.085 136.611C220.746 134.585 220.34 132.493 219.901 130.39C219.073 126.173 218.021 121.9 216.953 117.65C214.842 109.148 212.466 100.591 210.015 92.268L223.172 85.6805Z" fill="#407BFF"/>
<path opacity="0.7" d="M223.172 85.6805C224.298 90.1315 225.341 94.5268 226.376 98.9778C227.411 103.429 228.446 107.88 229.423 112.331C230.4 116.782 231.344 121.333 232.213 125.973C232.644 128.298 233.041 130.646 233.422 133.105C233.596 134.341 233.77 135.598 233.911 136.933C233.977 137.623 234.051 138.257 234.093 139.025L234.167 140.138L234.209 141.395C234.225 141.818 234.225 142.241 234.209 142.664C234.209 143.109 234.209 143.532 234.167 143.877L234.093 144.99L234.002 145.991C233.886 147.337 233.737 148.561 233.588 149.785C233.29 152.211 232.942 154.548 232.586 156.862C231.874 161.491 231.079 166.02 230.276 170.527C229.473 175.034 228.62 179.529 227.792 184.013L225.308 197.466L213.318 193.093C215.173 184.403 216.862 175.556 218.427 166.766C219.189 162.315 219.901 157.953 220.539 153.602C220.853 151.377 221.151 149.262 221.367 147.171C221.491 146.125 221.59 145.09 221.656 144.155C221.721 143.417 221.743 142.673 221.723 141.93V141.462L221.665 140.861C221.665 140.483 221.565 139.982 221.516 139.548C221.4 138.614 221.251 137.623 221.085 136.611C220.746 134.585 220.34 132.493 219.901 130.39C219.073 126.173 218.021 121.9 216.953 117.65C214.842 109.148 212.466 100.591 210.015 92.268L223.172 85.6805Z" fill="white"/>
<path d="M191.997 75.588C192.179 75.5862 192.358 75.654 192.512 75.7834C192.667 75.9127 192.791 76.0984 192.87 76.3188C192.949 76.5392 192.979 76.7852 192.958 77.0282C192.937 77.2711 192.865 77.501 192.751 77.6911C190.78 80.7623 189.538 84.9796 187.203 98.5105C184.388 114.834 178.393 196.966 177.267 237.213C177.261 237.548 177.202 237.877 177.093 238.177C176.984 238.478 176.827 238.743 176.634 238.954C176.441 239.166 176.217 239.319 175.976 239.402C175.735 239.486 175.483 239.498 175.238 239.439C169.393 237.992 165.385 241.798 164.748 236.757C164.044 231.193 166.669 178.049 171.579 153.057C170.809 130.891 173.591 86.4261 179.147 80.5175C182.16 77.2349 188.569 75.6659 191.997 75.588Z" fill="#407BFF"/>
<path opacity="0.7" d="M191.997 75.588C192.179 75.5862 192.358 75.654 192.512 75.7834C192.667 75.9127 192.791 76.0984 192.87 76.3188C192.949 76.5392 192.979 76.7852 192.958 77.0282C192.937 77.2711 192.865 77.501 192.751 77.6911C190.78 80.7623 189.538 84.9796 187.203 98.5105C184.388 114.834 178.393 196.966 177.267 237.213C177.261 237.548 177.202 237.877 177.093 238.177C176.984 238.478 176.827 238.743 176.634 238.954C176.441 239.166 176.217 239.319 175.976 239.402C175.735 239.486 175.483 239.498 175.238 239.439C169.393 237.992 165.385 241.798 164.748 236.757C164.044 231.193 166.669 178.049 171.579 153.057C170.809 130.891 173.591 86.4261 179.147 80.5175C182.16 77.2349 188.569 75.6659 191.997 75.588Z" fill="white"/>
<path d="M195.218 86.6155C195.218 86.6155 188.064 113.622 185.547 136.255C185.348 142.408 187.526 154.326 189.289 159.522C192.974 148.74 195.276 142.386 195.64 136.255C196.228 127.03 197.197 86.7935 197.197 86.7935L195.218 86.6155Z" fill="#263238"/>
<path d="M210.188 118.74C210.116 118.737 210.046 118.702 209.99 118.64C209.934 118.579 209.894 118.494 209.877 118.399C209.86 118.305 209.867 118.205 209.896 118.116C209.925 118.027 209.976 117.953 210.039 117.906L211.397 116.949C212.665 116.072 213.704 114.698 214.375 113.008C215.047 111.318 215.319 109.394 215.156 107.49L213.682 89.5531C213.574 88.216 213.133 86.967 212.432 86.0076C211.73 85.0481 210.809 84.434 209.816 84.2643C208.823 84.0946 207.817 84.3793 206.959 85.0723C206.101 85.7653 205.442 86.8263 205.088 88.0843L200.318 104.942C199.805 106.729 199.708 108.683 200.041 110.546C200.374 112.408 201.12 114.09 202.181 115.369L203.324 116.76C203.385 116.843 203.419 116.955 203.419 117.071C203.419 117.188 203.385 117.3 203.324 117.383C203.262 117.464 203.179 117.51 203.092 117.51C203.006 117.51 202.922 117.464 202.86 117.383L201.718 116.003C200.562 114.6 199.75 112.758 199.391 110.721C199.032 108.684 199.141 106.548 199.706 104.597L204.516 87.7728C204.927 86.3353 205.685 85.1246 206.669 84.3348C207.652 83.545 208.805 83.2216 209.941 83.4165C211.078 83.6115 212.133 84.3134 212.937 85.4099C213.742 86.5064 214.249 87.9341 214.378 89.4641L215.852 107.39C216.026 109.476 215.723 111.584 214.984 113.433C214.244 115.282 213.103 116.784 211.712 117.739L210.354 118.685C210.305 118.727 210.246 118.747 210.188 118.74Z" fill="#263238"/>
<path d="M214.295 93.4699C214.216 93.4707 214.14 93.4327 214.08 93.363C214.021 93.2933 213.982 93.1967 213.972 93.0915C213.78 91.6489 213.234 90.3337 212.423 89.3542C211.612 88.3747 210.581 87.7869 209.493 87.6836C207.654 87.3721 205.154 88.151 204.152 91.4002C204.138 91.4578 204.115 91.5108 204.084 91.556C204.054 91.6012 204.017 91.6376 203.976 91.6629C203.935 91.6883 203.891 91.7021 203.846 91.7035C203.8 91.7049 203.755 91.6938 203.714 91.671C203.672 91.6482 203.634 91.6141 203.602 91.5708C203.57 91.5275 203.546 91.4759 203.529 91.4193C203.513 91.3627 203.505 91.3021 203.507 91.2414C203.509 91.1807 203.52 91.1211 203.539 91.0663C204.099 89.6112 204.978 88.4225 206.058 87.6614C207.137 86.9002 208.365 86.6034 209.574 86.811C210.783 87.0187 211.915 87.7209 212.818 88.8224C213.72 89.9239 214.348 91.3715 214.618 92.9691C214.63 93.0827 214.608 93.1979 214.556 93.2897C214.505 93.3814 214.429 93.4422 214.345 93.4587L214.295 93.4699Z" fill="#263238"/>
<path d="M209.84 84.2674C209.797 84.2646 209.754 84.2502 209.715 84.225C209.676 84.1998 209.642 84.1644 209.613 84.1208C209.585 84.0772 209.563 84.0264 209.549 83.9713C209.535 83.9162 209.53 83.858 209.533 83.8C209.633 81.6302 209.401 77.68 207.877 76.6563C207.8 76.6017 207.741 76.5077 207.715 76.395C207.688 76.2823 207.696 76.1601 207.737 76.0554C207.777 75.9506 207.847 75.8718 207.931 75.8364C208.015 75.8009 208.106 75.8116 208.184 75.8662C210.386 77.3907 210.188 83.1992 210.154 83.8557C210.15 83.965 210.116 84.0681 210.057 84.1445C209.999 84.2208 209.921 84.2647 209.84 84.2674Z" fill="#263238"/>
<path d="M203.838 117.205C203.755 118.039 203.366 118.651 202.96 118.573C202.555 118.496 202.29 117.783 202.373 116.96C202.455 116.137 202.836 115.513 203.242 115.591C203.648 115.669 203.913 116.381 203.838 117.205Z" fill="#263238"/>
<path d="M184.587 99.167C184.065 100.936 182.931 102.005 182.103 101.548C181.275 101.092 180.952 99.3228 181.473 97.5091C181.995 95.6953 183.129 94.6716 183.957 95.1278C184.785 95.584 185.1 97.3978 184.587 99.167Z" fill="#263238"/>
<path d="M181.863 98.0209H181.796C181.711 97.9968 181.636 97.9283 181.588 97.8304C181.54 97.7325 181.523 97.613 181.54 97.4979C182.633 90.1872 187.153 78.5814 191.136 75.2432C191.172 75.2012 191.215 75.1703 191.261 75.1525C191.306 75.1347 191.355 75.1304 191.402 75.14C191.449 75.1495 191.494 75.1727 191.534 75.2078C191.574 75.243 191.608 75.2893 191.633 75.3437C191.659 75.3981 191.675 75.4591 191.681 75.5228C191.687 75.5864 191.683 75.651 191.669 75.7123C191.655 75.7735 191.631 75.83 191.599 75.8777C191.567 75.9254 191.528 75.9633 191.484 75.9887C187.634 79.249 183.254 90.4543 182.185 97.6537C182.172 97.7559 182.132 97.8486 182.073 97.9156C182.014 97.9827 181.94 98.0199 181.863 98.0209Z" fill="#263238"/>
<path d="M185.531 99.5345C185.15 101.059 184.173 102.005 183.345 101.638C182.517 101.27 182.144 99.7237 182.517 98.1881C182.889 96.6525 183.875 95.7178 184.703 96.085C185.531 96.4522 185.912 97.9989 185.531 99.5345Z" fill="white"/>
<path d="M185.588 99.6903C185.083 101.571 184.148 102.85 183.51 102.539C182.872 102.227 182.765 100.447 183.278 98.5553C183.792 96.6637 184.719 95.3951 185.356 95.7067C185.994 96.0183 186.102 97.7987 185.588 99.6903Z" fill="#263238"/>
<path d="M210.925 118.429C210.851 119.252 210.453 119.864 210.047 119.797C209.642 119.731 209.377 118.996 209.459 118.173C209.542 117.349 209.931 116.737 210.337 116.804C210.743 116.871 211.008 117.594 210.925 118.429Z" fill="#263238"/>
<path d="M257.873 70.2138C260.638 80.3731 253.286 85.4806 248.467 100.447C243.648 115.413 255.273 133.262 273.116 133.651C290.96 134.041 291.523 111.074 288.757 94.5939C285.992 78.1143 291.771 75.4326 290.546 62.8475C288.973 46.3122 271.245 33.7828 264.207 48.9605C257.947 48.1705 255.455 61.3342 257.873 70.2138Z" fill="#263238"/>
<path d="M310.724 206.969V205.679C310.708 205.059 310.592 204.452 310.385 203.898L307.387 195.953L303.876 195.063C301.392 198.657 303.876 205.823 303.876 205.823V206.969C303.877 207.908 304.105 208.821 304.526 209.57C304.948 210.319 305.539 210.863 306.211 211.12L306.683 211.309C307.169 211.481 307.679 211.498 308.171 211.359C308.663 211.219 309.123 210.927 309.516 210.505C309.909 210.083 310.222 209.544 310.432 208.93C310.642 208.316 310.742 207.644 310.724 206.969Z" fill="#FFC3BD"/>
<path d="M295.845 104.764L297.136 116.938L298.494 129.078C298.941 133.139 299.413 137.178 299.894 141.229L301.326 153.291L301.5 154.481C301.558 154.871 301.657 155.372 301.732 155.806L301.98 157.174L302.27 158.587C302.643 160.457 303.098 162.393 303.495 164.307C304.323 168.146 305.276 172.029 306.211 175.891C308.116 183.602 310.103 191.347 312.223 198.958L300.515 204.521L294.652 180.998C293.684 177.07 292.698 173.142 291.763 169.136C291.299 167.122 290.835 165.13 290.396 163.05L290.057 161.503L289.734 159.889C289.626 159.333 289.511 158.843 289.411 158.231L289.105 156.407L287.374 144.166C286.822 140.131 286.245 136.095 285.644 132.06L283.872 119.953L282.025 107.936L295.845 104.764Z" fill="#407BFF"/>
<path opacity="0.6" d="M295.845 104.764L297.136 116.938L298.494 129.078C298.941 133.139 299.413 137.178 299.894 141.229L301.326 153.291L301.5 154.481C301.558 154.871 301.657 155.372 301.732 155.806L301.98 157.174L302.27 158.587C302.643 160.457 303.098 162.393 303.495 164.307C304.323 168.146 305.276 172.029 306.211 175.891C308.116 183.602 310.103 191.347 312.223 198.958L300.515 204.521L294.652 180.998C293.684 177.07 292.698 173.142 291.763 169.136C291.299 167.122 290.835 165.13 290.396 163.05L290.057 161.503L289.734 159.889C289.626 159.333 289.511 158.843 289.411 158.231L289.105 156.407L287.374 144.166C286.822 140.131 286.245 136.095 285.644 132.06L283.872 119.953L282.025 107.936L295.845 104.764Z" fill="white"/>
<path d="M293.982 103.83C294.371 109.761 294.023 124.516 289.593 161.091H258.957C259.446 145.202 259.479 135.076 254.403 104.754C254.288 104.072 254.278 103.365 254.374 102.678C254.469 101.991 254.669 101.337 254.96 100.757C255.251 100.178 255.627 99.6841 256.065 99.3073C256.504 98.9306 256.995 98.6785 257.508 98.5667C260.499 97.9064 263.515 97.4644 266.542 97.2425C271.178 96.7969 275.832 96.7969 280.469 97.2425C284.278 97.7099 288.409 98.6334 290.91 99.2455C291.724 99.4533 292.466 100.014 293.021 100.842C293.575 101.67 293.913 102.72 293.982 103.83Z" fill="#263238"/>
<path d="M267.892 76.167C268.769 82.1869 269.647 93.2253 266.509 97.2423C266.509 97.2423 270.434 103.652 276.445 103.652C282.456 103.652 280.444 97.2423 280.444 97.2423C275.476 95.6399 275.575 90.6549 276.445 85.9814L267.892 76.167Z" fill="#FFC3BD"/>
<path opacity="0.2" d="M271.378 80.1729L276.437 85.9702C276.222 87.0642 276.078 88.1811 276.006 89.3084C274.094 88.9412 271.096 86.7491 270.682 83.9562C270.492 82.632 271.212 80.796 271.378 80.1729Z" fill="black"/>
<path d="M262.618 64.3496C263.785 74.2975 264.124 78.537 268.248 83.1882C274.458 90.1874 283.293 86.0814 284.361 75.8664C285.321 66.6752 283.243 51.9425 275.675 48.9048C274.008 48.2233 272.239 48.1257 270.535 48.6213C268.832 49.1169 267.251 50.1893 265.943 51.7366C264.635 53.2839 263.643 55.2549 263.061 57.4623C262.479 59.6698 262.326 62.0406 262.618 64.3496Z" fill="#FFC3BD"/>
<path d="M263.851 71.5158C268.09 65.8742 269.547 58.0294 269.15 54.8247C273.232 56.3491 276.229 54.1904 276.047 53.2557C278.929 57.039 284.153 60.0323 283.566 55.9597C282.978 51.887 279.111 44.3761 271.046 47.0578C262.981 49.7395 259.876 60.8669 259.992 65.3846C260.108 69.9023 263.851 71.5158 263.851 71.5158Z" fill="#263238"/>
<path d="M273.24 65.4737C273.298 66.2971 273.663 66.9091 274.068 66.8646C274.474 66.8201 274.739 66.1079 274.681 65.2956C274.623 64.4833 274.25 63.8602 273.853 63.9047C273.456 63.9492 273.24 64.6614 273.24 65.4737Z" fill="#263238"/>
<path d="M280.121 64.5943C280.179 65.4066 280.552 66.0297 280.949 65.9741C281.346 65.9184 281.62 65.2285 281.562 64.4162C281.504 63.6039 281.131 62.9808 280.734 63.0253C280.336 63.0698 280.063 63.782 280.121 64.5943Z" fill="#263238"/>
<path d="M280.568 63.092L281.984 62.3464C281.984 62.3464 281.338 63.971 280.568 63.092Z" fill="#263238"/>
<path d="M278.117 66.3301C278.787 68.1212 279.636 69.78 280.643 71.2595C280.355 71.5947 280.016 71.8418 279.65 71.984C279.284 72.1262 278.9 72.1599 278.523 72.0829L278.117 66.3301Z" fill="#ED847E"/>
<path d="M275.443 75.6661C275.743 75.6937 276.045 75.6937 276.345 75.6661C276.392 75.6578 276.435 75.6252 276.464 75.5754C276.494 75.5256 276.507 75.4623 276.503 75.3991C276.502 75.3678 276.496 75.3371 276.486 75.309C276.475 75.2809 276.461 75.256 276.443 75.2361C276.425 75.2161 276.404 75.2015 276.381 75.1931C276.359 75.1848 276.335 75.1829 276.312 75.1877C275.559 75.3049 274.795 75.1827 274.084 74.831C273.372 74.4792 272.731 73.9077 272.214 73.1625C272.182 73.1235 272.14 73.101 272.097 73.0991C272.054 73.0972 272.012 73.116 271.978 73.1521C271.944 73.1882 271.921 73.2393 271.913 73.2962C271.904 73.3531 271.911 73.4122 271.932 73.4629C272.38 74.1236 272.921 74.6584 273.524 75.0366C274.126 75.4148 274.778 75.6287 275.443 75.6661Z" fill="#263238"/>
<path d="M260.977 72.4394C261.53 74.2405 262.589 75.676 263.925 76.4341C265.697 77.4133 266.815 75.3214 266.508 72.9512C266.235 70.7257 264.976 67.6435 263.105 67.688C262.698 67.7147 262.302 67.8758 261.951 68.1571C261.601 68.4384 261.308 68.8312 261.098 69.3008C260.888 69.7704 260.767 70.3024 260.746 70.8498C260.724 71.3972 260.804 71.9431 260.977 72.4394Z" fill="#FFC3BD"/>
<path d="M270.881 61.2004C270.952 61.2343 271.029 61.2374 271.102 61.2095C271.175 61.1816 271.239 61.124 271.286 61.0447C272.33 59.3199 274.458 59.4868 274.474 59.4868C274.568 59.4931 274.66 59.4502 274.731 59.3673C274.802 59.2843 274.847 59.1676 274.855 59.0417C274.86 58.9785 274.855 58.9148 274.84 58.8543C274.826 58.7939 274.802 58.738 274.771 58.6901C274.74 58.6422 274.702 58.6033 274.66 58.5758C274.617 58.5482 274.571 58.5326 274.524 58.5299C274.425 58.5299 271.999 58.3296 270.732 60.4438C270.673 60.5434 270.645 60.67 270.654 60.7967C270.663 60.9234 270.709 61.0403 270.781 61.1225L270.881 61.2004Z" fill="#263238"/>
<path d="M282.614 60.188C282.692 60.1944 282.77 60.1657 282.835 60.1064C282.9 60.047 282.949 59.9604 282.973 59.86C282.998 59.7596 282.997 59.6511 282.971 59.5514C282.945 59.4517 282.895 59.3665 282.829 59.309C282.365 58.8695 281.831 58.5847 281.269 58.4783C280.708 58.3718 280.135 58.4468 279.6 58.697C279.513 58.7484 279.444 58.8435 279.408 58.962C279.373 59.0805 279.373 59.213 279.409 59.3312C279.427 59.3901 279.454 59.4436 279.487 59.4885C279.521 59.5333 279.561 59.5687 279.605 59.5926C279.649 59.6164 279.696 59.6282 279.744 59.6273C279.791 59.6263 279.838 59.6127 279.881 59.5872C280.307 59.3967 280.76 59.3448 281.203 59.4357C281.647 59.5266 282.067 59.7578 282.431 60.1101C282.486 60.1574 282.549 60.1843 282.614 60.188Z" fill="#263238"/>
<path d="M308.629 391.45L316.255 390.961L313.995 367.816L306.377 368.317L308.629 391.45Z" fill="#FFC3BD"/>
<g opacity="0.2">
<path d="M313.995 367.827L315.162 379.755L307.537 380.245L306.369 368.317L313.995 367.827Z" fill="black"/>
</g>
<path d="M289.594 161.091C289.594 161.091 299.19 239.261 303.098 269.739C307.172 301.43 316.346 376.017 316.346 376.017L306.261 378.242C306.261 378.242 292.666 303.577 287.217 272.532C281.305 238.649 266.981 193.216 267.13 161.18L289.594 161.091Z" fill="#407BFF"/>
<path opacity="0.2" d="M274.184 185.082C272.744 182.267 269.97 178.316 267.842 175.067C269.771 194.985 275.294 218.097 280.336 239.862C281.678 223.282 280.916 198.134 274.184 185.082Z" fill="black"/>
<path d="M261.582 389.882H269.133L269.638 366.38H262.079L261.582 389.882Z" fill="#FFC3BD"/>
<path d="M269.49 388.346H261.003C260.856 388.344 260.714 388.414 260.603 388.543C260.491 388.672 260.419 388.852 260.399 389.047L259.43 398.06C259.413 398.289 259.431 398.521 259.485 398.739C259.538 398.958 259.625 399.159 259.739 399.33C259.854 399.501 259.994 399.638 260.15 399.731C260.307 399.825 260.476 399.874 260.647 399.874C263.603 399.796 265.027 399.563 268.762 399.563C271.055 399.563 275.8 399.885 278.971 399.885C282.142 399.885 282.283 395.679 280.991 395.29C275.071 393.587 272.711 391.228 270.749 388.969C270.396 388.572 269.951 388.352 269.49 388.346Z" fill="#263238"/>
<g opacity="0.2">
<path d="M269.63 366.392L269.374 378.509H261.822L262.079 366.392H269.63Z" fill="black"/>
</g>
<path d="M280.975 161.091C280.975 161.091 277.911 240.262 275.841 271.085C273.68 303.154 271.08 375.827 271.08 375.827H260.862C260.862 375.827 259.041 303.433 259.753 271.809C260.523 237.314 254.354 193.127 258.519 161.091H280.975Z" fill="#407BFF"/>
<path d="M259.975 376.317L271.957 376.617L272.139 366.803L259.926 367.827L259.975 376.317Z" fill="#263238"/>
<path d="M272.321 390.16C272.966 390.239 273.612 390.019 274.151 389.536C274.273 389.39 274.366 389.207 274.422 389.001C274.479 388.795 274.497 388.574 274.474 388.357C274.468 388.226 274.438 388.099 274.386 387.988C274.334 387.877 274.261 387.786 274.176 387.723C273.249 387.033 270.235 389.102 269.895 389.347C269.864 389.371 269.838 389.407 269.822 389.451C269.806 389.495 269.8 389.544 269.804 389.592C269.809 389.641 269.825 389.687 269.85 389.723C269.876 389.759 269.909 389.783 269.945 389.792C270.727 390.016 271.522 390.139 272.321 390.16ZM273.671 388.056C273.785 388.052 273.898 388.083 274.002 388.145C274.037 388.17 274.066 388.207 274.087 388.252C274.107 388.297 274.118 388.349 274.118 388.401C274.136 388.542 274.127 388.688 274.09 388.822C274.054 388.957 273.992 389.076 273.911 389.169C273.456 389.726 272.214 389.826 270.541 389.447C271.518 388.747 272.576 388.276 273.671 388.056Z" fill="#407BFF"/>
<path d="M269.978 389.803H270.052C270.955 389.258 272.735 387.066 272.594 385.92C272.594 385.642 272.42 385.308 271.923 385.241C271.746 385.214 271.565 385.236 271.394 385.307C271.223 385.378 271.065 385.496 270.93 385.653C269.986 386.71 269.812 389.447 269.804 389.559C269.8 389.601 269.806 389.644 269.819 389.683C269.832 389.722 269.852 389.756 269.878 389.781C269.909 389.8 269.944 389.807 269.978 389.803ZM271.783 385.686H271.89C272.213 385.686 272.238 385.898 272.238 385.965C272.329 386.654 271.12 388.368 270.201 389.114C270.272 387.963 270.608 386.87 271.162 385.987C271.335 385.789 271.555 385.682 271.783 385.686Z" fill="#407BFF"/>
<path d="M316.164 388.346H307.677C307.609 388.34 307.54 388.355 307.477 388.389C307.414 388.423 307.356 388.475 307.31 388.542C307.263 388.609 307.228 388.689 307.207 388.776C307.186 388.863 307.18 388.956 307.188 389.047L307.619 398.06C307.669 398.55 307.846 399 308.119 399.331C308.391 399.663 308.742 399.855 309.109 399.874C312.057 399.796 313.448 399.562 317.174 399.562C319.476 399.562 324.27 399.885 327.441 399.885C330.612 399.885 330.124 395.679 328.749 395.289C322.564 393.587 319.865 391.228 317.522 388.969C317.127 388.58 316.653 388.362 316.164 388.346Z" fill="#263238"/>
<path d="M318.996 390.16C319.643 390.239 320.292 390.019 320.834 389.536C320.954 389.389 321.047 389.205 321.103 389C321.159 388.795 321.178 388.574 321.157 388.357C321.149 388.225 321.117 388.098 321.064 387.987C321.01 387.876 320.937 387.785 320.85 387.723C319.923 387.033 316.917 389.102 316.578 389.347C316.545 389.37 316.518 389.405 316.5 389.449C316.482 389.492 316.475 389.542 316.479 389.592C316.485 389.64 316.502 389.684 316.527 389.72C316.552 389.755 316.584 389.78 316.619 389.792C317.401 390.016 318.197 390.139 318.996 390.16ZM320.345 388.056C320.459 388.05 320.573 388.081 320.677 388.145C320.712 388.169 320.743 388.206 320.765 388.251C320.786 388.296 320.799 388.348 320.801 388.401C320.815 388.542 320.804 388.686 320.768 388.82C320.732 388.953 320.672 389.073 320.594 389.169C320.13 389.726 318.888 389.826 317.215 389.447C318.192 388.748 319.251 388.278 320.345 388.056Z" fill="#407BFF"/>
<path d="M316.661 389.804H316.735C317.63 389.258 319.41 387.066 319.269 385.92C319.269 385.642 319.095 385.308 318.598 385.241C318.422 385.214 318.243 385.236 318.073 385.307C317.904 385.378 317.747 385.496 317.613 385.653C316.661 386.71 316.487 389.447 316.479 389.559C316.478 389.601 316.484 389.643 316.497 389.682C316.51 389.72 316.529 389.754 316.553 389.781C316.587 389.8 316.624 389.808 316.661 389.804ZM318.458 385.686H318.565C318.888 385.686 318.913 385.898 318.921 385.965C319.004 386.654 317.795 388.368 316.876 389.114C316.95 387.964 317.285 386.872 317.837 385.987C318.01 385.79 318.23 385.684 318.458 385.686Z" fill="#407BFF"/>
<path d="M305.417 378.876L317.249 376.317L315.916 367.816L304.191 371.532L305.417 378.876Z" fill="#263238"/>
<path d="M273.713 63.9712L275.129 63.2257C275.129 63.2257 274.491 64.8503 273.713 63.9712Z" fill="#263238"/>
<path d="M258.461 158.677L257.683 162.371C257.575 162.649 257.823 162.95 258.179 162.95H289.743C290.024 162.95 290.248 162.76 290.264 162.527L290.546 158.844C290.546 158.588 290.322 158.365 290.024 158.365H258.966C258.869 158.354 258.771 158.377 258.683 158.431C258.594 158.486 258.518 158.57 258.461 158.677Z" fill="#263238"/>
<path d="M262.741 163.339H261.913C261.747 163.339 261.623 163.228 261.631 163.094L262.02 158.298C262.02 158.154 262.178 158.042 262.343 158.042H263.171C263.337 158.042 263.461 158.154 263.453 158.298L263.055 163.094C263.047 163.228 262.906 163.339 262.741 163.339Z" fill="#407BFF"/>
<path d="M287.408 163.339H286.58C286.414 163.339 286.282 163.228 286.298 163.094L286.687 158.298C286.687 158.154 286.845 158.042 287.01 158.042H287.838C288.004 158.042 288.128 158.154 288.12 158.298L287.731 163.094C287.714 163.228 287.573 163.339 287.408 163.339Z" fill="#407BFF"/>
<path d="M275.12 163.339H274.292C274.126 163.339 274.002 163.228 274.01 163.094L274.399 158.298C274.399 158.154 274.557 158.042 274.722 158.042H275.55C275.716 158.042 275.84 158.154 275.823 158.298L275.434 163.094C275.434 163.228 275.285 163.339 275.12 163.339Z" fill="#407BFF"/>
<path d="M265.184 96.9086C260.373 97.4983 253.021 96.2743 253.244 106.189C253.468 116.103 252.035 142.364 252.416 154.66C252.797 166.955 250.412 246.572 254.271 269.65C254.95 273.712 279.873 273.189 282.886 272.799V269.138C282.886 269.138 300.995 265.867 305.474 266.913C305.085 253.048 295.058 183.012 294.669 163.339C294.28 143.666 295.928 109.861 295.828 104.497C295.729 99.134 287.797 96.775 282.936 96.9086C284.013 101.749 281.636 110.84 277.836 120.977C268.488 108.737 265.73 102.661 265.184 96.9086Z" fill="#407BFF"/>
<path opacity="0.7" d="M265.184 96.9086C260.373 97.4983 253.021 96.2743 253.244 106.189C253.468 116.103 252.035 142.364 252.416 154.66C252.797 166.955 250.412 246.572 254.271 269.65C254.95 273.712 279.873 273.189 282.886 272.799V269.138C282.886 269.138 300.995 265.867 305.474 266.913C305.085 253.048 295.058 183.012 294.669 163.339C294.28 143.666 295.928 109.861 295.828 104.497C295.729 99.134 287.797 96.775 282.936 96.9086C284.013 101.749 281.636 110.84 277.836 120.977C268.488 108.737 265.73 102.661 265.184 96.9086Z" fill="white"/>
<path opacity="0.2" d="M256.026 120.421L252.946 123.347C252.706 131.915 252.383 141.518 252.35 148.94C255.214 140.428 256.829 128.143 256.026 120.421Z" fill="#407BFF"/>
<path d="M265.838 111.53C265.682 111.842 265.513 112.143 265.333 112.431L265.159 112.698L265.068 112.832L264.903 113.066L264.571 113.544L263.909 114.534C263.462 115.191 263.031 115.87 262.601 116.56C261.74 117.939 260.912 119.345 260.117 120.777C258.493 123.636 256.981 126.607 255.588 129.679C252.85 135.349 250.871 141.619 249.742 148.206C249.533 149.675 249.403 151.163 249.353 152.657C249.404 153.4 249.565 154.122 249.825 154.782C250.876 157.773 252.14 160.62 253.6 163.283C255.132 166.221 256.871 169.081 258.651 171.907C259.545 173.331 260.473 174.711 261.408 176.08C262.344 177.449 263.321 178.851 264.232 180.064L255.306 191.658C254.221 190.067 253.261 188.621 252.259 187.096L249.336 182.5C247.399 179.418 245.536 176.213 243.698 172.853C241.702 169.304 239.976 165.494 238.547 161.481C238.129 160.238 237.773 158.959 237.479 157.653C237.307 156.875 237.171 156.084 237.074 155.283C237.01 154.823 236.966 154.359 236.941 153.892C236.908 153.404 236.894 152.913 236.9 152.423C236.919 150.034 237.071 147.649 237.355 145.29C237.928 140.834 238.856 136.473 240.121 132.283C241.311 128.315 242.694 124.456 244.261 120.732C245.784 117.06 247.457 113.555 249.187 110.128C250.065 108.414 250.959 106.734 251.895 105.076L253.311 102.595L254.048 101.348L254.42 100.725L254.611 100.425L254.693 100.28L254.577 100.458C254.428 100.714 254.288 100.97 254.155 101.237L265.838 111.53Z" fill="#407BFF"/>
<path opacity="0.7" d="M265.838 111.53C265.682 111.842 265.513 112.143 265.333 112.431L265.159 112.698L265.068 112.832L264.903 113.066L264.571 113.544L263.909 114.534C263.462 115.191 263.031 115.87 262.601 116.56C261.74 117.939 260.912 119.345 260.117 120.777C258.493 123.636 256.981 126.607 255.588 129.679C252.85 135.349 250.871 141.619 249.742 148.206C249.533 149.675 249.403 151.163 249.353 152.657C249.404 153.4 249.565 154.122 249.825 154.782C250.876 157.773 252.14 160.62 253.6 163.283C255.132 166.221 256.871 169.081 258.651 171.907C259.545 173.331 260.473 174.711 261.408 176.08C262.344 177.449 263.321 178.851 264.232 180.064L255.306 191.658C254.221 190.067 253.261 188.621 252.259 187.096L249.336 182.5C247.399 179.418 245.536 176.213 243.698 172.853C241.702 169.304 239.976 165.494 238.547 161.481C238.129 160.238 237.773 158.959 237.479 157.653C237.307 156.875 237.171 156.084 237.074 155.283C237.01 154.823 236.966 154.359 236.941 153.892C236.908 153.404 236.894 152.913 236.9 152.423C236.919 150.034 237.071 147.649 237.355 145.29C237.928 140.834 238.856 136.473 240.121 132.283C241.311 128.315 242.694 124.456 244.261 120.732C245.784 117.06 247.457 113.555 249.187 110.128C250.065 108.414 250.959 106.734 251.895 105.076L253.311 102.595L254.048 101.348L254.42 100.725L254.611 100.425L254.693 100.28L254.577 100.458C254.428 100.714 254.288 100.97 254.155 101.237L265.838 111.53Z" fill="white"/>
<path opacity="0.3" d="M277.844 120.977C278.713 144.723 283.433 227.533 282.895 269.138L284.335 268.882C284.335 268.882 282.1 204.9 281.09 176.903C280.079 148.907 277.844 120.977 277.844 120.977Z" fill="#407BFF"/>
<path opacity="0.3" d="M263.537 180.264L254.694 193.127C254.694 197.444 252.45 206.079 258.395 209.217C264.34 212.355 264.497 189.588 263.537 180.264Z" fill="#407BFF"/>
<path opacity="0.3" d="M292.368 179.863L296.259 192.971C296.375 197.422 297.509 206.324 295.208 209.718C292.906 213.112 292.235 189.51 292.368 179.863Z" fill="#407BFF"/>
<path d="M282.704 129.245L292.416 129.156C292.513 129.161 292.61 129.139 292.699 129.089C292.789 129.04 292.87 128.965 292.936 128.87C293.002 128.775 293.052 128.662 293.082 128.538C293.113 128.415 293.123 128.284 293.112 128.154L292.574 121.967C292.542 121.7 292.442 121.455 292.291 121.274C292.14 121.094 291.947 120.989 291.746 120.977L282.025 121.055C281.929 121.051 281.833 121.075 281.744 121.125C281.655 121.175 281.575 121.25 281.509 121.344C281.443 121.439 281.393 121.552 281.362 121.674C281.331 121.797 281.32 121.927 281.329 122.056L281.868 128.254C281.902 128.523 282.003 128.768 282.155 128.948C282.308 129.129 282.501 129.233 282.704 129.245Z" fill="white" stroke="#407BFF" stroke-width="0.5" stroke-miterlimit="10"/>
</svg>
