<svg width="414" height="400" viewBox="0 0 414 400" fill="none" xmlns="http://www.w3.org/2000/svg">
<path d="M405.737 212.047V211.547V210.876C405.734 209.174 405.069 207.543 403.889 206.342C402.709 205.141 401.112 204.467 399.448 204.465H396.839C395.173 204.465 393.574 205.138 392.392 206.339C391.211 207.54 390.544 209.172 390.542 210.875C390.542 210.876 390.542 210.876 390.542 210.876M405.737 212.047L390.042 210.875L390.542 210.876M405.737 212.047H406.237H410.09C410.992 212.047 411.858 212.411 412.498 213.063C413.138 213.715 413.5 214.601 413.5 215.527L413.5 233.658C413.5 233.658 413.5 233.658 413.5 233.659C413.497 234.584 413.135 235.469 412.495 236.12C411.855 236.771 410.99 237.137 410.089 237.139H386.197C385.296 237.139 384.43 236.774 383.79 236.123C383.149 235.471 382.788 234.585 382.788 233.659L382.788 215.527L382.788 215.525C382.787 215.067 382.875 214.613 383.047 214.19C383.218 213.767 383.47 213.383 383.787 213.06C384.104 212.737 384.48 212.482 384.894 212.308C385.307 212.134 385.75 212.046 386.196 212.047H386.197H390.042H390.542V211.547L390.542 210.876M405.737 212.047L390.542 210.876M391.399 210.874V210.875V211.547V212.047H391.899H404.379H404.879V211.547V210.875C404.879 209.414 404.309 208.011 403.292 206.975C402.274 205.939 400.892 205.355 399.449 205.355H396.839C395.395 205.355 394.012 205.939 392.993 206.974C391.974 208.01 391.402 209.413 391.399 210.874Z" fill="#011A9D" stroke="#011A9D"/>
<path d="M399.841 222.74V223.24H400.341H404.762V226.73H400.341H399.841V227.23V231.731H396.439V227.23V226.73H395.939H391.518V223.24H395.939H396.439V222.74V218.239H399.841V222.74Z" fill="white" stroke="#011A9D"/>
<path d="M402.476 103.49C401.711 103.49 400.953 103.337 400.246 103.038C399.539 102.74 398.897 102.302 398.356 101.751C397.815 101.199 397.386 100.545 397.094 99.8245C396.802 99.1043 396.653 98.3325 396.654 97.5533V81.5575C396.653 80.7783 396.802 80.0065 397.094 79.2863C397.386 78.566 397.815 77.9115 398.356 77.3601C398.897 76.8086 399.539 76.3712 400.246 76.0727C400.953 75.7742 401.711 75.6206 402.476 75.6206C403.241 75.6206 403.999 75.7742 404.706 76.0727C405.413 76.3712 406.056 76.8086 406.596 77.3601C407.137 77.9115 407.566 78.566 407.858 79.2863C408.15 80.0065 408.3 80.7783 408.298 81.5575V97.5249C408.303 98.3065 408.156 99.0814 407.866 99.8049C407.576 100.528 407.147 101.186 406.606 101.741C406.065 102.295 405.422 102.735 404.713 103.035C404.004 103.336 403.244 103.49 402.476 103.49Z" fill="white" stroke="#011A9D" stroke-linecap="round" stroke-linejoin="round"/>
<path d="M402.476 103.49C401.711 103.49 400.953 103.337 400.246 103.038C399.539 102.74 398.897 102.302 398.356 101.751C397.815 101.2 397.386 100.545 397.094 99.8247C396.802 99.1045 396.653 98.3327 396.654 97.5535V89.5651H408.298V97.5535C408.3 98.3327 408.15 99.1045 407.858 99.8247C407.566 100.545 407.137 101.2 406.596 101.751C406.056 102.302 405.413 102.74 404.706 103.038C403.999 103.337 403.241 103.49 402.476 103.49Z" fill="#011A9D" stroke="#011A9D" stroke-linecap="round" stroke-linejoin="round"/>
<path d="M373.188 79.9317C372.71 79.3229 372.354 78.6239 372.141 77.8747C371.929 77.1255 371.864 76.3409 371.95 75.566C372.036 74.7912 372.272 74.0413 372.644 73.3596C373.016 72.6778 373.517 72.0776 374.117 71.5935L386.347 61.5914C387.558 60.6114 389.101 60.1605 390.638 60.3377C392.176 60.515 393.581 61.3058 394.546 62.5368C395.508 63.7682 395.951 65.3381 395.777 66.9015C395.603 68.465 394.826 69.8941 393.618 70.875L381.379 80.8676C380.781 81.3543 380.095 81.7163 379.359 81.9327C378.624 82.1491 377.854 82.2157 377.093 82.1288C376.332 82.0419 375.596 81.8031 374.926 81.4261C374.256 81.049 373.665 80.5412 373.188 79.9317Z" fill="white" stroke="#011A9D" stroke-linecap="round" stroke-linejoin="round"/>
<path d="M373.188 79.9317C372.71 79.323 372.354 78.624 372.141 77.8748C371.929 77.1255 371.864 76.341 371.95 75.5661C372.036 74.7913 372.272 74.0414 372.644 73.3597C373.016 72.6779 373.517 72.0777 374.117 71.5936L380.236 66.5925L387.526 75.8477L381.407 80.8393C380.81 81.332 380.123 81.6995 379.386 81.9207C378.649 82.1419 377.876 82.2123 377.112 82.1279C376.348 82.0436 375.608 81.8061 374.934 81.4291C374.261 81.0522 373.668 80.5433 373.188 79.9317Z" fill="#011A9D" stroke="#011A9D" stroke-linecap="round" stroke-linejoin="round"/>
<path d="M314.957 36.9066H314.956C314.337 36.9069 313.732 37.1043 313.226 37.4725L312.919 37.6959L312.622 37.4607L299.092 26.7685L298.765 26.51L298.96 26.1418C299.581 24.9729 299.872 23.6514 299.802 22.3236C299.731 20.9958 299.301 19.7144 298.561 18.6208L298.359 18.3221L298.578 18.0359L306.843 7.27756L307.072 6.9793L307.422 7.11674C308.021 7.35167 308.677 7.38531 309.295 7.21297C309.913 7.04061 310.463 6.67079 310.862 6.15582C311.262 5.64071 311.489 5.00779 311.511 4.34963C311.532 3.69144 311.346 3.04438 310.98 2.50327C310.615 1.9623 310.09 1.55617 309.484 1.34259C308.878 1.12905 308.221 1.11864 307.609 1.31281C306.997 1.50702 306.46 1.8962 306.079 2.42518C305.697 2.95429 305.491 3.59502 305.492 4.25355L305.492 4.25729C305.489 4.8895 305.681 5.50584 306.042 6.01822L306.253 6.3187L306.03 6.61021L297.988 17.0944L297.667 17.5133L297.266 17.1697C296.258 16.3059 295.035 15.7459 293.734 15.5511C292.433 15.3564 291.104 15.5345 289.896 16.066C288.688 16.5975 287.649 17.4617 286.894 18.5628C286.14 19.664 285.702 20.9582 285.629 22.3003L285.603 22.7733H285.13H275.732H275.289L275.236 22.3333C275.147 21.6005 274.804 20.9262 274.27 20.4321C273.736 19.9382 273.047 19.6569 272.329 19.6373C271.611 19.6176 270.909 19.8607 270.35 20.3244C269.791 20.7883 269.412 21.4426 269.285 22.1693C269.158 22.8961 269.291 23.6447 269.66 24.2787M314.957 36.9066L269.66 24.2787M314.957 36.9066C315.595 36.9059 316.217 37.1129 316.733 37.4988C317.249 37.8847 317.632 38.4296 317.823 39.0551C318.015 39.6806 318.005 40.3525 317.796 40.9719C317.586 41.5912 317.188 42.1244 316.661 42.4946C316.134 42.8647 315.506 43.053 314.869 43.0333C314.231 43.0136 313.615 42.7868 313.111 42.3846C312.607 41.9822 312.242 41.4251 312.069 40.7937C311.897 40.1623 311.927 39.4911 312.156 38.8788L312.283 38.5378L311.998 38.3119L298.542 27.6575L298.182 27.3717L297.867 27.7079C296.976 28.6597 295.849 29.3454 294.606 29.6923C293.363 30.0393 292.051 30.0347 290.811 29.6791C289.57 29.3234 288.447 28.6298 287.563 27.6718C286.679 26.7137 286.067 25.5274 285.795 24.2402L285.711 23.8436H285.306H275.37H275.062L274.924 24.1182C274.593 24.7736 274.043 25.284 273.376 25.5592C272.71 25.8342 271.969 25.8567 271.288 25.6226C270.607 25.3885 270.029 24.9125 269.66 24.2787M314.957 36.9066L269.228 24.53L269.66 24.2787" fill="#011A9D" stroke="#011A9D"/>
<path d="M40.1197 103.604C38.9949 103.601 37.9169 103.145 37.1216 102.336C36.3263 101.526 35.8784 100.429 35.876 99.2834V63.3593H44.3633V99.2834C44.3633 100.429 43.9162 101.528 43.1204 102.338C42.3245 103.149 41.2452 103.604 40.1197 103.604Z" fill="white" stroke="#011A9D" stroke-linecap="round" stroke-linejoin="round"/>
<path d="M40.1197 103.604C38.9949 103.601 37.9169 103.145 37.1216 102.336C36.3263 101.526 35.8784 100.428 35.876 99.2834V77.1901H44.3633V99.2834C44.3633 100.429 43.9162 101.528 43.1204 102.338C42.3245 103.149 41.2452 103.604 40.1197 103.604Z" fill="#011A9D" stroke="#011A9D" stroke-linecap="round" stroke-linejoin="round"/>
<path d="M45.5795 61.2605H34.6685V64.4086H45.5795V61.2605Z" fill="white" stroke="#011A9D" stroke-linecap="round" stroke-linejoin="round"/>
<path d="M27.2583 103.604C26.1336 103.601 25.0556 103.145 24.2603 102.336C23.465 101.526 23.0171 100.429 23.0146 99.2834V63.3593H31.502V99.2834C31.502 100.429 31.0549 101.528 30.2591 102.338C29.4632 103.149 28.3838 103.604 27.2583 103.604Z" fill="white" stroke="#011A9D" stroke-linecap="round" stroke-linejoin="round"/>
<path d="M27.2583 103.604C26.1336 103.601 25.0556 103.145 24.2603 102.336C23.465 101.526 23.0171 100.428 23.0146 99.2834V77.1901H31.502V99.2834C31.502 100.429 31.0549 101.528 30.2591 102.338C29.4632 103.149 28.3838 103.604 27.2583 103.604Z" fill="#011A9D" stroke="#011A9D" stroke-linecap="round" stroke-linejoin="round"/>
<path d="M32.7186 61.2605H21.8076V64.4086H32.7186V61.2605Z" fill="white" stroke="#011A9D" stroke-linecap="round" stroke-linejoin="round"/>
<path d="M158.486 29.6722L154.862 17.5078L154.862 17.5069C154.791 17.2705 154.65 17.0606 154.456 16.9067C154.262 16.7528 154.025 16.6627 153.777 16.6501L153.777 16.6501L153.768 16.6498C153.524 16.6417 153.283 16.7084 153.077 16.8403C152.872 16.9722 152.711 17.1628 152.615 17.3863L152.615 17.3863L152.611 17.3951L149.357 25.3483L138.61 25.3932C137.103 23.5183 136.233 21.1927 136.135 18.7657C136.137 16.2619 137.042 13.8474 138.676 11.98C140.312 10.1103 142.564 8.91978 145.004 8.63213C147.443 8.34449 149.902 8.97938 151.913 10.4178C153.924 11.8563 155.348 13.9989 155.911 16.4394L156.886 16.4356C157.433 13.9778 158.852 11.8145 160.867 10.3597C162.883 8.90506 165.354 8.26063 167.806 8.54841C170.258 8.83621 172.521 10.0364 174.16 11.921C175.797 13.8042 176.695 16.2378 176.68 18.7556C176.585 21.3883 175.569 23.896 173.822 25.8291H165.011L163.39 21.0814L163.386 21.0699L163.382 21.0585C163.292 20.8328 163.139 20.6373 162.941 20.4968L162.652 20.9051L162.941 20.4968C162.742 20.3563 162.506 20.2772 162.262 20.2705L162.249 20.2701L162.237 20.2704C161.983 20.2763 161.739 20.3633 161.539 20.5178C161.339 20.6718 161.193 20.8847 161.12 21.1253C161.12 21.1259 161.12 21.1266 161.12 21.1272L158.486 29.6722Z" fill="#011A9D" stroke="#011A9D"/>
<path d="M164.162 28.2471C163.912 28.2478 163.669 28.1695 163.467 28.0241C163.264 27.8786 163.112 27.6736 163.03 27.4384L163.029 27.436L162.319 25.3575L159.606 34.1621L159.606 34.1638C159.53 34.4078 159.379 34.6225 159.174 34.7762C158.969 34.93 158.72 35.0144 158.463 35.0159L158.458 35.016C158.198 35.0151 157.946 34.9277 157.74 34.7685C157.536 34.6107 157.39 34.3912 157.32 34.1439L153.541 21.4578L151.29 27.0177L151.289 27.0205C151.199 27.2387 151.048 27.4266 150.852 27.5596L150.571 27.1459L150.852 27.5596C150.656 27.6926 150.425 27.7644 150.187 27.7649L150.186 27.7649L140.631 27.7649C141.557 28.7462 142.551 29.6882 143.541 30.6022C143.843 30.8806 144.144 31.1569 144.444 31.431C145.395 32.3016 146.322 33.1505 147.142 33.9742L147.142 33.9745C148.226 35.0655 149.3 36.1658 150.371 37.264C152.392 39.3353 154.406 41.3997 156.473 43.3831M164.162 28.2471H164.162V27.7471L164.164 28.2471C164.163 28.2471 164.163 28.2471 164.162 28.2471ZM164.162 28.2471H171.555M171.555 28.2471C171.151 28.6528 170.743 29.0509 170.335 29.4495C169.82 29.9535 169.304 30.4581 168.792 30.9795M171.555 28.2471H172.258C171.736 28.779 171.202 29.3018 170.671 29.821C170.155 30.3257 169.642 30.827 169.148 31.3301M171.555 28.2471C171.72 28.0818 171.884 27.9154 172.048 27.7471L156.482 44.0831M168.792 30.9795C165.29 34.5287 161.743 38.091 158.204 41.6454C157.627 42.2249 157.05 42.8042 156.473 43.3831M168.792 30.9795C168.792 30.9795 168.791 30.9796 168.791 30.9797L169.148 31.3301M168.792 30.9795C168.792 30.9793 168.792 30.9791 168.792 30.9789L169.148 31.3301M156.473 43.3831C156.358 43.4989 156.243 43.6147 156.128 43.7304L156.482 44.0831M156.473 43.3831C156.591 43.496 156.709 43.6087 156.827 43.721L156.482 44.0831M156.482 44.0831C157.173 43.3886 157.865 42.6937 158.558 41.9983C162.097 38.4438 165.645 34.8803 169.148 31.3301" fill="#011A9D" stroke="#011A9D"/>
<path d="M7.51509 239.051L12.0684 240.659L16.9952 226.198L12.4419 224.59L7.51509 239.051Z" fill="white" stroke="#011A9D" stroke-miterlimit="10"/>
<path d="M5.35648 241.346L12.3838 243.828L13.3119 241.104L6.28464 238.622L5.35648 241.346Z" fill="white" stroke="#011A9D" stroke-miterlimit="10"/>
<path d="M7.42079 228.312L18.6768 232.287L27.6023 206.09L16.3463 202.115L7.42079 228.312Z" fill="white" stroke="#011A9D" stroke-miterlimit="10"/>
<path d="M12.894 217.105L21.2021 220.039L26.129 205.579L17.8208 202.645L12.894 217.105Z" fill="#011A9D" stroke="#011A9D" stroke-miterlimit="10"/>
<path d="M11.4243 227.588L15.9775 229.196L20.9044 214.735L16.3511 213.127L11.4243 227.588Z" fill="#011A9D" stroke="#011A9D" stroke-miterlimit="10"/>
<path d="M6.62633 228.037L19.4878 232.579L20.6046 229.301L7.74317 224.759L6.62633 228.037Z" fill="white" stroke="#011A9D" stroke-miterlimit="10"/>
<path d="M19.0912 201.569L25.7939 203.936L27.282 199.568L20.5793 197.201L19.0912 201.569Z" fill="white" stroke="#011A9D" stroke-miterlimit="10"/>
<path d="M15.2704 202.657L28.1318 207.199L29.2487 203.921L16.3872 199.379L15.2704 202.657Z" fill="white" stroke="#011A9D" stroke-miterlimit="10"/>
<path d="M23.999 197.791L29.3849 181.966" stroke="#011A9D" stroke-miterlimit="10"/>
<path d="M285.984 131.171C285.984 131.171 279.409 135.264 279.484 137.06C279.558 138.857 277.032 171.614 276.744 175.707C276.457 179.801 272.631 188.252 272.334 192.091C272.036 195.929 272.984 199.777 274.089 201.544C275.194 203.312 279.252 208.966 279.252 208.966L290.163 191.807C290.43 188.06 290.486 184.301 290.33 180.548C290.163 172.37 285.984 131.171 285.984 131.171Z" fill="white" stroke="#263238" stroke-linecap="round" stroke-linejoin="round"/>
<path d="M327.966 50.001C327.966 50.001 316.359 49.2447 309.747 57.4411C303.135 65.6375 304.556 78.1731 304.51 82.0208C304.463 85.8685 293.237 97.1468 294.481 101.741C295.725 106.336 299.031 106.856 297.972 110.694C296.914 114.532 290.005 116.839 291.008 121.708C292.011 126.576 295.651 133.477 295.651 133.477L362.51 133.941C362.51 133.941 364.896 126.775 362.352 121.396C359.808 116.016 356.195 114.239 356.78 111.677C357.365 109.115 360.597 102.97 359.353 98.3663C358.108 93.7624 353.781 92.4861 353.326 84.2897C352.871 76.0933 351.682 62.5461 345.294 55.9285C338.905 49.3109 327.966 50.001 327.966 50.001Z" fill="#263238" stroke="#263238" stroke-linecap="round" stroke-linejoin="round"/>
<path d="M307.407 365.86C305.353 369.888 302.861 373.668 299.978 377.128C295.706 381.997 291.565 384.559 291.704 387.121C291.843 389.683 301.166 390.184 306.097 388.388C311.028 386.592 314.613 383.009 315.606 382.716C316.6 382.423 319.376 382.716 319.441 379.123C319.506 375.531 318.968 365.302 318.968 365.302L307.407 365.86Z" fill="white" stroke="#263238" stroke-linecap="round" stroke-linejoin="round"/>
<path d="M306.079 388.388C311.019 386.592 314.594 383.009 315.588 382.716C316.581 382.423 319.358 382.716 319.423 379.123C319.423 377.233 319.321 373.451 319.191 370.36C318.46 371.755 317.378 372.927 316.057 373.758C314.736 374.588 313.221 375.047 311.669 375.087C311.669 375.087 311.576 373.29 308.883 370.227C307.147 368.223 305.392 369.802 304.37 371.173L303.544 372.439L303.479 372.562C302.407 374.172 301.234 375.71 299.969 377.166C295.697 382.035 291.556 384.597 291.695 387.159C291.834 389.721 301.148 390.184 306.079 388.388Z" fill="white" stroke="#263238" stroke-linecap="round" stroke-linejoin="round"/>
<path d="M341.811 365.841C344.306 369.883 347.2 373.656 350.447 377.1C355.229 381.959 359.64 384.512 359.733 387.074C359.826 389.636 350.596 390.146 345.47 388.359C340.344 386.573 336.388 382.99 335.376 382.734C334.364 382.479 331.597 382.734 331.16 379.161C330.724 375.587 330.176 365.34 330.176 365.34L341.811 365.841Z" fill="white" stroke="#263238" stroke-linecap="round" stroke-linejoin="round"/>
<path d="M345.507 388.36C340.391 386.573 336.425 382.99 335.413 382.735C334.401 382.479 331.634 382.735 331.197 379.161C330.965 377.27 330.705 373.489 330.51 370.388C331.369 371.774 332.549 372.925 333.946 373.739C335.343 374.553 336.915 375.006 338.524 375.058C338.524 375.058 338.431 373.262 340.781 370.189C342.313 368.195 344.235 369.764 345.424 371.135C345.73 371.551 346.046 371.967 346.352 372.402L346.436 372.525C347.684 374.132 349.017 375.669 350.429 377.128C355.211 381.988 359.622 384.54 359.715 387.102C359.807 389.664 350.633 390.146 345.507 388.36Z" fill="white" stroke="#263238" stroke-linecap="round" stroke-linejoin="round"/>
<path d="M287.21 230.737C287.21 230.737 288.761 283.971 290.822 294.465C292.884 304.959 302.086 365.103 302.086 365.103C304.899 366.315 307.928 366.92 310.982 366.881H321.039L321.967 322.089L322.311 257.076L327.353 367.127C327.353 367.127 341.208 367.628 342.703 367.372C344.198 367.117 345.442 366.862 345.442 366.862L354.347 297.235L359.445 250.912L359.724 232.486C359.724 232.486 317.157 230.983 304.788 229.962C292.419 228.941 287.331 228.686 287.331 228.686L287.21 230.737Z" fill="#407BFF" stroke="#263238" stroke-linecap="round" stroke-linejoin="round"/>
<path d="M344.69 324.726C344.578 325.615 344.467 326.437 344.337 327.194" stroke="#263238" stroke-linecap="round" stroke-linejoin="round"/>
<path d="M345.832 260.64C345.832 260.64 346.695 298.568 345.182 319.158" stroke="#263238" stroke-linecap="round" stroke-linejoin="round"/>
<path d="M300.191 257.595C300.191 257.595 301.259 282.686 302.318 288.311" stroke="#263238" stroke-linecap="round" stroke-linejoin="round"/>
<path d="M339.87 241.609V260.763C342.28 261.423 344.745 261.857 347.234 262.058C351.05 262.313 358.173 262.058 358.173 262.058L358.683 254.807L339.87 241.609Z" fill="#263238" stroke="#263238" stroke-linecap="round" stroke-linejoin="round"/>
<path d="M287.999 256.357C287.999 256.357 297.666 259.467 301.733 259.722C305.8 259.978 309.607 260.498 309.607 260.498L309.106 255.326L287.488 253.256L287.999 256.357Z" fill="#263238" stroke="#263238" stroke-linecap="round" stroke-linejoin="round"/>
<path d="M317.342 110.93L309.756 119.637L288.714 135.264L293.199 229.981C293.199 229.981 309.969 234.576 324.363 235.852C338.756 237.128 357.263 233.772 357.263 233.772L354.542 134.508C354.542 134.508 346.352 122.218 342.155 118.9C337.957 115.581 336.035 112.509 330.473 111.998C324.911 111.488 317.342 110.93 317.342 110.93Z" fill="#407BFF" stroke="#263238" stroke-linecap="round" stroke-linejoin="round"/>
<path d="M308.539 115.591L285.984 131.218L289.522 188.801L288.324 194.586L278.843 205.704L282.882 225.235L281.081 252.793C281.081 252.793 290.042 255.866 296.115 256.622C300.636 257.115 305.18 257.371 309.728 257.388L310.508 219.762C310.508 219.762 313.507 157.301 313.86 154.531C314.213 151.761 317.342 111.044 317.342 111.044L308.539 115.591Z" fill="white" stroke="#263238" stroke-linecap="round" stroke-linejoin="round"/>
<path d="M308.902 117.945L297.981 145.824L309.765 150.806L298.641 152.867L308.493 192.166" stroke="#263238" stroke-linecap="round" stroke-linejoin="round"/>
<path d="M315.448 103.509C315.448 103.509 319.367 130.121 322.45 136.266C325.533 142.411 326.406 144.453 326.406 144.453C326.406 144.453 333.11 123.712 334.457 120.639C335.803 117.567 337.242 106.562 337.242 106.562C337.242 106.562 323.88 110.921 315.448 103.509Z" fill="white" stroke="#263238" stroke-linecap="round" stroke-linejoin="round"/>
<path d="M315.448 103.509C315.448 103.509 315.801 105.929 316.377 109.474C318.336 110.996 323.527 114.759 327.362 114.957C330.287 115.109 334.002 113.18 336.472 111.639C336.917 108.85 337.224 106.562 337.224 106.562C337.224 106.562 323.88 110.921 315.448 103.509Z" fill="#263238" stroke="#263238" stroke-linecap="round" stroke-linejoin="round"/>
<path d="M310.127 85.1122C310.127 85.1122 307.453 81.2362 305.652 85.1122C303.85 88.9882 308.437 94.7267 309.719 95.5113C313.359 97.714 312.393 93.6206 312.393 93.6206L310.127 85.1122Z" fill="white" stroke="#263238" stroke-linecap="round" stroke-linejoin="round"/>
<path d="M343.343 86.7854C343.343 86.7854 345.6 82.777 347.81 86.5585C350.02 90.34 346.036 96.2864 344.847 97.1278C341.449 99.5196 341.987 95.4166 341.987 95.4166L343.343 86.7854Z" fill="white" stroke="#263238" stroke-linecap="round" stroke-linejoin="round"/>
<path d="M309.496 81.6898C309.496 81.6898 319.191 79.3831 324.075 76.443C327.067 74.6034 329.676 72.185 331.755 69.3243C331.755 69.3243 335.952 77.3978 339.648 80.6688C343.343 83.9398 344.114 84.1289 344.114 84.1289C344.114 84.1289 342.341 98.2622 340.335 103.178C338.329 108.094 331.782 112.878 325.672 111.497C322.199 110.722 316.182 108.17 314.436 103.868C312.69 99.5668 309.496 81.6898 309.496 81.6898Z" fill="white" stroke="#263238" stroke-linecap="round" stroke-linejoin="round"/>
<path d="M334.234 92.5522C331.225 92.6278 321.15 92.6467 315.95 89.4513C313.865 88.216 311.914 86.7616 310.127 85.1121C310.313 86.0574 310.536 87.2392 310.777 88.4681L311.91 89.3095L314.752 100.238L313.424 100.531C313.704 101.648 314.042 102.75 314.436 103.83C316.182 108.132 322.199 110.684 325.672 111.46C331.773 112.83 338.301 108.075 340.325 103.169C339.848 102.215 339.707 101.124 339.926 100.077C340.511 96.986 341.235 91.569 341.235 91.569L343.306 89.6782C343.418 88.9881 343.51 88.3263 343.603 87.7213C341.096 89.4891 336.397 92.4954 334.234 92.5522Z" fill="#407BFF" stroke="#263238" stroke-linecap="round" stroke-linejoin="round"/>
<path d="M323.174 87.986C323.174 87.986 319.934 83.9777 315.681 84.3463" stroke="#263238" stroke-linecap="round" stroke-linejoin="round"/>
<path d="M331.522 88.7803C332.556 87.6734 333.841 86.8414 335.264 86.3569C336.687 85.8723 338.205 85.7501 339.685 86.0009" stroke="#263238" stroke-linecap="round" stroke-linejoin="round"/>
<path d="M313.814 82.3421C313.814 82.3421 318.457 80.4513 322.571 81.34" stroke="#263238" stroke-linecap="round" stroke-linejoin="round"/>
<path d="M331.903 82.3705C333.126 81.7342 334.512 81.4963 335.873 81.6891C337.233 81.8819 338.503 82.496 339.509 83.4482" stroke="#263238" stroke-linecap="round" stroke-linejoin="round"/>
<path d="M320.054 86.6721C320.075 86.8173 320.068 86.9654 320.032 87.1078C319.997 87.2502 319.934 87.3841 319.848 87.5018C319.762 87.6195 319.653 87.7187 319.529 87.7937C319.405 87.8687 319.268 87.918 319.125 87.9389C318.835 87.9056 318.568 87.761 318.378 87.5346C318.188 87.3081 318.09 87.0166 318.104 86.7193C318.082 86.5739 318.088 86.4253 318.123 86.2824C318.158 86.1396 318.22 86.0052 318.307 85.8872C318.393 85.7692 318.502 85.67 318.626 85.5954C318.751 85.5207 318.889 85.4721 319.032 85.4525C319.322 85.4879 319.588 85.6331 319.777 85.859C319.967 86.085 320.065 86.3753 320.054 86.6721Z" fill="#263238"/>
<path d="M336.871 87.9009C336.896 88.0467 336.892 88.1961 336.858 88.34C336.824 88.484 336.762 88.6194 336.675 88.738C336.588 88.8566 336.478 88.9559 336.352 89.0298C336.226 89.1037 336.087 89.1506 335.943 89.1677C335.653 89.1367 335.386 88.9941 335.196 88.7691C335.006 88.5442 334.908 88.2539 334.921 87.9576C334.896 87.8118 334.901 87.6624 334.934 87.5184C334.968 87.3745 335.03 87.2391 335.117 87.1205C335.204 87.0019 335.314 86.9026 335.44 86.8287C335.566 86.7548 335.705 86.7079 335.85 86.6908C336.14 86.7218 336.407 86.8644 336.597 87.0894C336.786 87.3143 336.885 87.6046 336.871 87.9009Z" fill="#263238"/>
<path d="M361.878 125.744C361.878 125.744 367.292 128.297 369.307 132.362C371.322 136.427 387.433 180.472 387.359 183.8C387.284 187.127 381.954 190.966 376.958 191.486C371.962 192.006 364.682 182.788 363.596 181.257C362.509 179.725 362.314 161.801 362.314 161.801L361.878 125.744Z" fill="white" stroke="#263238" stroke-linecap="round" stroke-linejoin="round"/>
<path d="M336.36 113.984L338.998 202.036L339.926 257.577C344.982 258.842 350.163 259.524 355.369 259.609C359.711 259.702 364.029 258.918 368.072 257.302C368.072 257.302 366.493 222.749 366.215 217.115C365.936 211.48 364.098 200.731 364.098 200.731L361.906 125.744C361.906 125.744 341.505 116.026 336.36 113.984Z" fill="white" stroke="#263238" stroke-linecap="round" stroke-linejoin="round"/>
<path d="M342.154 118.843L351.505 149.899L342.981 152.253L351.273 156.346L340.929 189.803" fill="white"/>
<path d="M342.154 118.843L351.505 149.899L342.981 152.253L351.273 156.346L340.929 189.803" stroke="#263238" stroke-linecap="round" stroke-linejoin="round"/>
<path d="M348.673 147.251L337.075 203.823C337.075 203.823 345.005 206.375 350.8 206.659C356.594 206.942 368.666 206.905 368.666 206.905L380.738 154.172C380.738 154.172 356.975 151.855 348.673 147.251Z" fill="#263238" stroke="#263238" stroke-linecap="round" stroke-linejoin="round"/>
<path d="M352.713 199.975L353.094 182.297L362.296 184.272C362.296 184.272 356.214 197.914 352.713 199.975Z" fill="white" stroke="#263238" stroke-linecap="round" stroke-linejoin="round"/>
<path d="M359.761 175.906C359.761 175.906 357.309 172.332 356.52 171.557C355.731 170.782 351.831 168.494 351.078 168.494C350.326 168.494 346.287 168.239 345.507 168.239C344.727 168.239 343.845 170.035 344.643 170.801C345.442 171.567 348.218 171.822 348.218 171.822L350.122 174.658L341.532 173.892C341.532 173.892 340.102 175.433 340.427 176.728C340.671 177.606 340.981 178.462 341.356 179.29C341.323 181.17 341.42 183.049 341.644 184.915C341.978 186.456 343.501 186.967 345.59 188.243C347.68 189.519 354.672 188.753 354.672 188.753H357.904L359.761 175.906Z" fill="white" stroke="#263238" stroke-linecap="round" stroke-linejoin="round"/>
<path d="M380.701 177.683L358.414 174.63C358.414 174.63 356.678 189.226 354.923 194.085C353.168 198.945 352.713 199.975 352.713 199.975C352.713 199.975 376.067 199.446 381.574 198.935C387.08 198.425 390.172 195.087 389.931 190.483C389.69 185.879 386.932 181.266 386.932 181.266" fill="white"/>
<path d="M380.701 177.683L358.414 174.63C358.414 174.63 356.678 189.226 354.923 194.085C353.168 198.945 352.713 199.975 352.713 199.975C352.713 199.975 376.067 199.446 381.574 198.935C387.08 198.425 390.172 195.087 389.931 190.483C389.69 185.879 386.932 181.266 386.932 181.266" stroke="#263238" stroke-linecap="round" stroke-linejoin="round"/>
<path d="M287.767 193.622C287.767 193.622 292.967 196.94 294.267 197.971C295.567 199.001 295.678 205.647 296.505 206.924C297.331 208.2 296.356 208.975 294.852 208.975C293.348 208.975 291.073 204.116 291.073 204.116L290.98 202.32L280.357 205.912L277.571 201.053C277.571 201.053 280.728 193.622 287.767 193.622Z" fill="white" stroke="#263238" stroke-linecap="round" stroke-linejoin="round"/>
<path d="M248.329 118.229C248.329 118.229 254.699 150.778 255.832 156.8C256.965 162.822 259.045 177.135 261.404 183.412C263.763 189.689 262.992 197.725 261.813 199.984C260.63 201.948 259.271 203.796 257.755 205.505L249.843 195.002C249.843 195.002 245.135 143.536 244.959 136.247C244.782 128.959 248.329 118.229 248.329 118.229Z" fill="white" stroke="#263238" stroke-linecap="round" stroke-linejoin="round"/>
<path d="M252.526 193.717C252.526 193.717 257.54 196.902 258.423 198.254C259.305 199.606 259.936 201.327 259.249 202.792C258.562 204.257 254.82 208.682 253.873 209.542C252.925 210.402 252.127 206.971 252.015 204.021C251.904 201.072 252.526 193.717 252.526 193.717Z" fill="white" stroke="#263238" stroke-linecap="round" stroke-linejoin="round"/>
<path d="M225.56 372.203C225.56 372.203 241.281 379.983 242.275 381.496C243.268 383.009 239.684 385.022 230.314 385.022C220.945 385.022 220.666 383.765 216.943 382.763C213.219 381.761 205.799 382.508 204.797 380.248C203.794 377.989 205.539 370.208 205.539 370.208L225.56 372.203Z" fill="white" stroke="#263238" stroke-linecap="round" stroke-linejoin="round"/>
<path d="M204.686 376.221C204.686 376.221 217.686 384.257 216.544 387.017C215.401 389.778 206.004 389.778 201.055 389.021C196.105 388.265 185.584 381.458 185.027 378.981C184.47 376.504 185.863 372.704 193.487 371.957C201.11 371.21 204.686 376.221 204.686 376.221Z" fill="white" stroke="#263238" stroke-linecap="round" stroke-linejoin="round"/>
<path d="M244.15 244.918C244.15 244.918 236.721 303.162 235.431 311.699C234.14 320.236 230.045 333.792 227.835 344.088C226.582 350.142 225.652 356.261 225.049 362.418C224.823 364.169 224.864 365.946 225.17 367.684C225.485 370.199 225.532 372.203 225.532 372.203C222.225 373.048 218.86 373.635 215.466 373.961C211.278 374.217 205.604 374.217 205.604 374.217L203.747 357.899C203.747 357.899 205.131 333.792 205.948 326.768C206.765 319.744 207.638 264.506 207.601 262.993C207.564 261.481 207.239 248.179 207.239 248.179L232.543 245.419C232.543 245.419 235.997 235.379 241.188 235.88C246.379 236.381 244.15 244.918 244.15 244.918Z" fill="white" stroke="#263238" stroke-linecap="round" stroke-linejoin="round"/>
<path d="M241.225 235.88C236.035 235.379 232.58 245.419 232.58 245.419L207.248 248.179C207.248 248.179 207.332 251.715 207.415 255.345C210.117 255.591 212.615 255.733 214.751 255.733C222.867 255.72 230.977 255.256 239.043 254.343L240.13 242.772L241.829 254.561L242.999 254.173C243.723 248.558 244.188 244.899 244.188 244.899C244.188 244.899 246.416 236.381 241.225 235.88Z" fill="#263238" stroke="#263238" stroke-linecap="round" stroke-linejoin="round"/>
<path d="M180.82 246.677C180.82 246.677 180.82 247.036 180.876 247.688C181.22 254.551 183.263 294.323 183.885 301.659C184.581 309.695 181.099 318.478 181.275 325.757C181.452 333.036 183.133 372.458 183.133 372.458L184.99 378.982C184.99 378.982 189.354 375.975 193.542 375.975C197.73 375.975 204.685 376.221 204.685 376.221C204.685 376.221 205.047 370.946 205.01 369.197C204.973 367.448 204.815 361.161 204.815 361.161C204.815 361.161 211.9 328.272 212.328 325.511C212.755 322.751 218.252 275.047 218.215 273.516C218.178 271.984 219.376 250.666 219.376 250.666L180.82 246.677Z" fill="white" stroke="#263238" stroke-linecap="round" stroke-linejoin="round"/>
<path d="M219.116 255.686C219.273 252.774 219.385 250.694 219.385 250.694L180.82 246.677C180.82 246.677 180.82 247.036 180.876 247.688C180.876 248.52 180.978 249.834 181.071 251.47C190.088 253.115 205.735 255.705 214.751 255.705C216.237 255.733 217.686 255.714 219.116 255.686Z" fill="#263238" stroke="#263238" stroke-linecap="round" stroke-linejoin="round"/>
<path d="M209.235 92.5237C209.235 92.5237 205.159 93.2232 203.608 95.0762C202.054 96.8785 200.656 98.8142 199.429 100.862C199.216 101.561 175.239 116.375 175.239 116.375L176.966 187.014C176.966 187.014 177.681 197.895 176.409 201.601C174.26 208.887 173.218 216.465 173.317 224.072C173.54 233.101 174.116 247.707 174.116 247.707C174.116 247.707 201.556 253.265 214.751 253.265C222.867 253.246 230.977 252.776 239.043 251.857L240.13 240.276L241.782 252.093L247.419 250.202L252.062 215.224C252.062 215.224 255.293 207.812 255.256 206.186C255.219 204.56 256.074 202.48 255.136 201.09C254.198 199.701 252.526 196.921 252.526 196.921C252.526 196.921 248.329 120.318 248.329 118.228C248.329 116.139 235.914 103.878 234.994 103.414C234.075 102.951 228.411 94.3766 221.065 92.0699C213.72 89.7632 209.235 92.5237 209.235 92.5237Z" fill="white" stroke="#263238" stroke-linecap="round" stroke-linejoin="round"/>
<path d="M201.76 103.178L199.012 128.618L210.303 133.959L207.481 142.591L235.719 193.111" stroke="#263238" stroke-linecap="round" stroke-linejoin="round"/>
<path d="M233.305 106.033L241.773 126.16L238.143 131.085L244.197 139.707L241.773 195.163" stroke="#263238" stroke-linecap="round" stroke-linejoin="round"/>
<path d="M208.186 96.0026C208.392 100.966 209.276 105.875 210.814 110.59C213.256 117.538 229.442 165.478 229.442 165.478L239.907 202.991C239.907 202.991 238.523 164.779 238.486 163.162C238.449 161.545 230.556 108.5 230.556 108.5C230.556 108.5 229.209 99.9354 227.083 96.6927C224.956 93.4501 210.703 87.4281 208.186 96.0026Z" fill="#407BFF" stroke="#263238" stroke-linecap="round" stroke-linejoin="round"/>
<path d="M207.183 92.2968C207.183 92.2968 200.6 92.9869 201.76 103.178C202.921 113.369 204.453 120.318 204.453 120.318" stroke="#263238" stroke-width="2" stroke-linecap="round" stroke-linejoin="round"/>
<path d="M203.645 133.751C203.645 133.751 206.431 145.559 208.334 148.802C210.238 152.044 215.995 155.287 220.09 155.287" stroke="#263238" stroke-linecap="round" stroke-linejoin="round"/>
<path d="M212.448 130.972C212.448 130.972 215.513 144.633 216.023 147.185C216.534 149.738 214.844 154.587 212.002 159.475" stroke="#263238" stroke-linecap="round" stroke-linejoin="round"/>
<path d="M211.185 161.092C210.893 160.928 210.676 160.653 210.582 160.327C210.488 160.001 210.525 159.651 210.684 159.352L211.009 158.747C211.089 158.603 211.196 158.476 211.325 158.374C211.454 158.272 211.601 158.197 211.759 158.154C211.916 158.111 212.08 158.1 212.242 158.123C212.403 158.145 212.559 158.2 212.699 158.284C212.991 158.448 213.208 158.722 213.304 159.047C213.399 159.373 213.366 159.723 213.21 160.023L212.885 160.619C212.805 160.765 212.697 160.893 212.568 160.995C212.439 161.098 212.291 161.174 212.132 161.218C211.974 161.262 211.809 161.273 211.646 161.252C211.484 161.23 211.327 161.176 211.185 161.092Z" fill="#263238"/>
<path d="M221.613 155.542C221.613 155.709 221.581 155.874 221.517 156.027C221.453 156.181 221.359 156.32 221.241 156.435C221.123 156.551 220.983 156.641 220.83 156.7C220.677 156.76 220.514 156.787 220.35 156.781H219.673C219.338 156.773 219.021 156.632 218.788 156.388C218.555 156.144 218.426 155.816 218.428 155.476C218.427 155.31 218.459 155.145 218.522 154.992C218.585 154.838 218.678 154.7 218.795 154.584C218.912 154.468 219.051 154.378 219.203 154.318C219.356 154.259 219.519 154.231 219.682 154.238H220.36C220.694 154.248 221.011 154.389 221.245 154.632C221.479 154.876 221.611 155.202 221.613 155.542Z" fill="#263238"/>
<path d="M203.664 134.678L202.104 124.61C201.93 123.572 202.151 122.505 202.722 121.627C203.293 120.749 204.171 120.125 205.178 119.883V119.883C206.262 119.632 207.401 119.818 208.353 120.404C209.305 120.989 209.998 121.927 210.285 123.022L212.95 133.043" stroke="#263238" stroke-width="2" stroke-linecap="round" stroke-linejoin="round"/>
<path d="M240.37 141.482C242.605 141.255 244.208 138.943 243.95 136.319C243.691 133.696 241.67 131.754 239.435 131.982C237.2 132.21 235.597 134.521 235.856 137.145C236.114 139.768 238.135 141.71 240.37 141.482Z" fill="white" stroke="#263238" stroke-linecap="round" stroke-linejoin="round"/>
<path d="M228.949 96.5415C228.949 96.5415 237.892 109.351 240.742 135.463" stroke="#263238" stroke-width="2" stroke-linecap="round" stroke-linejoin="round"/>
<path d="M240.98 138.486C242.201 138.37 243.083 137.101 242.95 135.65C242.818 134.2 241.721 133.118 240.501 133.233C239.28 133.349 238.398 134.618 238.531 136.069C238.663 137.519 239.76 138.601 240.98 138.486Z" fill="white" stroke="#263238" stroke-linecap="round" stroke-linejoin="round"/>
<path d="M254.049 195.711C253.501 197.442 253.051 199.203 252.703 200.987C252.703 201.743 252.526 204.002 250.79 203.492C249.053 202.981 249.573 193.953 249.796 192.951C250.019 191.949 254.244 195.191 254.244 195.191" fill="white"/>
<path d="M254.049 195.711C253.501 197.442 253.051 199.203 252.703 200.987C252.703 201.743 252.526 204.002 250.79 203.492C249.053 202.981 249.573 193.953 249.796 192.951C250.019 191.949 254.244 195.191 254.244 195.191" stroke="#263238" stroke-linecap="round" stroke-linejoin="round"/>
<path d="M197.684 187.713C199.228 188.579 200.954 189.056 202.717 189.103C205.447 189.103 210.433 188.158 212.263 188.64C214.092 189.122 218.763 195.116 218.763 195.116C218.763 195.116 220.156 196.505 219.496 197.205C218.837 197.904 217.491 199.096 216.562 198.358C215.633 197.621 210.99 193.726 210.99 193.726L199.281 198.595L194.471 196.042L197.684 187.713Z" fill="white" stroke="#263238" stroke-linecap="round" stroke-linejoin="round"/>
<path d="M179.752 114.759C179.752 114.759 172.036 115.704 170.726 117.765C169.417 119.826 148.273 167.095 148.319 169.184C148.366 171.273 190.598 205.108 190.598 205.108L199.717 187.439L176.902 165.903L186.8 142.515" fill="white"/>
<path d="M179.752 114.759C179.752 114.759 172.036 115.704 170.726 117.765C169.417 119.826 148.273 167.095 148.319 169.184C148.366 171.273 190.598 205.108 190.598 205.108L199.717 187.439L176.902 165.903L186.8 142.515" stroke="#263238" stroke-linecap="round" stroke-linejoin="round"/>
<path d="M193.988 213.645L216.293 214.108L216.181 199.984" stroke="#263238" stroke-linecap="round" stroke-linejoin="round"/>
<path d="M199.309 198.595L193.412 200.835" stroke="#263238" stroke-linecap="round" stroke-linejoin="round"/>
<path d="M206.032 82.3327C206.032 82.3327 208.567 102.488 210.238 105.494C211.91 108.501 223.796 120.545 223.796 120.545C223.796 120.545 227.51 106.657 227.928 103.414C228.346 100.172 228.671 87.2013 228.671 87.2013L205.985 80.7161L206.032 82.3327Z" fill="white" stroke="#263238" stroke-linecap="round" stroke-linejoin="round"/>
<path d="M206.032 82.3327C206.032 82.3327 206.329 84.6961 206.784 87.9198C208.562 89.6054 210.593 90.9905 212.801 92.0227C215.726 93.3368 223.527 94.0742 228.457 93.4881C228.587 90.0942 228.671 87.2013 228.671 87.2013L205.985 80.7161L206.032 82.3327Z" fill="#263238" stroke="#263238" stroke-linecap="round" stroke-linejoin="round"/>
<path d="M199.457 64.7391C199.457 64.7391 196.421 61.4965 194.916 65.1929C193.412 68.8893 196.773 74.4576 198.566 74.6939C199.629 74.8351 200.71 74.7547 201.741 74.4576C201.741 74.4576 203.014 79.7895 204.184 81.4061C206.486 84.3704 209.437 86.7465 212.801 88.3451C216.943 90.2359 230.806 90.9071 232.562 88.3451C234.317 85.7831 234.214 72.132 234.187 70.9786C234.159 69.8253 233.964 53.319 233.964 53.319C233.964 53.319 235.208 47.5901 233.518 43.6479C231.828 39.7057 214.863 34.1941 210.6 36.4725C206.338 38.7508 201.426 42.7214 201.091 47.817C200.757 52.9125 200.961 61.2507 200.961 61.2507L199.457 64.7391Z" fill="white" stroke="#263238" stroke-linecap="round" stroke-linejoin="round"/>
<path d="M224.53 57.5542C224.53 57.5542 227.362 70.7894 226.712 72.3777C226.062 73.9659 224.028 73.9942 221.484 72.6045C218.939 71.2148 220.267 69.3619 220.267 69.3619" stroke="#263238" stroke-linecap="round" stroke-linejoin="round"/>
<path d="M214.667 72.8411C214.667 72.8411 215.893 76.3106 218.168 76.5469C220.443 76.7833 226.154 77.237 226.154 77.237" stroke="#263238" stroke-linecap="round" stroke-linejoin="round"/>
<path d="M206.542 58.0176L206.904 63.5764C206.904 63.5764 208.984 64.7392 213.757 64.7392C218.53 64.7392 220.099 63.5764 220.099 63.5764L219.969 58.0176C219.969 58.0176 213.042 53.8485 206.542 58.0176Z" stroke="#263238" stroke-linecap="round" stroke-linejoin="round"/>
<path d="M224.548 58.0176L226.275 63.8127C226.275 63.8127 226.981 64.7581 231.763 64.7581C236.545 64.7581 238.115 63.5953 238.115 63.5953L237.975 58.0365C237.975 58.0365 231.039 53.8485 224.548 58.0176Z" stroke="#263238" stroke-linecap="round" stroke-linejoin="round"/>
<path d="M219.998 58.0175H224.548" stroke="#263238" stroke-linecap="round" stroke-linejoin="round"/>
<path d="M206.57 58.0175L197.6 63.3494" stroke="#263238" stroke-linecap="round" stroke-linejoin="round"/>
<path d="M208.78 55.2382C208.78 55.2382 211.213 52.4588 216.729 54.7749" stroke="#263238" stroke-linecap="round" stroke-linejoin="round"/>
<path d="M225.384 55.2381C226.203 54.569 227.191 54.1492 228.234 54.0271C229.278 53.905 230.334 54.0856 231.28 54.548" stroke="#263238" stroke-linecap="round" stroke-linejoin="round"/>
<path d="M214.593 60.5701C214.593 61.5911 214.231 62.4608 213.729 62.4608C213.228 62.4608 212.801 61.6289 212.801 60.5701C212.801 59.5112 213.163 58.6793 213.674 58.6793C214.184 58.6793 214.574 59.5396 214.593 60.5701Z" fill="#263238"/>
<path d="M229.154 60.3336C229.154 61.3546 228.791 62.2244 228.29 62.2244C227.788 62.2244 227.361 61.3924 227.361 60.3336C227.361 59.2748 227.723 58.4429 228.225 58.4429C228.726 58.4429 229.126 59.3126 229.154 60.3336Z" fill="#263238"/>
<path d="M213.572 38.9117C213.572 38.9117 215.763 43.8371 213.043 45.6333C212.203 46.1279 211.25 46.3884 210.28 46.3884C209.31 46.3884 208.357 46.1279 207.517 45.6333C208.241 46.6505 208.645 47.8669 208.676 49.1223C208.708 50.3777 208.365 51.6134 207.694 52.6669C206.36 54.9293 204.804 57.0483 203.051 58.9914C203.051 58.9914 203.543 64.9756 202.522 65.6752C201.5 66.3748 198.714 65.3254 198.668 63.567C198.621 61.8086 197.507 58.2919 197.461 56.5335C197.414 54.7751 196.616 50.1995 196.616 50.1995C196.616 50.1995 189.633 47.0325 193.338 43.1659C197.043 39.2993 204.908 36.1323 204.908 36.1323C204.908 36.1323 205.084 29.0987 209.867 26.9905C214.649 24.8824 224.938 21.7154 225.021 25.2321C225.152 27.042 224.833 28.8563 224.093 30.5073C224.093 30.5073 232.719 30.1575 238.737 36.1796C244.754 42.2016 244.55 47.7888 241.439 47.7888C238.328 47.7888 237.316 48.4883 237.316 48.4883C237.316 48.4883 243.268 52.0051 240.204 53.7635C237.14 55.5219 233.982 53.4137 233.982 53.4137C233.982 53.4137 235.301 50.9558 231.419 47.7415C227.538 44.5272 213.572 38.9117 213.572 38.9117Z" fill="#263238" stroke="#263238" stroke-linecap="round" stroke-linejoin="round"/>
<path d="M127.742 152.583V161.621L140.649 167.643C140.649 167.643 141.996 161.621 140.918 150.938L127.742 152.583Z" fill="#999999" stroke="#263238" stroke-linecap="round" stroke-linejoin="round"/>
<path d="M63.6783 369.461C60.7239 372.043 57.9326 374.812 55.3209 377.752C51.6065 382.016 50.8822 386.261 54.3366 388.293C57.791 390.326 63.214 389.796 69.1291 386.034C75.0443 382.271 74.8029 380.759 78.2572 379.511C81.7116 378.263 83.931 375.729 83.931 371.721C83.931 367.712 71.3485 367.202 68.637 366.994C65.9255 366.786 63.6783 369.461 63.6783 369.461Z" fill="white" stroke="#263238" stroke-linecap="round" stroke-linejoin="round"/>
<path d="M83.9026 371.721C83.9026 371.721 78.331 374.235 75.6288 376.523C72.9266 378.811 67.5407 387.045 61.2448 387.045C58.0387 387.048 54.8857 386.211 52.0889 384.616C52.093 385.377 52.3021 386.122 52.6934 386.77C53.0847 387.419 53.6432 387.945 54.3082 388.293C57.7626 390.297 63.1856 389.796 69.1007 386.034C75.0159 382.271 74.7745 380.758 78.2288 379.511C81.6832 378.263 83.9026 375.739 83.9026 371.721Z" stroke="#263238" stroke-linecap="round" stroke-linejoin="round"/>
<path d="M126.256 369.461C129.21 372.043 132.001 374.812 134.613 377.752C138.327 382.016 139.052 386.261 135.597 388.293C132.143 390.326 126.72 389.796 120.805 386.034C114.89 382.271 115.131 380.759 111.677 379.511C108.222 378.263 106.003 375.729 106.003 371.721C106.003 367.712 118.585 367.202 121.297 366.994C124.008 366.786 126.256 369.461 126.256 369.461Z" fill="white" stroke="#263238" stroke-linecap="round" stroke-linejoin="round"/>
<path d="M106.031 371.721C106.031 371.721 111.603 374.235 114.305 376.523C117.007 378.811 122.393 387.045 128.689 387.045C131.895 387.048 135.048 386.211 137.845 384.616C137.841 385.377 137.632 386.122 137.24 386.77C136.849 387.419 136.291 387.945 135.626 388.293C132.171 390.297 126.748 389.796 120.833 386.034C114.918 382.271 115.159 380.758 111.705 379.511C108.251 378.263 106.031 375.739 106.031 371.721Z" stroke="#263238" stroke-linecap="round" stroke-linejoin="round"/>
<path d="M56.5273 226.861C56.5273 226.861 58.0038 283.347 58.7467 291.638C59.4896 299.929 61.6811 318.752 61.6811 319.791C61.6811 320.831 62.9068 362.475 62.9068 362.475L60.6875 366.257L61.4303 371.532L71.292 373.536C76.2229 374.538 82.6395 376.051 83.6238 375.049C84.6081 374.046 84.8588 372.033 85.351 369.272C85.8431 366.512 86.8274 361.482 85.8431 357.474C84.8588 353.466 87.0782 310.773 87.3289 309.771C87.5796 308.768 93.2533 267.531 93.2533 267.531C93.2533 267.531 96.9677 301.432 99.6606 311.718C102.354 322.004 101.388 337.328 102.372 343.35C103.356 349.372 105.334 369.717 105.585 371.22C105.836 372.723 106.319 375.001 106.319 375.001C106.319 375.001 118.65 373.243 120.87 372.231C123.12 371.387 125.429 370.717 127.778 370.227C127.778 370.227 128.512 355.914 127.528 350.138C126.811 346.079 126.398 341.971 126.293 337.848C126.293 336.09 127.528 280.36 127.528 280.36L126.293 226.379C126.293 226.379 93.0026 229.896 80.1787 227.381C67.3548 224.867 56.7781 223.363 56.7781 223.363L56.5273 226.861Z" fill="#407BFF" stroke="#263238" stroke-linecap="round" stroke-linejoin="round"/>
<path d="M80.1973 227.362C67.3733 224.857 56.7781 223.363 56.7781 223.363L56.5273 226.871C56.5273 226.871 56.6109 230.113 56.7502 235.143C62.6282 236.816 74.57 239.756 86.1124 239.756C98.3142 239.756 117.75 235.975 126.497 234.169L126.311 226.37C126.311 226.37 93.0212 229.877 80.1973 227.362Z" fill="#263238" stroke="#263238" stroke-linecap="round" stroke-linejoin="round"/>
<path d="M123.034 354.572C123.192 356.302 123.294 357.295 123.294 357.295" stroke="#263238" stroke-linecap="round" stroke-linejoin="round"/>
<path d="M119.254 240.115C119.254 240.115 120.183 288.632 120.183 306.944C120.183 319.612 121.687 338.841 122.616 349.486" stroke="#263238" stroke-linecap="round" stroke-linejoin="round"/>
<path d="M69.3423 237.374L71.5895 290.012" stroke="#263238" stroke-linecap="round" stroke-linejoin="round"/>
<path d="M71.1348 294.124V302.822" stroke="#263238" stroke-linecap="round" stroke-linejoin="round"/>
<path d="M82.8259 94.2631C81.6117 94.2697 80.4166 94.5707 79.3395 95.1412C78.2624 95.7117 77.3343 96.5352 76.6321 97.5436C75.0964 99.6065 73.3876 101.53 71.5249 103.291L49.4707 115.345L51.625 201.053L52.4329 230.359C52.4329 230.359 69.3705 236.107 85.5095 236.107C101.649 236.107 130.426 229.489 130.426 229.489C130.426 229.489 128.011 115.307 128.819 115.307C129.627 115.307 112.95 100.559 105.419 96.6833C97.8877 92.8073 82.8259 94.2631 82.8259 94.2631Z" fill="#407BFF" stroke="#263238" stroke-linecap="round" stroke-linejoin="round"/>
<path d="M76.5391 104.625C76.5391 104.625 85.0821 120.649 88.6851 127.975C92.2881 135.302 99.0111 145.843 99.0111 145.843L110.256 115.175" stroke="#263238" stroke-linecap="round" stroke-linejoin="round"/>
<path d="M82.8535 206.261L82.4171 193.47L57.0386 191.967C57.0386 191.967 57.2893 210.799 57.7815 211.82" stroke="#263238" stroke-linecap="round" stroke-linejoin="round"/>
<path d="M83.1598 215.318L83.0391 211.726" stroke="#263238" stroke-linecap="round" stroke-linejoin="round"/>
<path d="M113.246 213.305L112.503 192.223C112.503 192.223 121.381 192.97 128.782 187.95" stroke="#263238" stroke-linecap="round" stroke-linejoin="round"/>
<path d="M75.1928 141.986C75.9729 144.491 78.3501 145.966 80.4951 145.266C82.6402 144.567 83.7266 141.967 82.9373 139.462C82.148 136.956 79.7801 135.482 77.635 136.181C75.49 136.881 74.4035 139.48 75.1928 141.986Z" stroke="#263238" stroke-linecap="round" stroke-linejoin="round"/>
<path d="M75.4432 98.1204C75.4432 98.1204 72.5924 109.276 79.074 139.556" stroke="#263238" stroke-width="2" stroke-linecap="round" stroke-linejoin="round"/>
<path d="M81.0704 140.596C80.8794 140.988 80.5817 141.316 80.2129 141.542C79.8441 141.767 79.4195 141.879 78.9897 141.866C78.5598 141.853 78.1427 141.715 77.7878 141.467C77.4329 141.22 77.1552 140.874 76.9877 140.471C76.8201 140.068 76.7697 139.624 76.8425 139.192C76.9152 138.761 77.1081 138.36 77.3981 138.036C77.6882 137.713 78.0632 137.481 78.4788 137.369C78.8944 137.256 79.333 137.267 79.7426 137.401C80.3325 137.648 80.8027 138.122 81.0513 138.721C81.2999 139.319 81.3068 139.993 81.0704 140.596V140.596Z" stroke="#263238" stroke-linecap="round" stroke-linejoin="round"/>
<path d="M127.742 113.7C127.742 113.7 131.772 116.716 132.041 117.812C132.31 118.909 146.026 152.309 146.026 152.309L126.126 155.296L126.395 135.576" fill="#407BFF"/>
<path d="M127.742 113.7C127.742 113.7 131.772 116.716 132.041 117.812C132.31 118.909 146.026 152.309 146.026 152.309L126.126 155.296L126.395 135.576" stroke="#263238" stroke-linecap="round" stroke-linejoin="round"/>
<path d="M52.1634 114.248C52.1634 114.248 47.5854 114.797 46.5082 118.351C45.4311 121.906 37.6401 158.057 37.6401 158.057L66.148 155.296L63.4551 128.183" fill="#407BFF"/>
<path d="M52.1634 114.248C52.1634 114.248 47.5854 114.797 46.5082 118.351C45.4311 121.906 37.6401 158.057 37.6401 158.057L66.148 155.296L63.4551 128.183" stroke="#263238" stroke-linecap="round" stroke-linejoin="round"/>
<path d="M107.229 96.4185C107.229 96.4185 114.296 100.521 114.992 110.731C115.689 120.941 114.992 123.532 114.992 123.532" stroke="#263238" stroke-width="2" stroke-linecap="round" stroke-linejoin="round"/>
<path d="M118.186 136.606C118.186 136.606 117.555 148.679 116.264 152.167C114.973 155.656 109.866 159.787 105.817 160.449" stroke="#263238" stroke-linecap="round" stroke-linejoin="round"/>
<path d="M109.04 135.302C109.04 135.302 108.474 149.227 108.418 151.818C108.362 154.408 110.925 158.917 114.602 163.238" stroke="#263238" stroke-linecap="round" stroke-linejoin="round"/>
<path d="M115.656 164.754L115.765 164.665C116.271 164.248 116.348 163.491 115.938 162.976L115.417 162.323C115.007 161.808 114.264 161.729 113.759 162.147L113.65 162.236C113.144 162.654 113.067 163.41 113.477 163.925L113.998 164.578C114.408 165.093 115.151 165.172 115.656 164.754Z" fill="#263238"/>
<path d="M104.364 160.89L104.39 161.029C104.511 161.681 105.128 162.109 105.768 161.985L106.58 161.829C107.22 161.705 107.64 161.077 107.519 160.426L107.493 160.286C107.372 159.635 106.755 159.207 106.115 159.33L105.303 159.487C104.663 159.61 104.243 160.239 104.364 160.89Z" fill="#263238"/>
<path d="M118.326 137.523L118.056 127.38C118.031 126.321 117.62 125.311 116.902 124.545C116.184 123.78 115.212 123.314 114.175 123.239V123.239C113.073 123.155 111.984 123.519 111.146 124.251C110.307 124.982 109.787 126.022 109.699 127.143L108.863 137.429" stroke="#263238" stroke-width="2" stroke-linecap="round" stroke-linejoin="round"/>
<path d="M141.457 160.799L135.04 159.428L112.447 155.599L80.7638 149.454L73.2515 146.079C73.2515 146.079 66.1477 136.625 65.5348 135.68C64.922 134.735 56.8896 138.034 57.1775 139.291C57.4653 140.549 58.4125 153.113 59.0347 153.907C59.6568 154.701 66.5934 154.691 66.5934 154.691C66.5934 154.691 99.6886 170.952 101.063 171.547C120.164 179.744 129.376 179.668 132.635 180.207C135.895 180.746 138.021 179.403 139.897 177.21C141.773 175.017 141.457 160.799 141.457 160.799Z" fill="#999999" stroke="#263238" stroke-linecap="round" stroke-linejoin="round"/>
<path d="M64.5695 135.547C64.5695 135.547 60.7158 135.708 55.005 139.631C52.8785 141.097 51.7642 142.146 51.7642 142.78C51.8859 143.533 52.0947 144.269 52.3863 144.973C56.0889 143.158 59.9664 141.738 63.9566 140.738" fill="#999999"/>
<path d="M64.5695 135.547C64.5695 135.547 60.7158 135.708 55.005 139.631C52.8785 141.097 51.7642 142.146 51.7642 142.78C51.8859 143.533 52.0947 144.269 52.3863 144.973C56.0889 143.158 59.9664 141.738 63.9566 140.738" stroke="#263238" stroke-linecap="round" stroke-linejoin="round"/>
<path d="M66.1108 145.606C66.1108 145.606 55.627 148.272 53.9276 148.594C52.2283 148.915 51.9219 147.176 51.9219 146.552C51.9219 145.928 52.3862 144.973 54.2341 144.037C56.082 143.101 65.3772 140.577 65.3772 140.577" fill="#999999"/>
<path d="M66.1108 145.606C66.1108 145.606 55.627 148.272 53.9276 148.594C52.2283 148.915 51.9219 147.176 51.9219 146.552C51.9219 145.928 52.3862 144.973 54.2341 144.037C56.082 143.101 65.3772 140.577 65.3772 140.577" stroke="#263238" stroke-linecap="round" stroke-linejoin="round"/>
<path d="M67.1975 150.475C67.1975 150.475 55.0051 151.732 54.0765 150.948C53.7923 150.633 53.5768 150.26 53.444 149.855C53.3112 149.449 53.264 149.019 53.3057 148.594L64.2632 146.23" fill="#999999"/>
<path d="M67.1975 150.475C67.1975 150.475 55.0051 151.732 54.0765 150.948C53.7923 150.633 53.5768 150.26 53.444 149.855C53.3112 149.449 53.264 149.019 53.3057 148.594L64.2632 146.23" stroke="#263238" stroke-linecap="round" stroke-linejoin="round"/>
<path d="M63.7983 151.099L54.3916 151.572C54.3916 151.572 54.8466 152.99 55.3202 153.141C57.5487 153.702 59.8193 154.072 62.1082 154.247C63.6092 154.297 65.1049 154.455 66.5841 154.72" fill="#999999"/>
<path d="M63.7983 151.099L54.3916 151.572C54.3916 151.572 54.8466 152.99 55.3202 153.141C57.5487 153.702 59.8193 154.072 62.1082 154.247C63.6092 154.297 65.1049 154.455 66.5841 154.72" stroke="#263238" stroke-linecap="round" stroke-linejoin="round"/>
<path d="M43.5552 157.509C43.5552 157.509 47.8546 176.416 48.9317 177.777C50.0089 179.139 58.8863 177.777 67.7637 175.036C76.641 172.294 114.296 155.873 114.296 155.873L119.672 156.96C119.672 156.96 117.518 150.116 113.757 149.842C109.996 149.567 66.1479 155.296 66.1479 155.296L43.5552 157.509Z" fill="#999999" stroke="#263238" stroke-linecap="round" stroke-linejoin="round"/>
<path d="M81.1816 82.2097C81.1816 82.2097 81.1816 82.6162 81.1816 83.3064C81.2652 86.9082 81.6088 98.3472 82.5095 101.108C83.5867 104.388 98.1099 132.05 99.2243 129.857C100.339 127.663 107.024 97.8178 107.024 97.8178V86.0479C107.024 86.0479 103.524 89.0542 97.0699 89.0542C90.6162 89.0542 81.1816 82.2097 81.1816 82.2097Z" fill="#999999" stroke="#263238" stroke-linecap="round" stroke-linejoin="round"/>
<path d="M102.725 98.4323C104.231 97.496 105.671 96.4536 107.034 95.3126V86.0479C107.034 86.0479 103.533 89.0542 97.0792 89.0542C90.6255 89.0542 81.1816 82.2097 81.1816 82.2097C81.1816 82.2097 81.1816 82.6162 81.1816 83.3064C81.1816 84.5732 81.2745 86.8137 81.3859 89.3095C81.6406 89.725 81.9262 90.1201 82.2402 90.4912C84.0974 92.675 92.9934 98.1582 95.1477 98.7065C97.3021 99.2548 100.301 99.7937 102.725 98.4323Z" fill="#263238" stroke="#263238" stroke-linecap="round" stroke-linejoin="round"/>
<path d="M113.488 66.3273C113.488 66.3273 117.787 63.8599 117.787 68.5206C117.787 73.1812 113.757 78.655 113.757 78.655L113.488 66.3273Z" fill="#999999" stroke="#263238" stroke-linecap="round" stroke-linejoin="round"/>
<path d="M75.0255 66.6017C75.0255 66.6017 69.1011 64.9567 69.1011 70.4399C69.1011 75.9231 74.4869 79.4682 74.4869 79.4682H78.2013C78.2013 79.4682 80.3557 84.9514 82.2407 87.1352C84.1258 89.319 92.9938 94.8022 95.1482 95.3505C97.3025 95.8988 100.255 96.4471 102.679 95.0763C105.724 93.1438 108.53 90.8459 111.036 88.2318C112.114 86.8705 113.999 77.5586 113.999 77.5586C113.999 77.5586 114.537 60.8538 113.46 55.1059C112.383 49.3581 105.391 40.3203 95.7053 39.2237C86.0201 38.127 76.8734 46.0682 75.5362 52.3644C74.1991 58.6605 75.0255 66.6017 75.0255 66.6017Z" fill="#999999" stroke="#263238" stroke-linecap="round" stroke-linejoin="round"/>
<path d="M92.5012 70.9882C92.5012 70.9882 90.644 74.8169 93.8477 75.9136C97.0513 77.0102 101.109 76.736 101.917 75.0911C102.725 73.4461 101.379 71.5365 101.379 71.5365" stroke="#263238" stroke-linecap="round" stroke-linejoin="round"/>
<path d="M89.2793 77.8325C89.2793 77.8325 96.0023 83.5804 105.149 78.1067" stroke="#263238" stroke-linecap="round" stroke-linejoin="round"/>
<path d="M93.04 83.0321C93.04 83.0321 98.6952 86.322 102.456 82.4838" stroke="#263238" stroke-linecap="round" stroke-linejoin="round"/>
<path d="M89.8181 67.6982C90.5618 67.6982 91.1646 66.7162 91.1646 65.5049C91.1646 64.2936 90.5618 63.3116 89.8181 63.3116C89.0745 63.3116 88.4717 64.2936 88.4717 65.5049C88.4717 66.7162 89.0745 67.6982 89.8181 67.6982Z" fill="#263238"/>
<path d="M104.341 65.2307C104.341 66.4408 103.738 67.424 102.995 67.424C102.252 67.424 101.648 66.4786 101.648 65.2307C101.648 63.9828 102.252 63.0469 102.995 63.0469C103.738 63.0469 104.341 64.0206 104.341 65.2307Z" fill="#263238"/>
<path d="M86.0479 62.4986C86.0479 62.4986 87.3943 60.3053 92.548 61.1278" stroke="#263238" stroke-linecap="round" stroke-linejoin="round"/>
<path d="M100.84 61.402C100.84 61.402 103.264 57.5638 107.034 61.402" stroke="#263238" stroke-linecap="round" stroke-linejoin="round"/>
<path d="M113.488 55.0868C113.138 53.4607 112.533 51.9029 111.696 50.4734C111.382 51.9891 111.273 53.5411 111.371 55.0868C111.761 57.091 113.144 59.8893 113.144 61.2885C113.144 62.6876 112.94 68.2937 113.924 67.4996C114.022 67.3946 114.1 67.273 114.156 67.1403C114.218 63.1114 113.994 59.0831 113.488 55.0868Z" fill="#263238" stroke="#263238" stroke-linecap="round" stroke-linejoin="round"/>
<path d="M99.9677 43.7423C101.695 43.6491 103.413 43.4375 105.112 43.1089C102.369 41.0179 99.1351 39.6946 95.7333 39.2707C86.0481 38.174 76.9014 46.1152 75.5642 52.4113C74.2271 58.7075 75.0257 66.6487 75.0257 66.6487C75.0257 66.6487 77.1614 68.1613 77.9507 66.5636C78.74 64.9659 77.9507 62.3567 78.74 59.5584C79.5294 56.7601 80.6994 55.3515 80.8944 53.1487C81.0894 50.946 79.7151 47.7507 80.5044 45.945C81.2937 44.1393 86.206 40.7454 89.3539 41.9461C92.7407 43.252 96.348 43.8625 99.9677 43.7423Z" fill="#263238" stroke="#263238" stroke-linecap="round" stroke-linejoin="round"/>
</svg>
