<svg width="297" height="66" viewBox="0 0 297 66" fill="none" xmlns="http://www.w3.org/2000/svg">
<path d="M49.088 2.48H44.096L27.136 30.128L10.176 2.48H5.184V46H12.096L11.968 17.456L25.024 38.64H29.312L42.24 17.648V46H49.088V2.48ZM72.9365 15.152C63.7845 15.152 57.4485 22.064 57.4485 30.96C57.4485 39.92 63.8485 46.768 73.3205 46.768C79.8485 46.768 85.1605 43.568 87.0805 38.128H79.7845C78.5685 40.048 76.3285 40.944 73.3845 40.944C67.7525 40.944 64.8725 37.488 64.2325 32.944H87.8485C89.1285 22.768 82.9205 15.152 72.9365 15.152ZM73.0005 20.784C77.6725 20.784 80.8725 23.408 81.2565 28.336H64.3605C65.1285 24.112 68.0085 20.784 73.0005 20.784ZM119.157 0.559998V18.288C116.597 16.304 113.333 15.152 109.493 15.152C101.045 15.152 94.261 22.192 94.261 30.896C94.261 39.728 101.045 46.768 109.493 46.768C113.333 46.768 116.597 45.616 119.157 43.568V46H125.749V0.559998H119.157ZM110.453 40.752C104.949 40.752 100.917 36.272 100.917 30.896C100.917 25.584 104.949 21.168 110.453 21.168C113.781 21.168 116.917 22.32 119.157 25.52V36.336C116.917 39.6 113.781 40.752 110.453 40.752ZM134.983 0.559998V46H141.639V0.559998H134.983ZM165.136 15.152C155.792 15.152 149.136 21.744 149.136 30.96C149.136 40.176 155.792 46.768 165.136 46.768C174.48 46.768 181.136 40.176 181.136 30.96C181.136 21.744 174.48 15.152 165.136 15.152ZM165.136 40.752C159.696 40.752 155.792 36.592 155.792 30.96C155.792 25.264 159.696 21.168 165.136 21.168C170.576 21.168 174.48 25.264 174.48 30.96C174.48 36.592 170.576 40.752 165.136 40.752ZM203.386 15.152C194.042 15.152 187.386 21.744 187.386 30.96C187.386 40.176 194.042 46.768 203.386 46.768C212.73 46.768 219.386 40.176 219.386 30.96C219.386 21.744 212.73 15.152 203.386 15.152ZM203.386 40.752C197.946 40.752 194.042 36.592 194.042 30.96C194.042 25.264 197.946 21.168 203.386 21.168C208.826 21.168 212.73 25.264 212.73 30.96C212.73 36.592 208.826 40.752 203.386 40.752ZM248.938 15.92V36.016C246.506 39.088 243.434 40.752 240.49 40.752C235.69 40.752 232.682 37.68 232.682 32.176V15.92H226.09V32.56C226.09 41.2 231.338 46.768 239.146 46.768C243.05 46.768 246.314 45.424 248.938 43.056V46H255.53V15.92H248.938ZM278.749 15.152C269.597 15.152 263.261 22.064 263.261 30.96C263.261 39.92 269.661 46.768 279.133 46.768C285.661 46.768 290.973 43.568 292.893 38.128H285.597C284.381 40.048 282.141 40.944 279.197 40.944C273.565 40.944 270.685 37.488 270.045 32.944H293.661C294.941 22.768 288.733 15.152 278.749 15.152ZM278.813 20.784C283.485 20.784 286.685 23.408 287.069 28.336H270.173C270.941 24.112 273.821 20.784 278.813 20.784Z" fill="white"/>
<circle cx="203.088" cy="31.1321" r="6.39725" transform="rotate(-0.169048 203.088 31.1321)" fill="#21CF52"/>
<circle cx="203.088" cy="31.1321" r="9.70282" transform="rotate(-0.169048 203.088 31.1321)" stroke="white" stroke-width="0.7"/>
<path d="M193.842 51.8136V51.8136C197.86 52.329 197.643 58.2166 193.599 58.4359L173.028 59.5517" stroke="white" stroke-width="2"/>
<path d="M193.842 51.8135V51.8135C188.367 50.9115 189.015 42.8446 194.564 42.8282L202.589 42.8046" stroke="white" stroke-width="2"/>
<path d="M165.654 64.3375C166.626 64.3331 167.588 64.2058 168.485 63.9629C169.383 63.72 170.197 63.3663 170.883 62.9219C171.568 62.4775 172.111 61.9511 172.481 61.3729C172.85 60.7946 173.039 60.1758 173.036 59.5518C173.033 58.9277 172.839 58.3106 172.464 57.7357C172.09 57.1608 171.542 56.6394 170.852 56.2013C170.163 55.7631 169.345 55.4168 168.446 55.182C167.546 54.9473 166.583 54.8287 165.61 54.8331L165.613 55.499C166.45 55.4953 167.278 55.5972 168.051 55.799C168.825 56.0009 169.528 56.2987 170.121 56.6755C170.714 57.0522 171.185 57.5006 171.507 57.9949C171.829 58.4892 171.996 59.0198 171.999 59.5565C172.001 60.0931 171.839 60.6252 171.521 61.1224C171.203 61.6196 170.736 62.0722 170.147 62.4543C169.558 62.8365 168.857 63.1406 168.086 63.3495C167.314 63.5583 166.487 63.6678 165.651 63.6716L165.654 64.3375Z" fill="white"/>
<circle cx="165.339" cy="55.1877" r="1.09667" transform="rotate(-0.169048 165.339 55.1877)" fill="white"/>
<circle cx="164.634" cy="63.9631" r="1.09667" transform="rotate(-0.169048 164.634 63.9631)" fill="white"/>
</svg>
