<svg width="414" height="492" viewBox="0 0 414 492" fill="none" xmlns="http://www.w3.org/2000/svg">
<path d="M426.377 119.474H317.408C317.408 119.474 328.25 85.5331 344.837 85.5331C361.425 85.5331 366.672 108.962 366.672 108.962C366.672 108.962 377.893 96.2315 387.108 96.2315C396.324 96.2315 404.336 113.052 404.336 113.052C404.336 113.052 417.367 103.962 426.377 119.474Z" fill="#EBEBEB"/>
<path d="M261.227 290.386H152.259C152.259 290.386 163.1 256.445 179.699 256.445C196.297 256.445 201.49 279.862 201.49 279.862C201.49 279.862 212.711 267.144 221.927 267.144C231.142 267.144 239.154 283.964 239.154 283.964C239.154 283.964 252.218 274.912 261.227 290.386Z" fill="#EBEBEB"/>
<path d="M338.582 52.303H287.627C287.627 52.303 299.065 33.3376 307.998 33.3376C316.932 33.3376 319.664 45.9812 319.664 45.9812C319.664 45.9812 325.984 40.0834 331.85 41.1433C337.715 42.2031 338.582 52.303 338.582 52.303Z" fill="#EBEBEB"/>
<path d="M244.325 165.958H193.37C193.37 165.958 204.754 146.992 213.72 146.992C222.686 146.992 225.342 159.636 225.342 159.636C225.342 159.636 231.673 153.738 237.528 154.786C243.382 155.833 244.325 165.958 244.325 165.958Z" fill="#EBEBEB"/>
<path d="M101.813 121.044H2.62402C2.62402 121.044 16.2085 86.131 30.7361 83.9863C45.2638 81.8416 52.2132 109.909 52.2132 109.909C52.2132 109.909 61.5912 99.9342 68.9634 99.9342C76.3357 99.9342 81.9733 113.014 81.9733 113.014C81.9733 113.014 96.7611 104.086 101.813 121.044Z" fill="#EBEBEB"/>
<path d="M196.069 23.0378H129.068C129.068 23.0378 140.582 -2.23694 153.061 -2.59855C165.539 -2.96015 172.12 16.5289 172.12 16.5289C172.12 16.5289 191.548 -1.40151 196.069 23.0378Z" fill="#EBEBEB"/>
<path d="M419.883 224.837H352.882C352.882 224.837 364.385 199.562 376.874 199.2C389.364 198.839 395.923 218.315 395.923 218.315C395.923 218.315 415.351 200.397 419.883 224.837Z" fill="#EBEBEB"/>
<path opacity="0.3" d="M443.094 -22H-14.0938V349.439H443.094V-22Z" fill="#DBDBDB"/>
<g opacity="0.5">
<path d="M151.424 -22L-14.0938 149.948V107.827L110.866 -22H151.424Z" fill="white"/>
<path d="M443.094 214.25V256.383L353.5 349.44H312.941L443.094 214.25Z" fill="white"/>
<path d="M63.5642 -22L-14.0938 58.687V44.8713L50.2942 -22H63.5642Z" fill="white"/>
<path d="M443.094 61.7917V75.5825L179.482 349.439H166.19L443.094 61.7917Z" fill="white"/>
<path d="M443.095 278.74V292.531L388.312 349.439H375.021L443.095 278.74Z" fill="white"/>
<path d="M385.645 -22L28.0906 349.439H14.7988L372.364 -22H385.645Z" fill="white"/>
<path d="M248.846 -22L-14.0938 251.159V247.929L245.756 -22H248.846Z" fill="white"/>
<path d="M443.094 96.7926V100.01L202.986 349.44H199.886L443.094 96.7926Z" fill="white"/>
</g>
<path d="M443.094 80.0461H-14.0938V83.0387H443.094V80.0461Z" fill="#D5DBFF"/>
<path d="M135.845 349.439V-22H133.178V349.439H135.845Z" fill="#D5DBFF"/>
<path d="M295.812 349.439V-22H293.144V349.439H295.812Z" fill="#D5DBFF"/>
<path d="M443.094 349.439H-14.0938V360.462H443.094V349.439Z" fill="#DBDBDB"/>
<path opacity="0.4" d="M227.087 56.1059L233.744 58.4874L238.612 60.1957H238.699L243.664 61.9289L244.64 62.2655C249.526 63.9281 254.419 65.5906 259.319 67.2532C270.089 70.8525 280.876 74.3605 291.681 77.777C313.31 84.5726 335.047 90.9692 356.893 96.6925L362.748 98.2012C364.168 98.5753 365.599 98.9369 367.03 99.286C374.597 101.19 382.187 102.985 389.797 104.673C400.812 107.104 411.86 109.286 422.983 111.007C428.545 111.867 434.117 112.603 439.701 113.164C440.785 113.276 441.956 113.389 443.083 113.476V111.768C441.999 111.643 440.915 111.506 439.831 111.356C434.291 110.595 428.762 109.66 423.254 108.6C412.239 106.481 401.289 103.912 390.394 101.119C383.166 99.2486 375.971 97.2744 368.808 95.1962L364.471 93.9493L357.901 92.0415C352.437 90.379 346.988 88.7165 341.552 87.0539C338.09 85.9567 334.636 84.8469 331.188 83.7247C318.568 79.6183 305.992 75.3372 293.459 70.8816C282.784 67.0994 272.13 63.2174 261.498 59.2356L256.522 57.3528L255.08 56.8166L250.82 55.1956C243.783 52.5023 236.726 49.7716 229.776 46.9661L227.131 56.056L227.087 56.1059Z" fill="#DBDBDB"/>
<path opacity="0.4" d="M247.025 52.0283L249.194 52.8014C250.896 53.4373 252.609 54.0483 254.311 54.6718L254.864 54.8713L256.642 55.5072C258.973 56.3551 261.315 57.1905 263.645 58.001C276.937 62.7309 290.261 67.3029 303.618 71.7169C309.046 73.5124 314.467 75.283 319.881 77.0287C329.053 79.9714 338.243 82.8309 347.451 85.6074C351.831 86.9291 356.214 88.2259 360.601 89.4977L361.913 89.8718C367.486 91.4844 373.069 93.0555 378.663 94.5851C391.793 98.1512 404.987 101.468 418.257 104.323C426.496 106.082 434.768 107.678 443.084 108.9V108.251C434.833 106.867 426.626 105.109 418.463 103.201C405.93 100.234 393.473 96.8669 381.081 93.2259C374.41 91.2974 367.757 89.2899 361.122 87.2034C347.389 82.9224 333.725 78.4377 320.13 73.7494C314.897 71.9538 309.675 70.1375 304.464 68.3004C291.216 63.612 278 58.7865 264.816 53.8239L260.122 52.0533L254.81 50.0208L252.641 49.1729L248.305 47.5021L248.164 48.0008L247.817 49.2477L247.34 50.8936L247.221 51.3176L247.025 52.0283Z" fill="#DBDBDB"/>
<path opacity="0.4" d="M226.296 62.0038L227.51 62.4277L228.106 62.6397L229.765 63.2382L230.535 63.5126L231.348 63.7993L232.042 64.0487C234.788 65.0213 237.539 65.9773 240.292 66.9166C245.952 68.8784 251.618 70.7986 257.292 72.6773C267.656 76.1187 278.043 79.4438 288.45 82.6525C305.992 88.089 323.61 93.2511 341.303 97.9644C344.555 98.8497 347.916 99.7226 351.245 100.57C360.785 103.064 370.355 105.359 379.953 107.453L382.924 108.114C393.516 110.396 404.162 112.466 414.841 114.112C424.219 115.558 433.64 116.705 443.083 117.229V116.543C433.684 115.845 424.317 114.523 415.004 112.902C404.357 111.057 393.776 108.8 383.227 106.319C381.059 105.795 378.826 105.271 376.625 104.723C371.298 103.418 365.986 102.054 360.688 100.633L358.628 100.084C356.319 99.4732 354.02 98.8373 351.722 98.2013L344.696 96.2312C326.168 91.0067 307.738 85.246 289.307 79.1736C278.964 75.7488 268.647 72.2201 258.354 68.5874C253.403 66.8418 248.452 65.0712 243.501 63.2756L240.249 62.0287L237.3 60.9439L236.921 60.7943L232.378 59.111L231.229 58.6746L227.597 57.303L226.513 61.2931L226.296 62.0038Z" fill="#DBDBDB"/>
<path d="M223.846 62.7522C224.247 62.216 229.798 57.7645 230.21 57.4279L229.266 57.2408C229.266 57.2408 224.193 62.1911 223.846 62.7522Z" fill="#D7DDFF"/>
<path d="M223.835 62.7895C223.835 62.9018 224.258 63.0015 224.68 63.0639C225.076 63.1306 225.478 63.1306 225.873 63.0639C225.992 62.9641 229.993 60.6573 232.443 59.2483H232.541L232.887 59.0488L233.896 58.4628L234.286 58.2383L230.166 57.4279C229.939 57.6149 228.063 59.1236 226.404 60.4952L226.231 60.6324L225.775 61.0065C225.093 61.55 224.434 62.1327 223.802 62.7521L223.835 62.7895Z" fill="#D7DDFF"/>
<g opacity="0.5">
<path d="M223.835 62.7893C223.835 62.9015 224.258 63.0013 224.681 63.0636C225.076 63.1303 225.478 63.1303 225.873 63.0636C225.993 62.9639 230.101 60.5698 232.541 59.1982C232.14 59.4227 226.871 62.3404 225.797 60.9439C225.115 61.4875 224.456 62.0701 223.824 62.6896L223.835 62.7893Z" fill="#D7DDFF"/>
<path d="M226.274 60.6321C226.435 60.7131 226.602 60.7757 226.773 60.8191C226.999 60.8869 227.234 60.9122 227.467 60.894H227.814H228.15C228.595 60.8067 229.039 60.682 229.473 60.5448C230.34 60.258 231.196 59.9338 232.042 59.5473L232.931 59.1483L233.939 58.5623L231.977 59.3353C231.121 59.6595 230.264 59.9837 229.408 60.258C228.974 60.3952 228.54 60.5324 228.107 60.6196C227.682 60.7499 227.239 60.7754 226.806 60.6945L226.448 60.5947L226.274 60.6321Z" fill="#D7DDFF"/>
</g>
<path d="M169.551 67.989C169.551 68.6249 172.587 68.8244 173.01 68.6872C173.433 68.5501 206.499 53.5873 206.499 53.5873L194.346 48.051L193.999 48.3253L193.836 48.45C191.603 50.2331 184.903 55.5698 179.059 60.2707L178.712 60.545L178.257 60.919C174.202 64.1735 170.69 67.0164 169.551 67.989Z" fill="#D7DDFF"/>
<path d="M169.551 67.9887C172.511 65.4949 191.82 50.0583 194.346 48.0383L192.817 47.3525C192.817 47.3525 170.332 67.0162 169.649 67.8017C169.622 67.8236 169.6 67.8514 169.583 67.8836C169.566 67.9158 169.556 67.9516 169.551 67.9887Z" fill="#D7DDFF"/>
<g opacity="0.5">
<path d="M169.551 67.989C169.551 68.6249 172.587 68.8244 173.01 68.6872C173.433 68.5501 206.499 53.5873 206.499 53.5873L194.346 48.051C194.346 48.051 197.349 52.0037 190.215 58.0262C185.358 62.1784 180.176 63.0138 178.29 60.8567C174.202 64.1735 170.69 67.0164 169.551 67.989Z" fill="#D7DDFF"/>
<path d="M178.723 60.5449C179.066 60.7651 179.43 60.9407 179.807 61.0686C180.799 61.3651 181.835 61.4076 182.842 61.1933C184.816 60.77 186.702 59.9241 188.404 58.6995C189.262 58.1046 190.081 57.4378 190.854 56.7044C191.63 55.953 192.319 55.0897 192.903 54.1358C193.19 53.6518 193.444 53.1432 193.662 52.6146C193.861 52.0718 194.014 51.5081 194.118 50.9313C194.25 50.0785 194.224 49.2032 194.042 48.3627L193.879 48.4874C193.925 49.2644 193.836 50.0441 193.619 50.7817C193.32 51.803 192.857 52.7505 192.253 53.5747C192.101 53.7867 191.949 53.9862 191.787 54.1857C191.624 54.3852 191.461 54.5722 191.299 54.7717C190.963 55.1333 190.605 55.4949 190.215 55.8316C189.468 56.5075 188.682 57.1241 187.862 57.677C187.049 58.2534 186.206 58.7698 185.336 59.2232C184.486 59.6958 183.596 60.0676 182.68 60.3329C182.228 60.4594 181.767 60.5428 181.303 60.5823C180.839 60.6508 180.369 60.6508 179.904 60.5823C179.627 60.5431 179.354 60.4678 179.091 60.3579L178.723 60.5449Z" fill="#D7DDFF"/>
</g>
<path d="M197.154 58.4877C198.097 59.0238 199.116 59.4353 199.192 58.3505C199.192 57.9016 198.921 57.4278 197.414 56.5924C197.056 56.3929 196.189 55.9565 195.939 56.8542C195.69 57.752 196.763 58.3006 197.154 58.4877Z" fill="#D7DDFF"/>
<path d="M189.445 62.1158C190.389 62.6395 191.408 63.051 191.484 61.9661C191.484 61.5173 191.213 61.0434 189.695 60.208C189.348 60.0085 188.48 59.5721 188.22 60.4823C187.96 61.3926 189.088 61.9038 189.445 62.1158Z" fill="#D7DDFF"/>
<path d="M181.78 65.7072C182.713 66.2309 183.743 66.6424 183.818 65.5576C183.818 65.1211 183.547 64.6473 182.03 63.7994C181.683 63.6124 180.815 63.176 180.555 64.0737C180.295 64.9715 181.423 65.5201 181.78 65.7072Z" fill="#D7DDFF"/>
<path d="M184.285 56.2308C185.206 58.1261 187.31 58.7994 188.622 59.4104C192.145 61.0314 194.704 61.9042 195.961 58.2632C196.115 57.8381 196.21 57.388 196.243 56.929C196.449 54.1485 193.956 52.7644 192.687 51.9414C191.158 51.0187 190.074 50.4078 189.272 50.0212C188.487 49.5766 187.631 49.3219 186.757 49.2731C186.041 49.2731 184.437 49.4601 183.905 52.8517C183.672 53.9938 183.807 55.1942 184.285 56.2308Z" fill="#D7DDFF"/>
<path d="M184.285 56.2308C185.207 58.1261 187.31 58.7995 188.622 59.4104C192.145 61.0314 194.704 61.9042 195.961 58.2633C196.115 57.8382 196.21 57.388 196.243 56.9291C196.113 57.1785 194.921 59.2359 191.755 58.6748C188.394 58.0762 184.383 53.0263 189.261 50.0711C188.476 49.6265 187.62 49.3719 186.746 49.323C186.031 49.323 184.426 49.51 183.895 52.9016C183.676 54.0294 183.814 55.21 184.285 56.2308Z" fill="#D7DDFF"/>
<path d="M184.241 53.5868C184.241 55.6566 185.325 57.3275 186.756 57.3275C188.188 57.3275 189.272 55.6442 189.272 53.5868C189.272 51.5294 188.188 49.8461 186.756 49.8461C185.325 49.8461 184.241 51.5169 184.241 53.5868Z" fill="#D7DDFF"/>
<path d="M184.534 53.5871C184.642 54.0684 184.866 54.5049 185.181 54.8464C185.495 55.1879 185.886 55.4206 186.31 55.5178C186.734 55.615 187.173 55.5728 187.577 55.3959C187.981 55.219 188.334 54.9147 188.594 54.5178C188.854 54.121 189.012 53.6478 189.049 53.1524C189.087 52.6571 189.001 52.1598 188.804 51.7176C188.606 51.2754 188.304 50.9061 187.933 50.6524C187.561 50.3986 187.135 50.2705 186.703 50.2828C186.043 50.4117 185.451 50.8257 185.048 51.4399C184.645 52.0541 184.461 52.8222 184.534 53.5871Z" fill="#D7DDFF"/>
<path d="M236.888 52.6023L237.474 52.8392L238.785 53.3878L243.317 51.1434C247.708 48.9738 252.901 46.4177 253.909 46.0311H253.779H253.671H253.519H253.422L253.075 46.1558L252.728 46.293L251.73 46.6671L251.383 46.8042L251.069 46.9289L250.895 46.9912L250.353 47.2032L249.996 47.3404L245.323 49.1484L244.889 49.3105L243.144 49.9838L240.151 51.1559L239.729 51.318L238.428 51.8292L238.092 51.9539L237.94 52.0163H237.864L236.888 52.6023Z" fill="#D7DDFF"/>
<path d="M238.785 53.3878L242.298 54.8591C242.298 54.8591 250.136 50.6696 254.809 48.0511H254.863H254.928L256.273 47.2905C256.954 46.9428 257.607 46.5255 258.224 46.0436C258.094 45.7443 255.178 45.6695 254.018 46.0436H253.942C252.977 46.4176 248.087 48.8117 243.794 50.9314H243.696L243.349 51.106L238.785 53.3878Z" fill="#D7DDFF"/>
<g opacity="0.5">
<path d="M238.785 53.3878L242.298 54.8591C242.298 54.8591 250.136 50.6695 254.809 48.051C254.039 48.4251 246.136 52.4526 244.141 51.8915C243.96 51.8572 243.789 51.7706 243.645 51.6398C243.501 51.5089 243.388 51.3381 243.317 51.1433L238.785 53.3878Z" fill="#D7DDFF"/>
<path d="M243.664 50.9682C243.798 51.1572 243.969 51.3068 244.163 51.4046C244.329 51.494 244.51 51.5408 244.694 51.5418C244.875 51.5542 245.056 51.5542 245.236 51.5418C245.583 51.5418 245.93 51.4171 246.32 51.3423C247.686 50.9807 249.02 50.4944 250.342 49.9831C251.665 49.4719 252.988 48.9233 254.289 48.3372L254.972 48.0255L256.316 47.2649L254.224 48.1253C252.901 48.6614 251.589 49.2101 250.267 49.7088C248.944 50.2076 247.621 50.7188 246.266 51.1054C245.931 51.2094 245.591 51.2885 245.247 51.3423C244.925 51.4486 244.583 51.4486 244.26 51.3423C244.068 51.2418 243.9 51.0875 243.772 50.8934L243.664 50.9682Z" fill="#D7DDFF"/>
</g>
<path d="M229.754 47.6393L238.265 52.3401C238.265 52.3401 238.178 43.9485 238.113 37.901V37.29C238.113 37.1155 238.113 36.9534 238.113 36.7913C238.113 34.7214 238.113 33.0506 238.113 32.3024C238.113 29.8086 237.864 29.3722 237.3 29.8086C235.926 30.9985 234.655 32.339 233.506 33.8112C232.888 34.7214 231.532 40.2327 230.643 44.0233C230.648 44.0563 230.648 44.09 230.643 44.123C230.643 44.335 230.546 44.5595 230.492 44.759C230.015 46.4298 229.754 47.6393 229.754 47.6393Z" fill="#D7DDFF"/>
<g opacity="0.5">
<path d="M229.754 47.6395L238.265 52.3404C238.265 52.3404 238.178 43.9487 238.113 37.9012C236.866 41.1182 234.384 45.5198 230.405 44.7218C230.015 46.4301 229.754 47.6395 229.754 47.6395Z" fill="#D7DDFF"/>
<path d="M230.557 44.0861C231.426 44.2627 232.321 44.1187 233.115 43.6746C233.574 43.4309 234.01 43.1343 234.416 42.7893C234.797 42.4278 235.159 42.0406 235.5 41.6297C236.185 40.7975 236.788 39.8819 237.3 38.899C237.582 38.3793 237.839 37.8423 238.07 37.2905C238.07 37.1159 238.07 36.9538 238.07 36.7917C237.723 37.4277 237.354 38.0386 236.986 38.6496C236.617 39.2606 236.411 39.5474 236.108 39.9713C235.806 40.407 235.484 40.8232 235.143 41.2182C234.501 42.0264 233.755 42.7161 232.931 43.2632C232.215 43.7359 231.404 43.9852 230.578 43.9864C230.576 44.0208 230.569 44.0546 230.557 44.0861Z" fill="#D7DDFF"/>
</g>
<path d="M244.217 57.4902C245.095 54.9964 241.376 52.6772 237.148 50.4951C232.92 48.313 191.256 27.203 185.228 25.2828C179.2 23.3626 172.153 25.981 170.961 29.9462C169.172 35.9313 176.685 40.9189 203.659 53.762C207.204 55.4453 223.022 59.8219 231.923 59.8469C241.441 59.8843 243.772 58.7247 244.217 57.4902Z" fill="#D7DDFF"/>
<path opacity="0.2" d="M203.658 53.7616C207.204 55.4449 223.021 59.8215 231.922 59.8465C241.43 59.8465 243.783 58.7243 244.206 57.4898C244.629 56.2554 243.87 54.9087 242.395 53.7491C242.406 54.0046 242.369 54.2597 242.287 54.4973C241.886 55.6195 239.761 56.6793 231.131 56.6419C223.054 56.6419 211.443 49.1605 208.233 47.5645C183.742 35.881 174.18 34.9084 175.796 29.5094C176.5 27.1527 179.471 25.3447 182.973 24.846C177.552 24.0978 171.979 26.5168 170.939 29.9957C169.171 35.9309 176.685 40.9185 203.658 53.7616Z" fill="#D7DDFF"/>
<path d="M231.012 49.1605L230.058 48.6866V50.3076L231.012 50.7814V49.1605Z" fill="#D7DDFF"/>
<path d="M229.266 48.3004L228.247 47.7892V49.4102L229.266 49.9214V48.3004Z" fill="#D7DDFF"/>
<path d="M227.456 47.3901L226.426 46.8914V48.4999L227.456 49.0111V47.3901Z" fill="#D7DDFF"/>
<path d="M225.645 46.4924L224.615 45.9812V47.6022L225.645 48.1134V46.4924Z" fill="#D7DDFF"/>
<path d="M223.835 45.5946L222.805 45.0834V46.7043L223.835 47.2156V45.5946Z" fill="#D7DDFF"/>
<path d="M222.024 44.6968L220.994 44.1855V45.8065L222.024 46.3053V44.6968Z" fill="#D7DDFF"/>
<path d="M220.203 43.7867L219.184 43.2755V44.8965L220.203 45.4077V43.7867Z" fill="#D7DDFF"/>
<path d="M218.393 42.8886L217.374 42.3773V43.9983L218.393 44.5095V42.8886Z" fill="#D7DDFF"/>
<path d="M216.582 41.9911L215.562 41.4799V43.1008L216.582 43.5996V41.9911Z" fill="#D7DDFF"/>
<path d="M214.771 41.0809L213.752 40.5697V42.1907L214.771 42.7019V41.0809Z" fill="#D7DDFF"/>
<path d="M212.961 40.1829L211.941 39.6716V41.2926L212.961 41.8038V40.1829Z" fill="#D7DDFF"/>
<path d="M211.15 39.285L210.131 38.7738V40.3948L211.15 40.8935V39.285Z" fill="#D7DDFF"/>
<path d="M209.34 38.3746L208.31 37.8634V39.4844L209.34 39.9956V38.3746Z" fill="#D7DDFF"/>
<path d="M207.529 37.477L206.499 36.9658V38.5868L207.529 39.098V37.477Z" fill="#D7DDFF"/>
<path d="M205.718 36.5793L204.688 36.0681V37.6891L205.718 38.1878V36.5793Z" fill="#D7DDFF"/>
<path d="M203.897 35.6692L202.878 35.158V36.7789L203.897 37.2902V35.6692Z" fill="#D7DDFF"/>
<path d="M202.086 34.7716L201.067 34.2604V35.8813L202.086 36.3926V34.7716Z" fill="#D7DDFF"/>
<path d="M200.276 33.8613L199.257 33.3625V34.9711L200.276 35.4823V33.8613Z" fill="#D7DDFF"/>
<path d="M198.466 32.9634L197.447 32.4521V34.0731L198.466 34.5843V32.9634Z" fill="#D7DDFF"/>
<path d="M196.655 32.0659L195.636 31.5547V33.1757L196.655 33.6869V32.0659Z" fill="#D7DDFF"/>
<path d="M194.844 31.1554L193.825 30.6566V32.2651L194.844 32.7764V31.1554Z" fill="#D7DDFF"/>
<path d="M192.004 29.7465V31.3674L193.034 31.8787V30.2577L192.004 29.7465Z" fill="#D7DDFF"/>
<path d="M190.193 28.8484V30.4694L191.223 30.9806V29.3596L190.193 28.8484Z" fill="#D7DDFF"/>
<path d="M188.383 27.9508V29.5593L189.413 30.0705V28.4496L188.383 27.9508Z" fill="#D7DDFF"/>
<path d="M186.572 27.0406V28.6616L187.602 29.1728V27.5519L186.572 27.0406Z" fill="#D7DDFF"/>
<path d="M181.835 26.38C181.273 25.8903 180.626 25.5458 179.938 25.37V26.4423L181.835 26.38Z" fill="#D7DDFF"/>
<path d="M177.715 25.108V26.5918C178.192 26.5918 178.669 26.517 179.146 26.492V25.1828C178.672 25.1079 178.193 25.0828 177.715 25.108Z" fill="#D7DDFF"/>
<path d="M173.162 27.2026C173.563 27.2026 173.931 27.1028 174.246 27.0529C174.56 27.0031 174.972 26.9282 175.33 26.8908C175.85 26.8036 176.414 26.7287 176.869 26.6789V25.2075C176.247 25.3002 175.638 25.4889 175.059 25.7686C174.684 25.9399 174.322 26.1442 173.975 26.3796C173.812 26.4972 173.657 26.6263 173.509 26.7661C173.387 26.9049 173.271 27.0506 173.162 27.2026Z" fill="#D7DDFF"/>
<path d="M205.719 40.4075L217.753 47.0535C217.753 47.0535 236.845 35.2827 250.538 26.6791C257.856 22.078 263.428 18.5119 263.342 18.3747C263.114 18.0256 259.428 18.063 257.975 18.2875L257.563 18.3747C256.945 18.5742 235.349 27.7764 220.225 34.2229L205.719 40.4075Z" fill="#D7DDFF"/>
<g opacity="0.5">
<path d="M205.719 40.4076L217.753 47.0536C217.753 47.0536 236.845 35.2828 250.538 26.6792C249.454 27.3026 224.908 41.5298 221.71 39.3976C220.496 38.5871 220.181 36.5048 220.257 34.2105L205.719 40.4076Z" fill="#D7DDFF"/>
<path d="M248.738 27.7889L247.166 28.5869C243.552 30.4324 239.881 32.1905 236.151 33.8613C234.301 34.6926 232.436 35.4906 230.557 36.2554C229.603 36.6295 228.66 36.9786 227.706 37.3152C226.748 37.6688 225.774 37.9643 224.789 38.2005C224.284 38.3308 223.768 38.4018 223.25 38.4125C223.106 38.4285 222.96 38.4285 222.816 38.4125C222.675 38.3683 222.54 38.3011 222.415 38.213C222.172 38.0631 221.95 37.8742 221.754 37.6519C221.392 37.2053 221.111 36.6795 220.93 36.1058C220.753 35.5499 220.633 34.9725 220.572 34.385C220.567 34.2979 220.567 34.2104 220.572 34.1232L220.94 33.9736C220.935 34.0857 220.935 34.1981 220.94 34.3102C221.049 35.3822 221.452 36.3865 222.09 37.1781C222.251 37.3525 222.434 37.4994 222.632 37.6145C222.719 37.6734 222.814 37.7155 222.914 37.7392C223.014 37.7542 223.116 37.7542 223.217 37.7392C223.692 37.7021 224.164 37.6187 224.627 37.4898C226.536 36.9175 228.417 36.2308 230.264 35.4324C232.129 34.6718 233.983 33.8489 235.826 33.0259C239.534 31.3675 243.209 29.6468 246.895 27.9385L252.858 25.158L248.738 27.7889Z" fill="#D7DDFF"/>
</g>
<path d="M203.962 39.4847L207.529 41.4673C216.668 37.0657 254.614 19.8086 257.769 18.3622H257.877H257.953L257.541 18.4495C256.608 18.6614 203.962 39.4847 203.962 39.4847Z" fill="#D7DDFF"/>
<path d="M229.678 39.8093C230.849 40.4702 232.129 40.9814 232.226 39.6223C232.226 39.0737 231.879 38.4751 229.993 37.4277C229.548 37.1784 228.475 36.6422 228.15 37.7644C227.825 38.8866 229.234 39.56 229.678 39.8093Z" fill="#D7DDFF"/>
<path d="M239.836 33.911C241.007 34.5594 242.287 35.0831 242.384 33.724C242.384 33.1629 242.048 32.5643 240.151 31.5294C239.717 31.28 238.633 30.7314 238.308 31.8661C237.983 33.0008 239.435 33.6616 239.836 33.911Z" fill="#D7DDFF"/>
<path d="M250.038 27.9257C251.123 28.5367 252.315 29.023 252.402 27.7636C252.402 27.2399 252.087 26.6913 250.331 25.7187C249.919 25.4818 248.911 24.9706 248.607 26.0304C248.304 27.0903 249.626 27.7013 250.038 27.9257Z" fill="#D7DDFF"/>
<path d="M214.5 38.4248C215.422 40.3076 217.514 40.9934 218.837 41.6044C222.361 43.2253 224.919 44.0982 226.177 40.4572C226.324 40.0295 226.419 39.5806 226.459 39.123C226.665 36.3424 224.16 34.9584 222.892 34.1354C221.363 33.2002 220.279 32.6017 219.466 32.2152C218.684 31.7712 217.832 31.5165 216.961 31.467C216.246 31.467 214.631 31.6541 214.11 35.0457C213.874 36.1889 214.013 37.392 214.5 38.4248Z" fill="#D7DDFF"/>
<path d="M214.5 38.4247C215.422 40.3075 217.514 40.9933 218.837 41.6043C222.36 43.2253 224.919 44.0981 226.177 40.4571C226.324 40.0295 226.418 39.5805 226.458 39.1229C226.328 39.3723 225.125 41.4297 221.97 40.8686C218.609 40.2701 214.598 35.2201 219.466 32.265C218.684 31.821 217.832 31.5664 216.961 31.5168C216.246 31.5168 214.63 31.7039 214.11 35.0955C213.885 36.2229 214.024 37.4059 214.5 38.4247Z" fill="#D7DDFF"/>
<path d="M214.5 35.8314C214.5 37.9013 215.584 39.5721 217.004 39.5721C218.425 39.5721 219.52 37.8888 219.52 35.8314C219.52 33.774 218.435 32.0907 217.004 32.0907C215.573 32.0907 214.5 33.7615 214.5 35.8314Z" fill="#D7DDFF"/>
<path d="M214.771 35.8313C214.771 37.6642 215.758 39.148 216.939 39.148C218.121 39.148 219.162 37.6642 219.162 35.8313C219.236 35.0565 219.046 34.2788 218.631 33.6623C218.217 33.0458 217.61 32.6387 216.939 32.527C215.758 32.527 214.771 34.0108 214.771 35.8313Z" fill="#D7DDFF"/>
<path d="M252.728 46.4674L253.074 46.3302L252.728 46.4674Z" fill="#D7DDFF"/>
<path d="M-21 422.146L37.8696 421.847L96.75 421.735L214.5 421.523L332.25 421.735L391.13 421.847L450 422.146L391.13 422.458L332.25 422.558L214.5 422.77L96.75 422.558L37.8696 422.445L-21 422.146Z" fill="#353A3E"/>
<path d="M125.36 248.465C110.768 248.465 97.3242 247.518 85.7888 246.233C49.5347 242.181 23.8403 234.014 23.5801 233.926L25.3147 227.48C26.3121 227.804 126.488 259.276 213.567 227.48L215.508 233.852C185 245.011 153.137 248.465 125.36 248.465Z" fill="#6F9BFE"/>
<path d="M314.936 248.465C300.343 248.465 286.899 247.518 275.364 246.233C239.11 242.181 213.415 234.014 213.155 233.926L214.89 227.48C215.887 227.804 316.063 259.276 403.142 227.48L405.083 233.852C374.575 245.011 342.701 248.465 314.936 248.465Z" fill="#6F9BFE"/>
<path d="M28.7842 220.135H21V430.612H28.7842V220.135Z" fill="#D7DDFF"/>
<path d="M24.404 439.005C43.3968 439.005 58.7934 435.661 58.7934 431.536C58.7934 427.411 43.3968 424.067 24.404 424.067C5.4113 424.067 -9.98535 427.411 -9.98535 431.536C-9.98535 435.661 5.4113 439.005 24.404 439.005Z" fill="#D7DDFF"/>
<path d="M218.879 220.135H211.095V430.612H218.879V220.135Z" fill="#D7DDFF"/>
<path d="M214.5 439.005C233.492 439.005 248.889 435.661 248.889 431.536C248.889 427.411 233.492 424.067 214.5 424.067C195.507 424.067 180.11 427.411 180.11 431.536C180.11 435.661 195.507 439.005 214.5 439.005Z" fill="#D7DDFF"/>
<path d="M408.976 220.135H401.191V430.612H408.976V220.135Z" fill="#D7DDFF"/>
<path d="M404.595 439.005C423.588 439.005 438.985 435.661 438.985 431.536C438.985 427.411 423.588 424.067 404.595 424.067C385.603 424.067 370.206 427.411 370.206 431.536C370.206 435.661 385.603 439.005 404.595 439.005Z" fill="#D7DDFF"/>
<path d="M226.93 102.858C208.304 130.801 183.759 198.645 180.853 208.308C178.88 214.855 208.738 227.623 209.508 222.947C210.483 216.962 228.177 142.272 232.101 114.467C234.27 99.1047 230.779 97.0847 226.93 102.858Z" fill="#D3766A"/>
<path d="M201.149 235.104C202.32 233.333 203.144 234.031 203.198 237.996C203.252 241.962 200.563 257.698 205.42 258.358C210.278 259.019 213.801 236.65 213.27 230.054C212.739 223.458 209.844 212.984 209.844 212.984C208.413 217.173 204.065 226.936 201.149 235.104Z" fill="#D3766A"/>
<path d="M182.371 203.757C178.349 215.865 173.134 230.802 175.498 244.905C175.728 246.474 176.407 247.909 177.428 248.982C178.393 255.304 181.276 256.676 181.276 256.676C183.748 262.249 186.86 263.197 186.86 263.197C186.86 263.197 188.063 270.604 192.075 270.516C196.574 270.429 194.015 260.042 195.641 253.334C199.36 237.972 208.402 217.323 209.855 213.022L182.371 203.757Z" fill="#D3766A"/>
<path d="M189.7 234.007C188.571 238.507 187.705 243.089 187.109 247.723C186.726 252.819 186.679 257.942 186.968 263.047C186.968 263.08 186.957 263.112 186.936 263.135C186.916 263.159 186.888 263.172 186.86 263.172C186.831 263.172 186.803 263.159 186.783 263.135C186.763 263.112 186.751 263.08 186.751 263.047C185.35 253.257 186.31 243.213 189.527 234.007C189.603 233.77 189.754 233.807 189.7 234.007Z" fill="#353A3E"/>
<path d="M181.97 230.104C181.189 234.593 179.867 242.486 181.406 256.626C181.406 256.626 181.352 256.688 181.341 256.626C179.334 247.89 179.488 238.683 181.786 230.042C181.851 229.78 182.024 229.805 181.97 230.104Z" fill="#353A3E"/>
<path d="M177.774 228.084C176.69 235.765 176.885 240.765 177.46 248.907H177.384C175.888 239.743 176.3 236.214 177.558 227.984C177.601 227.772 177.818 227.772 177.774 228.084Z" fill="#353A3E"/>
<path d="M232.525 121.474C229.912 146.861 212.576 217.573 212.576 217.573L189.939 208.42L178.523 203.794C178.523 203.794 208.977 132.796 221.965 109.179C222.962 107.359 223.884 105.8 224.751 104.479C232.98 91.7852 234.53 101.91 232.525 121.474Z" fill="#10217D"/>
<path d="M189.537 196.251C189.729 195.35 189.809 194.422 189.776 193.495C189.775 192.569 189.651 191.648 189.407 190.765C189.045 192.577 189.09 194.465 189.537 196.251Z" fill="white"/>
<path d="M228.285 106.574C228.485 105.674 228.569 104.746 228.534 103.818C228.523 102.892 228.399 101.973 228.166 101.087C227.974 101.988 227.894 102.916 227.927 103.843C227.94 104.767 228.06 105.686 228.285 106.574Z" fill="white"/>
<path d="M204.868 181.787C204.084 181.566 203.278 181.474 202.472 181.512C201.666 181.513 200.866 181.656 200.098 181.936C201.673 182.353 203.315 182.301 204.868 181.787Z" fill="white"/>
<path d="M215.709 146.449C214.928 146.231 214.126 146.134 213.324 146.162C212.519 146.175 211.719 146.318 210.949 146.586C211.728 146.817 212.531 146.913 213.334 146.873C214.139 146.862 214.939 146.72 215.709 146.449Z" fill="white"/>
<path d="M198.092 167.061C198.778 166.577 199.405 165.99 199.957 165.315C200.516 164.652 200.991 163.9 201.366 163.083C200.677 163.563 200.049 164.15 199.501 164.829C198.942 165.492 198.467 166.244 198.092 167.061Z" fill="white"/>
<path d="M220.729 123.381C222.093 122.406 223.214 121.039 223.981 119.416C223.289 119.885 222.66 120.469 222.116 121.149C221.567 121.817 221.101 122.568 220.729 123.381Z" fill="white"/>
<path d="M215.232 194.318C215.918 193.838 216.542 193.25 217.086 192.572C217.652 191.913 218.131 191.161 218.507 190.34C217.82 190.825 217.193 191.412 216.642 192.086C216.084 192.751 215.61 193.503 215.232 194.318Z" fill="white"/>
<path d="M213.757 165.527C214.171 166.319 214.678 167.04 215.264 167.672C215.846 168.312 216.498 168.861 217.205 169.305C216.793 168.508 216.282 167.786 215.687 167.16C215.115 166.512 214.465 165.962 213.757 165.527Z" fill="white"/>
<path d="M199.782 204.156C200.631 205.725 201.819 207.014 203.23 207.897C202.818 207.103 202.311 206.381 201.723 205.752C201.142 205.121 200.489 204.584 199.782 204.156Z" fill="white"/>
<path d="M222.626 133.008C223.044 133.799 223.555 134.521 224.144 135.152C224.72 135.8 225.374 136.35 226.084 136.786C225.228 135.22 224.038 133.932 222.626 133.045V133.008Z" fill="white"/>
<path d="M213.638 209.967C200.184 203.159 185.147 198.346 182.577 197.286C182.458 197.286 182.404 197.473 182.523 197.51C185.092 198.395 201.767 206.039 213.584 210.216C213.725 210.316 213.768 210.042 213.638 209.967Z" fill="#353A3E"/>
<path d="M158.227 489.484C160.623 490.37 229.087 489.347 231.667 487.402C232.665 486.679 233.109 475.207 233.315 461.317V460.943C233.315 458.075 233.391 455.132 233.402 452.14C233.402 451.728 233.402 451.317 233.402 450.893L230.074 410.057L184.279 410.58L188.811 450.967L188.865 452.564L189.158 460.943V461.803C189.158 461.803 163.138 475.681 160.46 478.162C157.782 480.644 155.82 488.599 158.227 489.484Z" fill="#D3766A"/>
<path d="M158.227 489.484C160.623 490.369 229.087 489.347 231.667 487.402C232.665 486.679 233.109 475.207 233.315 461.317V460.943C233.315 458.075 233.391 455.132 233.402 452.139C233.402 451.728 233.402 451.317 233.402 450.893L188.8 451.042L188.854 452.638L189.158 460.943V461.803C189.158 461.803 163.138 475.681 160.46 478.162C157.782 480.644 155.82 488.599 158.227 489.484Z" fill="#EBEBEB"/>
<path d="M157.772 489.684C160.211 490.582 229.597 489.522 232.221 487.552C233.218 486.816 233.674 475.182 233.88 461.105L189.137 461.641C189.137 461.641 162.727 475.719 160.049 478.225C157.371 480.731 155.333 488.786 157.772 489.684Z" fill="#6F9BFE"/>
<path opacity="0.1" d="M199.88 489.622C216.088 489.198 231.039 488.487 232.221 487.589C233.218 486.841 233.684 475.22 233.879 461.142L223.764 461.267L199.88 489.622Z" fill="black"/>
<path d="M158.726 486.479C170.359 485.968 217.27 485.232 228.827 485.706C228.925 485.706 228.925 485.781 228.827 485.781C217.314 486.579 170.37 486.916 158.737 486.691C158.487 486.691 158.487 486.479 158.726 486.479Z" fill="#353A3E"/>
<path d="M164.483 475.282C165.775 475.226 167.064 475.479 168.267 476.024C169.471 476.569 170.563 477.395 171.476 478.449C173.127 480.332 174.09 482.871 174.164 485.544C174.164 485.631 174.034 485.631 174.023 485.544C173.592 482.903 172.43 480.493 170.711 478.673C168.991 476.853 166.807 475.72 164.483 475.444C164.469 475.438 164.457 475.426 164.448 475.412C164.44 475.398 164.435 475.381 164.435 475.363C164.435 475.346 164.44 475.329 164.448 475.314C164.457 475.3 164.469 475.289 164.483 475.282Z" fill="#353A3E"/>
<path d="M184.637 463.037C189.299 462.9 194.72 464.708 197.647 469.035C197.767 469.209 197.55 469.396 197.42 469.309C193.319 466.918 189.009 465.037 184.562 463.698C184.494 463.676 184.435 463.627 184.396 463.559C184.357 463.492 184.341 463.41 184.35 463.33C184.359 463.249 184.394 463.176 184.446 463.122C184.499 463.068 184.567 463.038 184.637 463.037Z" fill="#353A3E"/>
<path d="M181.07 464.684C185.721 464.534 191.142 466.342 194.08 470.681C194.199 470.843 193.993 471.03 193.852 470.956C189.752 468.564 185.441 466.683 180.994 465.344C180.926 465.323 180.868 465.273 180.829 465.206C180.79 465.138 180.774 465.057 180.783 464.976C180.792 464.896 180.826 464.822 180.879 464.768C180.932 464.714 181 464.684 181.07 464.684Z" fill="#353A3E"/>
<path d="M177.493 466.379C182.144 466.23 187.565 468.038 190.503 472.377C190.611 472.539 190.405 472.726 190.264 472.639C186.165 470.247 181.855 468.37 177.406 467.04C177.337 467.018 177.278 466.968 177.239 466.899C177.2 466.83 177.185 466.747 177.195 466.666C177.206 466.584 177.242 466.51 177.297 466.458C177.352 466.405 177.421 466.377 177.493 466.379Z" fill="#353A3E"/>
<path d="M173.915 468.038C178.566 467.901 183.986 469.709 186.925 474.036C187.033 474.21 186.827 474.385 186.686 474.31C182.586 471.919 178.275 470.038 173.828 468.699C173.759 468.677 173.7 468.627 173.661 468.558C173.622 468.489 173.606 468.406 173.617 468.324C173.628 468.243 173.664 468.169 173.719 468.116C173.774 468.064 173.843 468.036 173.915 468.038Z" fill="#353A3E"/>
<path d="M225.716 473.038C230.942 472.975 231.039 482.315 225.803 482.377C220.566 482.439 220.49 473.1 225.716 473.038Z" fill="#353A3E"/>
<path d="M179.91 456.678C182.458 460.419 186.317 462.651 189.667 465.232C189.744 465.284 189.831 465.314 189.92 465.319C190.009 465.324 190.098 465.304 190.178 465.261C190.259 465.218 190.33 465.154 190.385 465.073C190.439 464.992 190.476 464.897 190.491 464.796C190.511 464.797 190.53 464.795 190.549 464.787C190.567 464.78 190.584 464.768 190.598 464.753C190.612 464.738 190.624 464.719 190.632 464.699C190.639 464.678 190.643 464.656 190.643 464.634C190.247 459.714 188.733 455.001 186.252 450.968C184.767 448.661 181.775 446.504 179.444 448.798C177.113 451.092 178.414 454.521 179.91 456.678ZM179.639 452.239C180.04 446.404 184.659 450.818 185.689 452.564C186.34 453.714 186.923 454.914 187.434 456.155C188.455 458.73 189.36 461.365 190.144 464.048C188.572 462.664 186.892 461.442 185.287 460.12C183.358 458.549 179.401 455.456 179.639 452.215V452.239Z" fill="#353A3E"/>
<path d="M207.134 460.943C206.732 457.452 203.252 456.753 200.802 457.327C196.627 458.418 192.773 460.748 189.625 464.085C189.609 464.098 189.596 464.114 189.587 464.134C189.578 464.154 189.574 464.175 189.574 464.197C189.574 464.219 189.578 464.241 189.587 464.26C189.596 464.28 189.609 464.297 189.625 464.309C189.577 464.397 189.549 464.497 189.543 464.6C189.536 464.703 189.551 464.807 189.586 464.902C189.621 464.997 189.675 465.081 189.744 465.147C189.813 465.213 189.895 465.26 189.982 465.282C193.972 465.93 198.179 467.202 202.222 466.417C204.597 465.993 207.513 464.272 207.134 460.943ZM196.227 464.846C194.254 464.584 192.302 464.21 190.329 464.023C192.477 462.647 194.684 461.398 196.943 460.282C198.039 459.754 199.166 459.313 200.314 458.96C202.103 458.449 208.099 458.723 205.009 463.362C203.252 465.93 198.569 465.182 196.227 464.871V464.846Z" fill="#353A3E"/>
<path d="M186.133 461.143H235.441C235.441 461.143 225.51 328.709 225.9 326.39C226.399 323.422 229.304 310.018 233.175 292.512C234.4 287.025 235.701 281.152 237.067 275.055C240.742 258.583 244.797 240.578 248.32 224.905C253.622 201.425 257.763 183.196 257.763 183.196H215.969C215.969 183.196 211.101 200.952 204.965 224.044C194.969 261.588 181.602 313.26 180.279 325.829C178.143 346.103 186.133 461.143 186.133 461.143Z" fill="#353A3E"/>
<path d="M188.323 451.466C195.847 451.292 193.69 451.217 201.225 451.13C204.9 451.13 229.12 450.855 232.568 451.504C232.588 451.504 232.607 451.513 232.621 451.529C232.635 451.546 232.643 451.568 232.643 451.591C232.643 451.614 232.635 451.636 232.621 451.653C232.607 451.669 232.588 451.678 232.568 451.678C229.12 452.339 204.9 452.102 201.225 452.052C193.69 451.978 195.804 451.903 188.323 451.716C188.295 451.716 188.267 451.703 188.247 451.679C188.226 451.656 188.215 451.624 188.215 451.591C188.215 451.558 188.226 451.526 188.247 451.503C188.267 451.479 188.295 451.466 188.323 451.466Z" fill="#10217D"/>
<path d="M216.62 318.297C218.246 310.093 220.653 302.088 222.756 294.02C227.028 277.669 231.328 261.331 235.658 245.005C237.826 236.841 239.994 228.678 242.163 220.515C243.247 216.388 244.331 212.273 245.491 208.159C246.651 204.044 247.833 200.141 248.819 196.089C249.221 194.43 249.448 195.34 248.928 197.435C247.844 201.662 246.868 205.902 245.795 210.116C243.67 218.429 241.53 226.779 239.377 235.166C235.105 251.792 230.794 268.392 226.443 284.968C224.274 293.28 222.106 301.593 219.938 309.906C218.842 313.865 217.951 317.895 217.271 321.976C216.698 326.244 216.553 330.574 216.837 334.881C217.314 343.609 218.181 352.226 218.886 360.879C219.591 369.533 220.274 378.223 220.978 386.902C222.366 404.159 223.743 421.42 225.109 438.686C225.283 440.88 225.445 443.062 225.586 445.257C225.64 445.993 224.675 445.93 224.61 445.257C222.984 428.187 221.737 411.054 220.35 393.972L216.186 342.936C215.84 338.659 215.449 334.382 215.449 330.093C215.459 326.123 215.851 322.167 216.62 318.297Z" fill="#353A3E"/>
<path d="M220.718 183.196C223.623 209.007 229.153 257.399 233.175 292.512C242.607 249.967 257.763 183.196 257.763 183.196H220.718Z" fill="#353A3E"/>
<path d="M210.451 490.232C212.858 491.143 281.311 490.407 283.902 488.474C284.9 487.751 285.388 476.28 285.637 462.389V461.953C285.691 459.085 285.734 456.142 285.745 453.15C285.745 452.738 285.745 452.327 285.745 451.903C285.897 431.865 284.661 411.067 284.661 411.067L239.918 411.403L241.197 451.878V453.486L241.447 461.853V462.713C241.447 462.713 215.351 476.429 212.695 478.923C210.039 481.417 208.055 489.347 210.451 490.232Z" fill="#D3766A"/>
<path d="M210.451 490.233C212.857 491.143 281.311 490.407 283.902 488.474C284.899 487.751 285.387 476.28 285.637 462.389V461.953C285.691 459.085 285.734 456.142 285.745 453.15C285.745 452.738 285.745 452.327 285.745 451.903H241.143V453.511L241.392 461.878V462.738C241.392 462.738 215.297 476.454 212.641 478.948C209.984 481.442 208.055 489.347 210.451 490.233Z" fill="#EBEBEB"/>
<path d="M209.66 490.506C212.088 491.404 281.485 490.344 284.109 488.387C285.106 487.639 285.561 476.017 285.767 461.94L241.024 462.476C241.024 462.476 214.614 476.541 211.936 479.06C209.259 481.579 207.22 489.621 209.66 490.506Z" fill="#6F9BFE"/>
<path d="M210.614 487.303C222.247 486.804 269.158 486.056 280.715 486.529C280.802 486.529 280.813 486.617 280.715 486.617C269.201 487.415 222.247 487.751 210.614 487.527C210.375 487.514 210.364 487.315 210.614 487.303Z" fill="#353A3E"/>
<path d="M216.371 476.118C217.662 476.06 218.951 476.31 220.154 476.853C221.358 477.396 222.451 478.22 223.363 479.273C225.019 481.157 225.978 483.703 226.041 486.38C226.041 486.455 225.911 486.467 225.9 486.38C225.469 483.741 224.309 481.332 222.592 479.512C220.875 477.692 218.693 476.559 216.371 476.28C216.359 476.285 216.347 476.287 216.334 476.286C216.322 476.284 216.31 476.279 216.3 476.271C216.29 476.263 216.281 476.252 216.275 476.24C216.27 476.227 216.267 476.213 216.267 476.199C216.267 476.185 216.27 476.171 216.275 476.158C216.281 476.145 216.29 476.135 216.3 476.127C216.31 476.119 216.322 476.114 216.334 476.112C216.347 476.111 216.359 476.113 216.371 476.118Z" fill="#353A3E"/>
<path d="M236.525 463.873C241.186 463.723 246.596 465.531 249.534 469.87C249.643 470.032 249.437 470.22 249.296 470.145C245.196 467.754 240.885 465.873 236.438 464.534C236.369 464.512 236.31 464.461 236.271 464.392C236.232 464.323 236.216 464.24 236.227 464.159C236.238 464.078 236.274 464.004 236.329 463.951C236.383 463.898 236.453 463.87 236.525 463.873Z" fill="#353A3E"/>
<path d="M232.947 465.544C237.609 465.394 243.03 467.202 245.957 471.541C246.076 471.703 245.859 471.89 245.718 471.803C241.624 469.409 237.317 467.532 232.871 466.205C232.803 466.183 232.744 466.133 232.706 466.066C232.667 465.998 232.651 465.917 232.66 465.836C232.669 465.756 232.703 465.682 232.756 465.628C232.809 465.575 232.877 465.545 232.947 465.544Z" fill="#353A3E"/>
<path d="M229.381 467.177C234.032 467.04 239.452 468.848 242.39 473.175C242.51 473.35 242.304 473.524 242.163 473.449C238.062 471.058 233.752 469.177 229.305 467.838C229.237 467.816 229.178 467.767 229.139 467.699C229.1 467.632 229.084 467.55 229.093 467.47C229.103 467.39 229.137 467.316 229.189 467.262C229.242 467.208 229.31 467.178 229.381 467.177Z" fill="#353A3E"/>
<path d="M225.802 468.873C230.453 468.723 235.874 470.531 238.812 474.871C238.921 475.033 238.715 475.22 238.574 475.145C234.473 472.754 230.163 470.873 225.716 469.534C225.647 469.512 225.587 469.462 225.548 469.393C225.51 469.324 225.494 469.241 225.505 469.159C225.515 469.078 225.552 469.004 225.606 468.951C225.661 468.899 225.731 468.871 225.802 468.873Z" fill="#353A3E"/>
<path d="M277.604 473.873C282.829 473.811 282.916 483.15 277.691 483.213C272.465 483.275 272.367 473.936 277.604 473.873Z" fill="#353A3E"/>
<path d="M231.787 457.501C234.345 461.242 238.205 463.487 241.544 466.068C241.623 466.116 241.711 466.143 241.8 466.146C241.89 466.149 241.978 466.128 242.06 466.084C242.141 466.041 242.212 465.976 242.267 465.895C242.323 465.814 242.361 465.72 242.379 465.619C242.397 465.623 242.416 465.622 242.434 465.616C242.452 465.61 242.469 465.599 242.482 465.585C242.496 465.57 242.506 465.552 242.513 465.532C242.52 465.512 242.522 465.49 242.52 465.469C242.137 460.568 240.642 455.868 238.183 451.841C236.698 449.534 233.706 447.377 231.375 449.658C229.044 451.94 230.356 455.344 231.787 457.501ZM231.527 453.075C231.917 447.239 236.546 451.641 237.576 453.399C238.223 454.548 238.806 455.744 239.322 456.978C240.406 459.534 241.165 462.227 242.032 464.883C240.46 463.487 238.78 462.277 237.175 460.955C235.245 459.384 231.31 456.292 231.527 453.075Z" fill="#353A3E"/>
<path d="M259.021 461.803C258.609 458.312 255.14 457.601 252.69 458.187C248.508 459.27 244.649 461.601 241.501 464.945C241.485 464.958 241.473 464.975 241.464 464.994C241.455 465.014 241.45 465.035 241.45 465.057C241.45 465.079 241.455 465.101 241.464 465.121C241.473 465.14 241.485 465.157 241.501 465.17C241.454 465.258 241.426 465.357 241.419 465.46C241.412 465.563 241.427 465.667 241.462 465.762C241.497 465.857 241.551 465.941 241.62 466.007C241.689 466.073 241.771 466.12 241.859 466.142C245.848 466.79 250.044 468.05 254.088 467.277C256.473 466.828 259.4 465.107 259.021 461.803ZM248.104 465.706C246.141 465.444 244.19 465.07 242.217 464.883C244.362 463.51 246.565 462.261 248.819 461.142C249.919 460.61 251.049 460.164 252.202 459.808C253.99 459.297 259.986 459.583 256.885 464.222C255.183 466.741 250.456 466.017 248.104 465.706Z" fill="#353A3E"/>
<path d="M217.346 183.196C217.346 183.196 218.311 206.189 222.886 224.344C223.255 225.852 223.656 227.336 224.079 228.758C228.275 230.7 232.307 233.084 236.124 235.877C236.124 235.877 236.601 254.369 237.089 275.005C237.62 298.073 238.173 323.796 238.064 329.258C237.642 349.67 240.287 461.928 240.287 461.928L289.573 462.153C289.573 462.153 280.661 336.802 280.726 329.32C280.823 317.3 278.341 264.17 276.389 225.416C275.218 201.55 274.221 183.146 274.221 183.146L217.346 183.196Z" fill="#353A3E"/>
<path d="M241.945 451.89C249.48 451.741 247.312 451.666 254.847 451.616C258.533 451.616 282.753 451.466 286.19 452.14C286.206 452.147 286.221 452.16 286.231 452.176C286.241 452.193 286.246 452.213 286.246 452.233C286.246 452.254 286.241 452.273 286.231 452.29C286.221 452.307 286.206 452.32 286.19 452.327C282.742 452.963 258.533 452.601 254.847 452.539C247.312 452.426 249.48 452.364 241.945 452.14C241.917 452.14 241.889 452.127 241.869 452.103C241.848 452.08 241.837 452.048 241.837 452.015C241.837 451.982 241.848 451.95 241.869 451.927C241.889 451.903 241.917 451.89 241.945 451.89Z" fill="#10217D"/>
<path d="M270.123 191.413C271.034 223.034 271.988 254.668 273.224 286.289C274.459 317.911 276.118 349.732 278.427 381.378C279.718 399.047 280.932 423.922 282.591 441.566C282.591 441.678 282.439 441.728 282.428 441.566C278.839 410.194 276.845 371.39 275.077 339.819C273.31 308.247 272.118 276.626 271.174 245.054C270.643 227.174 270.242 209.281 269.776 191.438C269.776 191.138 270.112 191.151 270.123 191.413Z" fill="#353A3E"/>
<path d="M222.008 227.436C226.912 229.789 231.628 232.63 236.102 235.927C236.121 235.938 236.138 235.954 236.152 235.973C236.166 235.992 236.177 236.014 236.183 236.038C236.19 236.062 236.192 236.087 236.19 236.112C236.188 236.136 236.182 236.161 236.172 236.183C236.162 236.205 236.149 236.224 236.132 236.24C236.116 236.256 236.096 236.269 236.076 236.276C236.055 236.284 236.033 236.286 236.012 236.284C235.99 236.282 235.969 236.275 235.95 236.264C231.201 233.608 226.344 231.039 221.726 228.084C221.651 228.041 221.594 227.966 221.568 227.874C221.541 227.783 221.548 227.684 221.585 227.598C221.622 227.512 221.688 227.446 221.767 227.416C221.847 227.386 221.933 227.393 222.008 227.436Z" fill="#353A3E"/>
<path d="M221.737 207.934C222.062 209.941 222.485 211.936 222.821 213.944C223.157 215.951 223.439 217.685 223.906 219.592C224.261 221.392 225.059 223.037 226.204 224.331C226.844 225.016 227.548 225.577 228.231 226.251C228.6 226.587 229.001 226.912 229.381 227.261C229.326 226.999 229.294 226.725 229.25 226.45C229.131 225.69 229.023 224.917 228.903 224.156C228.665 222.46 228.426 220.752 228.199 219.056C227.754 215.714 227.342 212.335 226.735 209.081C226.742 209.059 226.754 209.04 226.771 209.026C226.787 209.013 226.807 209.006 226.827 209.006C226.848 209.006 226.867 209.013 226.884 209.026C226.9 209.04 226.913 209.059 226.919 209.081C227.646 212.36 228.448 215.615 229.088 218.919C229.391 220.54 230.497 228.545 230.551 229.119C230.606 229.692 230.638 230.291 230.66 230.877C230.725 231.473 230.725 232.076 230.66 232.672C230.65 232.699 230.633 232.722 230.612 232.738C230.591 232.754 230.566 232.762 230.541 232.762C230.515 232.762 230.49 232.754 230.469 232.738C230.448 232.722 230.431 232.699 230.421 232.672C230.212 232.115 230.066 231.528 229.988 230.927C229.858 230.353 229.738 229.78 229.652 229.193C229.652 228.982 229.597 228.77 229.565 228.558C228.882 228.071 228.242 227.448 227.602 226.912C226.963 226.375 226.204 225.777 225.553 225.141C224.345 223.964 223.472 222.395 223.049 220.64C222.632 218.755 222.36 216.831 222.236 214.892C222.008 212.61 221.846 210.328 221.575 208.059C221.531 207.822 221.683 207.822 221.737 207.934Z" fill="#353A3E"/>
<path d="M275.891 199.518C275.728 199.742 210.299 200.016 209.638 199.181C208.727 197.996 216.837 118.98 228.307 101.1C231.18 96.6234 244.255 94.3914 247.822 99.6284C269.201 130.714 276.444 198.745 275.891 199.518Z" fill="#407BFF"/>
<path d="M232.741 111.698C235.744 112.022 242.282 105.912 244.971 100.601C245.144 100.227 244.743 96.3238 244.439 91.5482C244.266 88.6429 244.136 85.4134 244.19 82.4583L227.928 86.4982C228.768 90.2296 229.209 94.0653 229.24 97.9198C229.223 98.3393 229.176 98.7564 229.099 99.1667C229.099 99.1667 229.099 99.2914 229.099 99.3662C228.73 101.623 228.025 111.174 232.741 111.698Z" fill="#D3766A"/>
<path d="M244.45 90.7129C241.067 96.2242 235.95 101.548 229.011 100.489C229.011 100.002 229.109 99.6033 229.152 99.329C229.156 99.2626 229.156 99.1959 229.152 99.1295C229.238 98.7212 229.282 98.3027 229.282 97.8826C229.253 94.0288 228.816 90.1935 227.981 86.461L244.244 82.421C244.125 85.1268 244.244 88.0445 244.45 90.7129Z" fill="#353A3E"/>
<path d="M248.104 61.2487C249.698 67.8822 246.228 86.8102 242.054 90.925C236.016 96.8851 226.334 97.1595 221.987 88.88C217.769 80.8375 222.67 56.2611 227.299 52.5453C234.129 47.0839 245.751 51.448 248.104 61.2487Z" fill="#D3766A"/>
<path d="M232.806 71.1617C232.806 71.1617 232.882 71.2366 232.871 71.2989C232.611 72.5458 232.491 74.067 233.424 74.7279C233.424 74.7279 233.424 74.8027 233.424 74.7279C232.21 74.3039 232.383 72.3089 232.806 71.1617Z" fill="#353A3E"/>
<path d="M234.031 70.0645C235.842 70.3263 235.256 74.4785 233.576 74.2291C231.896 73.9797 232.524 69.84 234.031 70.0645Z" fill="#353A3E"/>
<path d="M226.236 69.6399C226.236 69.6399 226.139 69.6399 226.139 69.7396C225.987 70.9865 225.629 72.4828 224.556 72.7197V72.7946C225.813 72.8195 226.279 70.8993 226.236 69.6399Z" fill="#353A3E"/>
<path d="M225.434 68.1687C223.656 67.6699 222.919 71.7972 224.567 72.2585C226.215 72.7199 226.92 68.5303 225.434 68.1687Z" fill="#353A3E"/>
<path d="M235.777 68.4308C235.321 68.1888 234.879 67.9139 234.454 67.6079C233.957 67.3886 233.537 66.985 233.261 66.4607C233.197 66.2786 233.189 66.0765 233.238 65.8882C233.287 65.6999 233.391 65.5367 233.532 65.4258C233.837 65.2478 234.178 65.1667 234.519 65.1908C234.86 65.2149 235.189 65.3434 235.473 65.563C236.104 65.9065 236.602 66.506 236.872 67.2463C236.923 67.419 236.931 67.6052 236.893 67.7826C236.855 67.9599 236.773 68.1209 236.657 68.246C236.542 68.3712 236.397 68.4552 236.241 68.488C236.084 68.5208 235.923 68.501 235.777 68.4308Z" fill="#353A3E"/>
<path d="M224.404 66.2616C224.905 66.2391 225.404 66.1849 225.9 66.0995C226.432 66.1332 226.958 65.962 227.396 65.6132C227.515 65.4716 227.592 65.2893 227.613 65.0937C227.635 64.898 227.6 64.6997 227.515 64.5284C227.297 64.2251 227.012 63.9946 226.689 63.8608C226.367 63.7271 226.02 63.6949 225.683 63.7678C224.986 63.788 224.32 64.1084 223.818 64.6656C223.709 64.7993 223.636 64.9665 223.608 65.147C223.58 65.3275 223.598 65.5135 223.66 65.6825C223.722 65.8514 223.825 65.996 223.957 66.0988C224.089 66.2016 224.244 66.2582 224.404 66.2616Z" fill="#353A3E"/>
<path d="M231.505 79.2167C231.15 79.6731 230.716 80.0388 230.23 80.2901C229.745 80.5414 229.219 80.6727 228.686 80.6755C228.222 80.6942 227.758 80.6311 227.31 80.4885C227.22 80.472 227.133 80.4427 227.049 80.4012L226.811 80.3139C226.752 80.2938 226.701 80.2501 226.667 80.1908C226.633 80.1314 226.619 80.0601 226.627 79.9897V79.8651V79.7528C226.746 78.7553 227.049 77.259 227.049 77.259C226.702 77.3837 224.979 77.9074 225.076 77.3962C225.838 72.9513 226.99 68.6066 228.513 64.4284C228.527 64.4075 228.546 64.392 228.567 64.3842C228.589 64.3764 228.612 64.3767 228.634 64.3849C228.656 64.3932 228.674 64.4091 228.688 64.4303C228.701 64.4515 228.708 64.4771 228.708 64.5032C228.047 68.6055 226.757 72.5582 226.041 76.673C226.655 76.4738 227.29 76.3772 227.928 76.3862C228.036 76.3862 227.299 79.2541 227.277 79.703C227.971 79.9178 228.695 79.9701 229.406 79.8565C230.118 79.743 230.802 79.466 231.419 79.0421C231.516 79.0172 231.592 79.1294 231.505 79.2167Z" fill="#353A3E"/>
<path d="M224.35 59.3534C229.608 64.6028 238.097 58.8297 238.097 58.8297C238.442 60.3275 239.198 61.6572 240.253 62.621C241.308 63.5848 242.605 64.1312 243.951 64.1789C243.951 64.1789 243.951 75.401 246.51 75.7501C250.402 76.2364 253.113 61.2362 252.18 58.094C251.248 54.9518 248.039 53.7548 248.039 53.7548C247.865 51.9089 247.091 50.2071 245.87 48.9916C243.453 46.3108 233.945 48.2435 233.945 48.2435C233.562 46.7688 232.882 45.4188 231.961 44.3033C231.742 44.0243 231.476 43.7996 231.179 43.6427C230.882 43.4858 230.56 43.4001 230.234 43.3908C229.907 43.3814 229.582 43.4487 229.279 43.5884C228.976 43.7281 228.7 43.9374 228.47 44.2035C228.873 45.0907 229.099 46.0707 229.131 47.0714C229.261 50.3882 226.963 50.0764 227.266 47.0714C227.351 45.9609 227.778 44.9217 228.47 44.1412C227.526 42.0589 225.727 41.186 224.491 42.0713C222.257 43.7422 219.97 54.9767 224.35 59.3534Z" fill="#353A3E"/>
<path d="M244.851 60.6872C244.905 60.5002 245.133 60.5999 245.079 60.7994C244.436 62.963 244.018 65.2063 243.832 67.4828C243.735 69.7397 244.212 75.5253 247.085 75.2261C247.113 75.2261 247.141 75.2392 247.161 75.2626C247.182 75.286 247.193 75.3177 247.193 75.3508C247.193 75.3838 247.182 75.4155 247.161 75.4389C247.141 75.4623 247.113 75.4754 247.085 75.4754C245.133 76.2485 244.136 73.3557 243.713 71.3856C242.987 67.8569 243.756 64.0788 244.851 60.6872Z" fill="#353A3E"/>
<path d="M224.664 41.984C222.931 43.8906 221.761 46.3733 221.318 49.0837C220.874 51.7941 221.18 54.5961 222.192 57.0965C225.022 63.5429 232.329 60.5878 236.72 58.5803C236.936 58.4805 237.099 58.8546 236.882 58.9543C232.546 61.0616 225.195 63.8172 222.159 57.9069C219.514 52.6949 220.891 45.9866 224.664 41.984Z" fill="#353A3E"/>
<path d="M247.215 53.6422C250.988 54.6148 253.514 57.0463 253.416 61.7471C253.329 64.1105 252.816 66.4272 251.909 68.5502C251.002 70.6732 249.721 72.556 248.147 74.079C248.116 74.1008 248.08 74.1092 248.044 74.1028C248.008 74.0964 247.976 74.0755 247.952 74.044C247.929 74.0124 247.916 73.9722 247.916 73.9306C247.916 73.889 247.928 73.8488 247.952 73.8171C250.235 71.3462 251.868 68.1882 252.668 64.7023C253.021 63.3702 253.126 61.9672 252.975 60.5854C252.823 59.2037 252.419 57.8743 251.79 56.6847C250.76 55.0138 248.776 54.3904 247.171 53.8043C247.157 53.7943 247.145 53.779 247.139 53.7607C247.133 53.7425 247.133 53.7224 247.138 53.7037C247.143 53.685 247.153 53.6688 247.167 53.6577C247.181 53.6465 247.198 53.6411 247.215 53.6422Z" fill="#353A3E"/>
<path d="M232.72 49.0419C237.815 46.3111 247.551 44.3784 248.006 53.6928C248.001 53.7061 247.993 53.7175 247.982 53.7255C247.972 53.7335 247.959 53.7377 247.946 53.7377C247.934 53.7377 247.921 53.7335 247.911 53.7255C247.9 53.7175 247.892 53.7061 247.887 53.6928C246.987 44.2912 237.945 47.2713 232.795 49.2663C232.772 49.2693 232.748 49.2631 232.727 49.2489C232.707 49.2347 232.691 49.2131 232.683 49.1875C232.674 49.162 232.673 49.1338 232.68 49.1075C232.686 49.0812 232.7 49.0581 232.72 49.0419Z" fill="#353A3E"/>
<path d="M244.201 76.6354C244.201 76.6354 248.19 70.6877 250.554 72.3585C252.917 74.0294 249.741 82.7701 246.846 83.8425C246.485 84.0081 246.099 84.0886 245.71 84.0794C245.321 84.0702 244.938 83.9714 244.583 83.7889C244.229 83.6063 243.909 83.3438 243.644 83.0167C243.379 82.6897 243.174 82.3048 243.041 81.8848L244.201 76.6354Z" fill="#D3766A"/>
<path d="M249.589 74.8397V74.927C247.561 75.75 246.423 77.8198 245.599 79.9894C245.722 79.764 245.887 79.5725 246.082 79.4284C246.277 79.2843 246.497 79.1912 246.726 79.1555C246.956 79.1198 247.189 79.1425 247.41 79.222C247.632 79.3014 247.835 79.4357 248.006 79.6154C248.012 79.6194 248.018 79.625 248.022 79.6316C248.027 79.6382 248.03 79.6457 248.032 79.6538C248.034 79.6619 248.035 79.6704 248.034 79.6788C248.033 79.6872 248.031 79.6953 248.027 79.7026C248.024 79.71 248.019 79.7165 248.013 79.7217C248.008 79.727 248.001 79.7309 247.994 79.7332C247.987 79.7355 247.98 79.7362 247.972 79.7352C247.965 79.7343 247.958 79.7317 247.952 79.7276C247.605 79.5817 247.227 79.5621 246.87 79.6714C246.514 79.7807 246.195 80.0136 245.957 80.3386C245.566 80.8853 245.228 81.479 244.948 82.1092C244.84 82.3211 244.526 82.184 244.602 81.9595C244.699 78.9794 246.846 74.9893 249.589 74.8397Z" fill="#353A3E"/>
<path d="M241.512 78.8675C242.454 77.7578 243.446 76.7049 244.482 75.7128C245.521 74.7015 246.606 73.7566 247.735 72.8823C245.845 75.1032 243.771 77.1077 241.544 78.8675H241.512Z" fill="white"/>
<path d="M246.618 83.78C245.967 85.3376 245.171 86.8092 244.244 88.1691C243.346 89.5636 242.246 90.77 240.992 91.7353C242.054 90.5418 243.036 89.258 243.93 87.8948C244.396 87.2215 244.83 86.5357 245.274 85.8499L246.618 83.78Z" fill="white"/>
<path d="M241.512 78.8674C240.504 77.6205 228.144 72.6329 227.787 72.5457C225.109 73.169 222.477 74.032 219.916 75.1267C219.428 75.5756 219.168 86.8975 221.499 89.9025C223.255 92.1359 225.214 94.1466 227.342 95.9001C227.602 95.9999 236.308 96.2866 241.035 91.7355C241.859 90.9499 242.672 80.3762 241.512 78.8674Z" fill="#EBEBEB"/>
<path d="M226.073 89.8153L227.266 95.8503H227.353C227.602 95.9501 236.308 96.2368 241.035 91.6857C241.859 90.9001 242.672 80.3264 241.512 78.8176C240.503 77.5707 228.144 72.5831 227.786 72.4958L226.453 79.6032L226.073 89.8153Z" fill="white"/>
<path d="M232.339 75.7125C230.784 74.9045 229.183 74.2172 227.548 73.6552C226.394 73.8544 225.25 74.125 224.122 74.4656L224.067 75.2886C225.165 74.9808 226.276 74.7394 227.396 74.5654C227.873 74.6402 232.155 76.4732 232.155 76.4732L232.339 75.7125Z" fill="#DBDBDB"/>
<path d="M239.368 81.0832L241.009 80.7257L240.928 80.2357L239.288 80.5932L239.368 81.0832Z" fill="#DBDBDB"/>
<path d="M239.075 90.8415L240.716 90.484L240.635 89.994L238.995 90.3515L239.075 90.8415Z" fill="#DBDBDB"/>
<path d="M229.879 95.4013H229.499V95.289H229.89L229.879 95.4013ZM230.269 95.4013V95.289H230.659V95.4013H230.269ZM229.109 95.4761H228.719V95.3763H229.109V95.4761ZM231.039 95.3264V95.2142H231.418V95.3264H231.039ZM231.809 95.2267V95.1145L232.188 95.0521V95.1643L231.809 95.2267ZM228.329 95.4885H227.949V95.3763H228.339L228.329 95.4885ZM232.578 95.102V94.9898L232.958 94.915V95.0272L232.578 95.102ZM227.559 95.4511H227.494C227.389 95.3941 227.291 95.323 227.201 95.2392L227.255 95.1519L227.526 95.3514L227.559 95.4511ZM233.337 94.9524V94.8402L233.717 94.7529V94.8651L233.337 94.9524ZM234.096 94.7778V94.6656L234.476 94.5658V94.6781L234.096 94.7778ZM234.844 94.5658V94.4661L235.224 94.3539V94.4536C235.094 94.4661 234.974 94.516 234.844 94.5409V94.5658ZM235.592 94.3414V94.2292L235.961 94.1045V94.2042L235.592 94.3414ZM226.919 94.9649L226.616 94.6905L226.67 94.6032L226.984 94.8651L226.919 94.9649ZM236.362 94.0671V93.9673L236.72 93.8177V93.9299L236.362 94.0671ZM237.099 93.7678V93.6681L237.457 93.506V93.6057L237.099 93.7678ZM226.312 94.4162L226.008 94.1294L226.073 94.0421L226.377 94.3289L226.312 94.4162ZM237.815 93.4312V93.3314L238.162 93.1444V93.2441L237.815 93.4312ZM238.509 93.0446V92.9573L238.856 92.7454V92.8451L238.509 93.0446ZM225.716 93.8426L225.412 93.5558L225.477 93.481L225.77 93.7678L225.716 93.8426ZM239.192 92.5957V92.5085L239.517 92.2715L239.571 92.3713L239.192 92.5957ZM225.098 93.2441L224.805 92.9573L224.87 92.87L225.163 93.1568L225.098 93.2441ZM239.831 92.1219L239.777 92.0346L240.092 91.7728V91.8601L239.831 92.1219ZM240.449 91.5857L240.395 91.5109L240.558 91.3488C240.598 91.3113 240.631 91.2646 240.655 91.2117L240.731 91.274C240.704 91.3352 240.667 91.3902 240.623 91.4361L240.449 91.5857ZM224.523 92.6581L224.23 92.3588L224.296 92.284L224.588 92.5708L224.523 92.6581ZM240.894 90.8501H240.796C240.796 90.7254 240.872 90.5882 240.916 90.4261H241.002C240.959 90.6132 240.916 90.7254 240.883 90.8501H240.894ZM223.949 92.097L223.667 91.7977L223.732 91.7104L224.014 92.0097L223.949 92.097ZM223.385 91.486L223.114 91.1743L223.179 91.0995L223.45 91.3987L223.385 91.486ZM241.089 90.0271H241.002C241.002 89.89 241.002 89.7403 241.078 89.5907H241.197C241.132 89.7029 241.111 89.8401 241.078 89.9897L241.089 90.0271ZM222.832 90.8625L222.561 90.5383L222.637 90.4635C222.723 90.5633 222.81 90.6755 222.908 90.7753L222.832 90.8625ZM241.263 89.1418H241.165C241.165 88.9922 241.165 88.855 241.219 88.7054H241.317C241.262 88.8176 241.252 88.9672 241.197 89.1044L241.263 89.1418ZM222.322 90.2141L222.062 89.89L222.127 89.8151L222.387 90.1393L222.322 90.2141ZM241.371 88.269H241.273C241.273 88.1318 241.273 87.9822 241.273 87.8326H241.371C241.371 87.9323 241.36 88.1194 241.338 88.2316L241.371 88.269ZM221.802 89.5159C221.721 89.3981 221.648 89.273 221.585 89.1418H221.661C221.726 89.2682 221.798 89.3891 221.878 89.5034L221.802 89.5159ZM241.469 87.3463H241.371V86.8974H241.469V87.3463ZM221.39 88.7553C221.339 88.6306 221.285 88.4934 221.227 88.3438H221.314L221.477 88.7428L221.39 88.7553ZM241.544 86.461H241.447V86.0121H241.534C241.534 86.1617 241.523 86.3113 241.512 86.461H241.544ZM221.086 87.9323L220.956 87.5084H221.054C221.087 87.652 221.127 87.7935 221.173 87.9323H221.086ZM241.599 85.5632H241.501C241.501 85.4136 241.501 85.2639 241.501 85.1143H241.599C241.577 85.2764 241.577 85.4261 241.566 85.6256L241.599 85.5632ZM220.848 87.0844L220.75 86.648H220.837L220.935 87.072L220.848 87.0844ZM241.642 84.6779H241.544C241.544 84.5283 241.544 84.3786 241.544 84.229H241.642C241.62 84.3786 241.609 84.5283 241.609 84.6779H241.642ZM220.599 86.2116C220.599 86.0744 220.599 85.9248 220.523 85.7752H220.599C220.599 85.9123 220.599 86.062 220.674 86.1991L220.599 86.2116ZM241.609 83.7926H241.512C241.512 83.643 241.512 83.5058 241.512 83.3562H241.609C241.631 83.4934 241.631 83.643 241.631 83.7926H241.609ZM220.447 85.3388C220.447 85.2016 220.447 85.052 220.393 84.9023H220.479L220.544 85.3388H220.447ZM241.62 82.845H241.523C241.523 82.6953 241.523 82.5457 241.523 82.4085H241.62C241.631 82.5956 241.631 82.7452 241.642 82.8948L241.62 82.845ZM220.327 84.4161C220.327 84.2664 220.327 84.1168 220.327 83.9672H220.425C220.425 84.1168 220.425 84.2664 220.479 84.4161H220.327ZM241.599 81.9223H241.501C241.501 81.7851 241.501 81.6479 241.501 81.5108H241.599C241.609 81.7227 241.609 81.8848 241.62 82.0095L241.599 81.9223ZM220.23 83.4934V83.0445H220.317C220.317 83.1941 220.317 83.3437 220.317 83.4934H220.23ZM241.447 80.9996C241.447 80.8499 241.447 80.7003 241.447 80.5631H241.544C241.544 80.7003 241.544 80.8499 241.544 80.9996H241.447ZM220.154 82.5706C220.154 82.421 220.154 82.2714 220.154 82.1218H220.241V82.5582L220.154 82.5706ZM241.338 80.0768C241.318 79.9333 241.289 79.7916 241.252 79.6529H241.349C241.384 79.7966 241.413 79.9423 241.436 80.0893L241.338 80.0768ZM220.197 81.623H220.1C220.1 81.4734 220.1 81.3237 220.1 81.1741H220.197C220.208 81.4983 220.208 81.6479 220.219 81.7976L220.197 81.623ZM241.197 79.391C241.158 79.2919 241.107 79.1995 241.046 79.1167C240.96 79.013 240.861 78.9247 240.753 78.8549L240.807 78.7551C240.921 78.8373 241.026 78.9334 241.122 79.0419C241.185 79.1343 241.24 79.2347 241.284 79.3412L241.197 79.391ZM220.219 80.8873H220.132C220.132 80.7377 220.132 80.6005 220.132 80.4509H220.23C220.176 80.6379 220.176 80.7626 220.176 80.9123L220.219 80.8873ZM240.417 78.6304L240.081 78.4309V78.3312L240.428 78.5307L240.417 78.6304ZM220.197 80.002H220.111C220.111 79.8524 220.111 79.7028 220.111 79.5531H220.208L220.197 80.002ZM239.712 78.2314L239.365 78.0444V77.9446L239.723 78.1317L239.712 78.2314ZM239.007 77.8574L238.65 77.6828V77.583L239.007 77.7576V77.8574ZM220.176 79.1043H220.078V78.6554H220.176V79.1043ZM238.303 77.4958L237.945 77.3212V77.2214L238.303 77.396V77.4958ZM237.587 77.1591L237.229 76.9845V76.8848L237.587 77.0469V77.1591ZM220.241 78.219H220.143C220.143 78.0693 220.143 77.9197 220.143 77.7825H220.23C220.176 77.9571 220.165 78.1441 220.165 78.2564L220.241 78.219ZM236.861 76.8972L236.492 76.7352V76.6354L236.85 76.7975L236.861 76.8972ZM236.134 76.573L235.777 76.411V76.3112L236.134 76.4733V76.573ZM220.208 77.4085H220.111V76.9596H220.208C220.215 77.076 220.212 77.2131 220.197 77.3711L220.208 77.4085ZM235.386 76.2489L235.018 76.0868V75.987L235.376 76.1491L235.386 76.2489ZM234.66 75.9371L234.302 75.775V75.6753L234.66 75.8249V75.9371ZM233.934 75.6254L233.576 75.4633V75.3636L233.934 75.5132V75.6254ZM220.241 76.5232H220.143C220.143 76.3486 220.143 76.199 220.143 76.0743H220.241C220.306 76.174 220.284 76.3112 220.262 76.4858L220.241 76.5232ZM233.251 75.2763L232.893 75.1266V75.0144L233.251 75.1765V75.2763ZM232.524 74.9645L232.166 74.8149V74.7152L232.524 74.8648V74.9645ZM220.436 75.6379H220.349C220.362 75.6013 220.381 75.5676 220.403 75.5381C220.491 75.4712 220.586 75.4167 220.685 75.376V75.4758C220.591 75.5075 220.503 75.5582 220.425 75.6254C220.425 75.6254 220.425 75.6503 220.414 75.6503L220.436 75.6379ZM231.798 74.6653L231.44 74.5157V74.4034L231.798 74.5655V74.6653ZM221.086 75.2763V75.1641L221.455 75.0269V75.1266L221.086 75.2763ZM231.071 74.366L230.714 74.2164V74.1042L231.071 74.2538V74.366ZM221.824 74.9895V74.8773L222.192 74.7526V74.8523L221.824 74.9895ZM222.561 74.7276V74.6154L222.929 74.4907V74.603L222.561 74.7276ZM230.345 74.0668L229.976 73.9172V73.8174L230.345 73.967V74.0668ZM223.298 74.4658V74.366L223.667 74.2413V74.3411L223.298 74.4658ZM224.046 74.2289V74.1166L224.426 73.992V74.1042L224.046 74.2289ZM229.619 73.7675L229.25 73.6179V73.5181L229.608 73.6678L229.619 73.7675ZM224.794 73.9795V73.8797L225.174 73.7551V73.8673L224.794 73.9795ZM225.531 73.7551V73.6428L225.911 73.5306V73.6428L225.531 73.7551ZM228.881 73.4807L228.513 73.3311V73.2314L228.881 73.3685V73.4807ZM226.279 73.4807V73.3685L226.659 73.2563V73.3685L226.279 73.4807ZM227.038 73.2688V73.1565L227.418 73.0568V73.169L227.038 73.2688ZM228.123 73.1441L227.927 73.0693H227.765V72.957H227.96L228.166 73.0319L228.123 73.1441Z" fill="#DBDBDB"/>
<path d="M230.052 95.6007V95.4885H230.443V95.6007H230.052ZM229.662 95.6007H229.272H229.662ZM230.822 95.501V95.3887H231.202V95.501H230.822ZM228.892 95.6381H228.502V95.6007H228.892V95.6381ZM231.592 95.4137V95.3014L231.971 95.2391V95.3513L231.592 95.4137ZM228.112 95.6381H227.732V95.6007H228.112V95.6381ZM232.362 95.289V95.1892L232.752 95.1144V95.2266L232.362 95.289ZM233.121 95.1518V95.0396L233.5 94.9648V95.077L233.121 95.1518ZM227.331 95.5384L227.006 95.289L227.071 95.2017L227.385 95.4511L227.331 95.5384ZM233.836 94.9897V94.8775L234.216 94.7902V94.89L233.836 94.9897ZM234.595 94.7902V94.6905L234.964 94.5782V94.6905L234.595 94.7902ZM235.343 94.5782V94.466L235.712 94.3413V94.4536L235.343 94.5782ZM236.08 94.3164V94.2166L236.449 94.0795V94.1792L236.08 94.3164ZM226.659 95.0147C226.561 94.9398 226.464 94.8401 226.356 94.7403V94.6531C226.464 94.7528 226.561 94.8526 226.659 94.9274V95.0147ZM236.818 94.0421V93.9299L237.175 93.7802V93.88L236.818 94.0421ZM237.544 93.7179V93.6181L237.902 93.4436V93.5433L237.544 93.7179ZM226.052 94.466L225.748 94.1917L225.813 94.1044L226.106 94.3787L226.052 94.466ZM238.249 93.3563V93.2565L238.596 93.057V93.1568L238.249 93.3563ZM238.943 92.9448V92.8575L239.279 92.6331V92.7328L238.943 92.9448ZM225.445 93.9049C225.358 93.8052 225.25 93.7179 225.152 93.6181L225.217 93.5308L225.51 93.8176L225.445 93.9049ZM239.615 92.4959L239.56 92.4086L239.886 92.1593L239.94 92.259L239.615 92.4959ZM224.859 93.3313L224.567 93.0321L224.632 92.9448L224.924 93.2441L224.859 93.3313ZM240.254 91.9972L240.2 91.9099L240.504 91.648L240.569 91.7228L240.254 91.9972ZM224.285 92.7328C224.182 92.6401 224.084 92.5402 223.992 92.4336L224.057 92.3588L224.35 92.658L224.285 92.7328ZM240.861 91.4236H240.786C240.844 91.299 240.895 91.1698 240.937 91.037H241.035C241.001 91.1901 240.958 91.3402 240.905 91.4859L240.861 91.4236ZM223.71 92.1343L223.428 91.8351L223.493 91.7478L223.775 92.0595L223.71 92.1343ZM241.198 90.6131H241.111C241.111 90.4884 241.111 90.3388 241.198 90.1892H241.295C241.252 90.3637 241.198 90.5133 241.198 90.6131ZM223.201 91.5607L222.93 91.249L222.995 91.1742C223.081 91.274 223.179 91.3737 223.266 91.4859L223.201 91.5607ZM241.371 89.7403H241.273C241.273 89.6031 241.328 89.4535 241.349 89.3039H241.447C241.404 89.4784 241.382 89.6281 241.36 89.7652L241.371 89.7403ZM222.648 90.9872L222.387 90.663L222.453 90.5882L222.724 90.9124L222.648 90.9872ZM241.501 88.9173H241.404L241.469 88.4684H241.555C241.534 88.6056 241.512 88.7427 241.49 88.8924L241.501 88.9173ZM222.116 90.3388L221.856 90.0146L221.921 89.9398L222.182 90.264L222.116 90.3388ZM221.596 89.6779L221.368 89.3163L221.455 89.254C221.521 89.3793 221.594 89.5 221.672 89.6156L221.596 89.6779ZM241.61 88.032H241.512C241.512 87.8824 241.512 87.7452 241.512 87.5956H241.61C241.631 87.7203 241.61 87.8699 241.599 88.0071L241.61 88.032ZM221.184 88.9173C221.12 88.7882 221.062 88.655 221.011 88.5183H221.097C221.149 88.655 221.207 88.7882 221.271 88.9173H221.184ZM241.696 87.1467H241.599V86.7103H241.696V87.1467ZM220.87 88.1068L220.74 87.6829H220.826L220.956 88.1068H220.87ZM241.761 86.2614H241.664V85.825H241.761V86.2614ZM220.62 87.2589L220.523 86.8225H220.62L220.718 87.2465L220.62 87.2589ZM241.816 85.3761H241.718C241.718 85.239 241.718 85.0893 241.718 84.9397H241.816C241.826 85.0519 241.816 85.2015 241.805 85.3512L241.816 85.3761ZM220.436 86.3861C220.401 86.2424 220.372 86.0967 220.349 85.9497H220.447C220.447 86.0869 220.447 86.2365 220.523 86.3736L220.436 86.3861ZM241.859 84.4908H241.761C241.761 84.3412 241.761 84.1916 241.761 84.0544H241.859C241.848 84.1666 241.848 84.3786 241.848 84.4659L241.859 84.4908ZM220.273 85.5133L220.208 85.0769H220.306L220.371 85.5133H220.273ZM241.881 83.5931H241.783V83.1317H241.881V83.5931ZM220.198 84.6404C220.198 84.4908 220.197 84.3412 220.143 84.204H220.241C220.241 84.3537 220.241 84.5033 220.241 84.6529L220.198 84.6404ZM241.881 82.7078H241.783C241.783 82.5581 241.783 82.4085 241.783 82.2589H241.881C241.859 82.3836 241.859 82.5332 241.87 82.6828L241.881 82.7078ZM220.046 83.7551C220.046 83.6055 220.046 83.4684 220.046 83.3187H220.143C220.143 83.4684 220.143 83.6055 220.143 83.7551H220.046ZM241.848 81.81H241.751C241.756 81.7228 241.756 81.6353 241.751 81.5481V81.3611H241.848V81.5481C241.826 81.6229 241.837 81.6978 241.837 81.785L241.848 81.81ZM219.97 82.8698V82.4334H220.067V82.8698H219.97ZM241.653 80.9371C241.653 80.7875 241.653 80.6379 241.599 80.5007H241.696C241.696 80.6379 241.696 80.7875 241.751 80.9371H241.653ZM219.97 81.9721H219.872C219.872 81.8349 219.872 81.6978 219.872 81.5606H219.97C219.97 81.6978 219.97 81.8349 219.97 81.9721ZM241.545 80.0643C241.521 79.9204 241.489 79.7787 241.447 79.6404H241.545C241.545 79.7775 241.61 79.9147 241.642 80.0768L241.545 80.0643ZM219.926 81.0868H219.84C219.84 80.9371 219.84 80.7875 219.84 80.6379H219.937C219.937 80.7751 219.948 80.9122 219.948 81.0618L219.926 81.0868ZM241.306 79.2414C241.279 79.1727 241.242 79.1095 241.198 79.0543C241.106 78.9582 241.008 78.8706 240.905 78.7925L240.959 78.7052C241.075 78.7833 241.181 78.8799 241.273 78.992C241.324 79.0489 241.365 79.1167 241.393 79.1915L241.306 79.2414ZM219.905 80.2015H219.807C219.807 80.0518 219.807 79.9147 219.807 79.7651H219.905C219.926 79.8773 219.926 80.0269 219.926 80.1765L219.905 80.2015ZM240.58 78.568C240.471 78.568 240.363 78.4309 240.233 78.3685V78.2688L240.58 78.4683V78.568ZM239.886 78.169L239.539 77.982V77.8822L239.886 78.0693V78.169ZM219.894 79.3162H219.796V78.8673H219.894V79.3162ZM239.181 77.795L238.834 77.6204V77.5206L239.192 77.6952L239.181 77.795ZM238.476 77.4458L238.119 77.2713V77.1715L238.476 77.3461V77.4458ZM237.761 77.1092L237.403 76.9346V76.8348L237.761 76.9969V77.1092ZM219.905 78.4309H219.807C219.807 78.2813 219.807 78.1316 219.807 77.982H219.905C219.926 78.1441 219.926 78.2563 219.926 78.4059L219.905 78.4309ZM237.045 76.7725L236.687 76.6104V76.4982L237.045 76.6727V76.7725ZM236.33 76.4483L235.961 76.2862V76.174L236.319 76.3361L236.33 76.4483ZM219.926 77.5456H219.829C219.829 77.3959 219.829 77.2463 219.829 77.1092H219.926C219.97 77.2214 219.959 77.3585 219.948 77.5206L219.926 77.5456ZM235.603 76.1241L235.246 75.962V75.8623L235.603 76.0244V76.1241ZM234.888 75.7999L234.519 75.6503V75.5381L234.888 75.7002V75.7999ZM219.981 76.6603H219.883C219.883 76.4982 219.883 76.3485 219.883 76.2239H219.981C219.982 76.3614 219.989 76.4987 220.002 76.6353L219.981 76.6603ZM234.161 75.4882L233.793 75.3386V75.2263L234.161 75.3884V75.4882ZM233.435 75.1765L233.066 75.0268V74.9271L233.435 75.0767V75.1765ZM232.709 74.8772L232.34 74.7276V74.6154L232.709 74.765V74.8772ZM220.078 75.7874H219.992C220.046 75.4633 220.1 75.3884 220.132 75.351C220.132 75.351 220.154 75.4632 220.1 75.7625L220.078 75.7874ZM232.004 74.5405L231.635 74.3909V74.2912L232.004 74.4408V74.5405ZM220.555 75.2014V75.1016L220.924 74.9396V75.0518L220.555 75.2014ZM231.278 74.2413L230.909 74.0917V73.9919L231.278 74.1415V74.2413ZM221.293 74.9021V74.8024L221.661 74.6652V74.765L221.293 74.9021ZM222.03 74.6403V74.5281L222.398 74.4034V74.5031L222.03 74.6403ZM230.54 73.942L230.183 73.7924V73.6927L230.54 73.8423V73.942ZM222.767 74.4034V74.3036L223.146 74.1665V74.2787L222.767 74.4034ZM223.504 74.154V74.0418L223.873 73.9296V74.0293L223.504 74.154ZM229.814 73.6677L229.456 73.5306V73.4183L229.825 73.568L229.814 73.6677ZM224.252 73.9171V73.8049L224.621 73.6802V73.7924L224.252 73.9171ZM229.088 73.3809L228.719 73.2313V73.1315L229.088 73.2687V73.3809ZM225 73.6802V73.568L225.38 73.4557V73.5555L225 73.6802ZM225.748 73.4433V73.3435L226.128 73.2313V73.331L225.748 73.4433ZM228.35 73.0941L227.982 72.9445V72.8448L228.35 72.9819V73.0941ZM226.496 73.2313V73.1191L226.865 73.0069V73.1191L226.496 73.2313ZM227.245 73.0193V72.9071L227.635 72.8198V72.932L227.245 73.0193Z" fill="#DBDBDB"/>
<path d="M238.823 80.8025L238.446 80.855L238.47 81.0778L238.846 81.0253L238.823 80.8025Z" fill="#DBDBDB"/>
<path d="M227.981 82.3464H227.873V82.122H227.981H228.621V82.3464H227.981ZM229.391 82.2217V81.9973L230.15 81.9225V82.1469L229.391 82.2217ZM230.898 82.0721V81.8851L231.646 81.7978V82.0222L230.898 82.0721ZM232.416 81.8975V81.6731L233.175 81.5858V81.7978L232.416 81.8975ZM233.923 81.7105V81.486L234.682 81.3988V81.6107L233.923 81.7105ZM235.44 81.5235V81.299L236.189 81.1993V81.4237L235.44 81.5235ZM236.947 81.324V81.0995L237.706 80.9998V81.2117L236.947 81.324Z" fill="#DBDBDB"/>
<path d="M227.103 82.4085H226.713V82.1841H227.103V82.4085Z" fill="#DBDBDB"/>
<path d="M238.27 90.7255L238.249 90.5011L238.628 90.4512L238.661 90.6756L238.27 90.7255Z" fill="#DBDBDB"/>
<path d="M228.654 91.86H228.47V91.6481H228.6H229.294V91.86H228.654ZM230.107 91.7354V91.5109L230.92 91.4361V91.6481L230.107 91.7354ZM231.744 91.5608V91.3364L232.557 91.2491V91.4735L231.744 91.5608ZM233.381 91.3738V91.1493L234.194 91.0496V91.274L233.381 91.3738ZM235.018 91.1742V90.9498L235.831 90.8501V91.062L235.018 91.1742ZM236.644 90.9623V90.7378L237.457 90.6256V90.8501L236.644 90.9623Z" fill="#DBDBDB"/>
<path d="M227.656 91.8602H227.266V91.6357H227.646L227.656 91.8602Z" fill="#DBDBDB"/>
<path d="M225.9 82.2842L225.152 82.0099L225.217 81.7979L225.954 82.0722L225.9 82.2842ZM224.415 81.7231L223.688 81.4363L223.753 81.2243L224.48 81.5111L224.415 81.7231ZM222.951 81.137L222.225 80.8378L222.29 80.6258L223.016 80.9375L222.951 81.137ZM221.498 80.5261L220.783 80.1894L220.859 79.9774L221.574 80.3141L221.498 80.5261ZM220.078 79.8153L219.807 79.6408L219.905 79.4537L220.165 79.6158L220.078 79.8153Z" fill="#DBDBDB"/>
<path d="M226.312 91.8601L225.607 91.4736L225.694 91.2741L226.388 91.6606L226.312 91.8601ZM224.914 91.0746L224.231 90.6631L224.317 90.4761L225.011 90.8751L224.914 91.0746ZM223.548 90.2516L222.865 89.8152L222.962 89.6282L223.634 90.0521L223.548 90.2516ZM222.192 89.3663C221.965 89.2167 221.737 89.0546 221.531 88.8925L221.639 88.7179L222.29 89.1793L222.192 89.3663ZM220.891 88.3813L220.75 88.2566L220.881 88.082L221.011 88.2067L220.891 88.3813Z" fill="#DBDBDB"/>
<path d="M227.786 72.5457C227.613 73.7926 227.418 74.9771 227.212 76.1991C227.006 77.421 226.811 78.6929 226.594 79.84L226.529 82.3338C226.529 83.1568 226.529 83.9673 226.453 84.8276L226.258 89.7529C226.637 91.8477 227.017 93.9425 227.342 96.0497C226.843 93.9799 226.399 91.91 225.943 89.8152L226.073 84.8276C226.073 84.0047 226.139 83.1817 226.16 82.3338L226.258 79.84C226.485 78.5931 226.746 77.421 226.995 76.224C227.244 75.027 227.515 73.7427 227.786 72.5457Z" fill="#D7DDFF"/>
<path d="M228.188 101.935H228.242C227.613 105.539 226.345 113.955 231.375 114.242C233.427 114.145 235.412 113.379 237.1 112.035C238.834 110.823 240.448 109.397 241.913 107.783C243.611 106.039 245.178 104.132 246.597 102.085C246.662 101.997 246.77 102.085 246.705 102.209C245.263 104.242 243.995 106.411 242.369 108.294C240.831 110.133 239.08 111.719 237.165 113.008C235.376 114.395 233.262 115.122 231.104 115.09C230.175 114.993 229.303 114.528 228.637 113.776C227.971 113.024 227.552 112.03 227.451 110.963C227.107 107.928 227.359 104.843 228.188 101.935Z" fill="#353A3E"/>
<path d="M251.031 102.471C272.237 127.871 303.168 192.173 306.984 201.4C309.575 207.635 281.127 224.156 279.88 219.605C278.33 213.77 253.546 141.811 246.965 114.653C243.366 99.6782 246.618 97.2342 251.031 102.471Z" fill="#D3766A"/>
<path d="M278.579 215.303C279.577 218.42 282.916 231.662 285.312 233.308C287.708 234.954 300.078 234.555 306.323 234.555C312.567 234.555 313.803 232.548 313.706 230.079C313.608 227.61 300.49 227.136 300.49 227.136C300.49 227.136 317.999 232.909 322.411 233.844C326.824 234.78 336.961 237.735 338.435 233.533C339.097 231.637 336.267 229.792 336.267 229.792C336.267 229.792 340.528 231.213 341.211 228.782C341.98 226.014 338.587 224.48 338.587 224.48C338.587 224.48 341.254 225.104 341.319 222.847C341.449 217.859 324.797 215.365 324.797 215.365C324.797 215.365 337.546 222.51 337.958 218.383C338.522 212.685 312.383 206.438 309.662 203.944C307.886 202.2 306.414 200.085 305.325 197.709L278.579 215.303Z" fill="#D3766A"/>
<path d="M313.608 231.388C313.652 231.035 313.621 230.674 313.517 230.337C313.413 230.001 313.24 229.698 313.012 229.456C312.565 228.982 312.052 228.599 311.494 228.321C310.339 227.753 309.141 227.307 307.916 226.987C305.445 226.263 302.918 225.74 300.414 225.017C303.01 224.969 305.601 225.304 308.122 226.014C309.413 226.346 310.655 226.892 311.809 227.635C312.409 228.011 312.934 228.53 313.348 229.156C313.557 229.47 313.69 229.841 313.736 230.233C313.781 230.624 313.737 231.022 313.608 231.388Z" fill="#353A3E"/>
<path d="M336.31 229.78C334.51 229.268 332.732 228.682 330.965 228.096C329.198 227.51 327.42 226.849 325.664 226.263L320.34 224.368C318.584 223.732 316.828 223.121 315.05 222.498C316.877 222.732 318.688 223.107 320.471 223.62C322.27 224.094 324.048 224.692 325.826 225.303C327.604 225.914 329.339 226.55 331.074 227.361C332.808 228.171 334.63 228.882 336.31 229.78Z" fill="#353A3E"/>
<path d="M319.321 217.46C321.02 217.587 322.709 217.858 324.373 218.271C326.042 218.657 327.693 219.144 329.317 219.73C330.944 220.307 332.541 220.994 334.098 221.787C335.66 222.56 337.174 223.456 338.63 224.468C337.026 223.832 335.453 223.121 333.849 222.51C332.244 221.899 330.662 221.263 329.057 220.69C327.452 220.116 325.805 219.567 324.211 219.019C322.617 218.47 320.958 217.971 319.321 217.46Z" fill="#353A3E"/>
<path d="M321.902 212.66C324.642 212.902 327.343 213.556 329.935 214.605C332.553 215.593 335.044 216.981 337.34 218.732C334.749 217.673 332.234 216.55 329.654 215.565C327.073 214.58 324.515 213.62 321.902 212.66Z" fill="#353A3E"/>
<path d="M247.269 121.686C252.3 146.624 276.357 214.655 276.357 214.655L297.964 202.672L308.871 196.6C308.871 196.6 271.76 129.915 256.582 108.07C255.411 106.399 254.338 104.952 253.329 103.755C243.962 92.2465 243.366 102.496 247.269 121.686Z" fill="#10217D"/>
<path d="M297.194 190.527C296.651 188.777 296.513 186.895 296.793 185.066C297.068 185.933 297.239 186.839 297.302 187.759C297.38 188.683 297.343 189.615 297.194 190.527Z" fill="white"/>
<path d="M250.033 106.337C249.758 105.465 249.587 104.555 249.524 103.631C249.447 102.711 249.483 101.783 249.632 100.875C250.175 102.625 250.313 104.507 250.033 106.337Z" fill="white"/>
<path d="M280.563 178.108C282.085 177.484 283.721 177.325 285.312 177.647C284.558 177.963 283.77 178.16 282.97 178.233C282.167 178.322 281.357 178.28 280.563 178.108Z" fill="white"/>
<path d="M266.383 144.367C267.137 144.051 267.925 143.854 268.725 143.781C269.528 143.692 270.338 143.734 271.131 143.906C269.61 144.53 267.974 144.689 266.383 144.367Z" fill="white"/>
<path d="M285.887 162.596C284.419 161.812 283.159 160.594 282.233 159.068C282.965 159.458 283.647 159.962 284.26 160.564C284.881 161.152 285.428 161.836 285.887 162.596Z" fill="white"/>
<path d="M259.173 122.085C257.712 121.294 256.457 120.077 255.53 118.556C256.262 118.941 256.941 119.445 257.547 120.053C258.168 120.641 258.715 121.325 259.173 122.085Z" fill="white"/>
<path d="M271.478 191.874C270.744 191.492 270.062 190.993 269.45 190.39C268.829 189.798 268.282 189.109 267.824 188.345C268.558 188.731 269.241 189.235 269.852 189.841C270.472 190.43 271.02 191.114 271.478 191.874Z" fill="white"/>
<path d="M270.166 163.071C269.831 163.915 269.393 164.7 268.865 165.402C268.354 166.116 267.759 166.746 267.098 167.273C267.43 166.426 267.868 165.64 268.399 164.941C268.911 164.227 269.505 163.598 270.166 163.071Z" fill="white"/>
<path d="M287.816 199.692C287.485 200.535 287.046 201.316 286.515 202.011C286.007 202.729 285.412 203.358 284.748 203.882C285.444 202.208 286.5 200.765 287.816 199.692Z" fill="white"/>
<path d="M258.219 131.923C257.879 132.764 257.441 133.549 256.918 134.255C256.408 134.971 255.809 135.597 255.14 136.112C255.482 135.276 255.919 134.496 256.441 133.793C256.953 133.076 257.552 132.446 258.219 131.923Z" fill="white"/>
<path d="M274.557 207.236C287.274 198.744 301.758 192.049 304.208 190.677C304.328 190.602 304.403 190.827 304.284 190.889C301.812 192.136 285.984 201.824 274.643 207.473C274.616 207.486 274.585 207.486 274.558 207.473C274.53 207.46 274.509 207.436 274.497 207.404C274.486 207.373 274.485 207.337 274.497 207.306C274.508 207.274 274.529 207.249 274.557 207.236Z" fill="#353A3E"/>
<path d="M336.874 315.591H341.254V240.453H336.874V315.591Z" fill="#DBDBDB"/>
<path d="M293.346 315.591H297.726V240.453H293.346V315.591Z" fill="#DBDBDB"/>
<path d="M335.151 246.375H342.74V234.792H335.151V246.375Z" fill="#353A3E"/>
<path d="M291.741 246.375H299.33V234.792H291.741V246.375Z" fill="#353A3E"/>
<path d="M291.73 231.837V240.578H302.615L304.751 242.336H329.73L331.855 240.578H342.739V231.837H331.855L329.73 233.595H304.751L302.615 231.837H291.73Z" fill="#353A3E"/>
<path d="M269.331 472.165H365.257V315.579H269.331V472.165Z" fill="#6F9BFE"/>
<path opacity="0.1" d="M269.331 472.165H365.257V315.579H269.331V472.165Z" fill="black"/>
<path d="M279.859 460.058H354.73V327.699H279.859V460.058Z" fill="#6F9BFE"/>
<g opacity="0.1">
<path d="M346.534 333.335C346.328 343.423 346.23 353.522 346.154 363.61L346.035 393.885L346.154 424.159L346.284 439.284L346.534 454.422L346.772 439.284L346.913 424.159L347.022 393.885L346.902 363.61C346.827 353.522 346.729 343.423 346.534 333.335Z" fill="black"/>
<path d="M336.841 333.335C336.635 343.423 336.538 353.522 336.462 363.61L336.343 393.885L336.462 424.159L336.592 439.284L336.841 454.422L337.08 439.284L337.221 424.159L337.329 393.885L337.221 363.61C337.134 353.522 337.047 343.423 336.841 333.335Z" fill="black"/>
<path d="M327.15 333.335C326.944 343.423 326.846 353.522 326.77 363.61L326.651 393.885L326.77 424.159L326.911 439.284L327.15 454.422L327.388 439.284L327.529 424.159L327.637 393.885L327.529 363.61C327.442 353.522 327.356 343.423 327.15 333.335Z" fill="black"/>
<path d="M317.457 333.335C317.251 343.423 317.154 353.522 317.078 363.61L316.969 393.885L317.078 424.159L317.219 439.284L317.457 454.422L317.696 439.284L317.837 424.159L317.956 393.885L317.837 363.61C317.761 353.522 317.663 343.423 317.457 333.335Z" fill="black"/>
<path d="M307.765 333.335C307.559 343.423 307.472 353.522 307.385 363.61L307.277 393.885L307.385 424.159L307.526 439.284L307.765 454.422L308.003 439.284L308.144 424.159L308.263 393.885L308.144 363.61C308.068 353.522 307.971 343.423 307.765 333.335Z" fill="black"/>
<path d="M298.072 333.335C297.866 343.423 297.78 353.522 297.693 363.61L297.584 393.885L297.693 424.159L297.834 439.284L298.072 454.422L298.322 439.284L298.452 424.159L298.571 393.885L298.452 363.61C298.376 353.522 298.278 343.423 298.072 333.335Z" fill="black"/>
<path d="M288.38 333.335C288.185 343.423 288.087 353.522 288.011 363.61L287.892 393.885L288.001 424.159L288.141 439.284L288.38 454.422L288.629 439.284L288.759 424.159L288.879 393.885L288.759 363.61C288.684 353.522 288.586 343.423 288.38 333.335Z" fill="black"/>
</g>
<path d="M365.257 460.12H347.184L339.964 472.178H365.257V460.12Z" fill="#353A3E"/>
<path d="M269.331 460.12H287.404L294.624 472.178H269.331V460.12Z" fill="#353A3E"/>
<path d="M365.257 351.827L370.298 350.692V337.699L365.257 336.564V351.827Z" fill="#353A3E"/>
<path d="M365.257 451.192L370.298 450.057V437.064L365.257 435.93V451.192Z" fill="#353A3E"/>
<path d="M261.005 393.884C261.005 417.688 266.046 432.289 266.046 432.289H269.299V410.256H265.157V377.512H269.385V355.467H266.133C266.133 355.467 261.005 370.081 261.005 393.884Z" fill="#353A3E"/>
<path d="M263.965 424.396C264.496 427.075 265.177 429.711 266.003 432.289H269.256V424.396H263.965Z" fill="#DBDBDB"/>
<path d="M263.965 363.36H269.386V355.467H266.133C265.263 358.042 264.539 360.678 263.965 363.36Z" fill="#DBDBDB"/>
<path d="M316.796 307.151C296.099 307.151 291.307 312.936 291.307 312.936V315.592H303.547V311.926H330.098V315.592H343.336V312.936C343.336 312.936 337.492 307.151 316.796 307.151Z" fill="#353A3E"/>
<path d="M353.885 481.841H358.351L361.311 472.177H351.662L354.427 477.015L353.885 481.841Z" fill="#353A3E"/>
<path d="M349.732 484.771C349.732 486.172 350.094 487.541 350.77 488.706C351.447 489.871 352.409 490.778 353.534 491.314C354.659 491.85 355.897 491.991 357.092 491.717C358.286 491.444 359.384 490.77 360.245 489.779C361.106 488.789 361.693 487.527 361.93 486.153C362.168 484.779 362.046 483.355 361.58 482.061C361.114 480.767 360.324 479.661 359.312 478.882C358.299 478.104 357.108 477.689 355.89 477.689C354.257 477.689 352.691 478.435 351.536 479.763C350.381 481.091 349.732 482.893 349.732 484.771Z" fill="#10217D"/>
<path d="M352.529 484.771C352.527 485.539 352.723 486.291 353.093 486.93C353.463 487.57 353.989 488.069 354.606 488.364C355.222 488.659 355.901 488.737 356.556 488.588C357.211 488.438 357.813 488.069 358.285 487.526C358.757 486.983 359.079 486.29 359.208 485.537C359.338 484.784 359.271 484.003 359.014 483.294C358.757 482.585 358.324 481.979 357.767 481.554C357.211 481.129 356.558 480.903 355.89 480.906C354.999 480.906 354.144 481.313 353.514 482.038C352.883 482.763 352.529 483.746 352.529 484.771Z" fill="#DBDBDB"/>
<path d="M355.825 482.426C355.825 482.988 355.825 483.436 355.955 483.436C356.085 483.436 356.085 482.988 356.085 482.426C356.085 481.865 356.031 481.417 355.955 481.417C355.879 481.417 355.825 481.865 355.825 482.426Z" fill="#353A3E"/>
<path d="M357.289 483.063C356.942 483.449 356.703 483.823 356.758 483.873C356.812 483.923 357.126 483.661 357.473 483.275C357.82 482.888 358.048 482.514 357.994 482.452C357.939 482.389 357.625 482.664 357.289 483.063Z" fill="#353A3E"/>
<path d="M357.928 484.696C357.451 484.696 357.05 484.758 357.05 484.845C357.05 484.933 357.451 484.995 357.928 484.995C358.405 484.995 358.806 484.92 358.806 484.845C358.806 484.771 358.416 484.696 357.928 484.696Z" fill="#353A3E"/>
<path d="M357.386 486.379C357.039 485.98 356.725 485.706 356.671 485.768C356.617 485.831 356.855 486.192 357.202 486.591C357.549 486.99 357.863 487.252 357.907 487.19C357.95 487.127 357.722 486.766 357.386 486.379Z" fill="#353A3E"/>
<path d="M355.955 487.128C355.955 486.579 355.901 486.118 355.836 486.118C355.771 486.118 355.706 486.579 355.706 487.128C355.706 487.677 355.76 488.138 355.836 488.138C355.912 488.138 355.955 487.677 355.955 487.128Z" fill="#353A3E"/>
<path d="M354.502 486.492C354.838 486.093 355.077 485.731 355.023 485.669C354.968 485.607 354.654 485.881 354.318 486.28C353.982 486.679 353.733 487.041 353.787 487.09C353.841 487.14 354.155 486.878 354.502 486.492Z" fill="#353A3E"/>
<path d="M353.852 484.846C354.34 484.846 354.73 484.784 354.73 484.696C354.73 484.609 354.34 484.547 353.852 484.547C353.364 484.547 352.974 484.621 352.974 484.696C352.974 484.771 353.364 484.846 353.852 484.846Z" fill="#353A3E"/>
<path d="M354.405 483.175C354.741 483.561 355.066 483.836 355.11 483.773C355.153 483.711 354.926 483.349 354.589 482.963C354.253 482.576 353.928 482.289 353.874 482.352C353.82 482.414 354.058 482.776 354.405 483.175Z" fill="#353A3E"/>
<path d="M280.704 481.841H276.237L273.277 472.177H282.926L280.162 477.015L280.704 481.841Z" fill="#353A3E"/>
<path d="M284.857 484.771C284.859 486.175 284.499 487.549 283.822 488.718C283.145 489.886 282.181 490.797 281.054 491.336C279.926 491.875 278.685 492.016 277.487 491.743C276.289 491.469 275.189 490.793 274.326 489.8C273.462 488.807 272.875 487.542 272.637 486.165C272.399 484.787 272.522 483.36 272.991 482.063C273.459 480.766 274.251 479.658 275.267 478.879C276.284 478.101 277.478 477.686 278.699 477.689C279.507 477.689 280.308 477.872 281.055 478.228C281.802 478.584 282.481 479.105 283.053 479.763C283.625 480.421 284.079 481.202 284.388 482.061C284.697 482.92 284.857 483.841 284.857 484.771Z" fill="#10217D"/>
<path d="M282.059 484.771C282.061 485.539 281.865 486.291 281.496 486.93C281.126 487.57 280.599 488.069 279.983 488.364C279.366 488.659 278.688 488.737 278.032 488.588C277.377 488.438 276.776 488.069 276.303 487.526C275.831 486.983 275.51 486.29 275.38 485.537C275.25 484.784 275.318 484.003 275.575 483.294C275.831 482.585 276.265 481.979 276.821 481.554C277.377 481.129 278.031 480.903 278.698 480.906C279.59 480.906 280.445 481.313 281.075 482.038C281.705 482.763 282.059 483.746 282.059 484.771Z" fill="#DBDBDB"/>
<path d="M278.634 483.436C278.705 483.436 278.764 482.984 278.764 482.426C278.764 481.869 278.705 481.417 278.634 481.417C278.562 481.417 278.503 481.869 278.503 482.426C278.503 482.984 278.562 483.436 278.634 483.436Z" fill="#353A3E"/>
<path d="M277.3 483.063C277.647 483.449 277.875 483.823 277.831 483.873C277.788 483.923 277.463 483.661 277.116 483.275C276.769 482.888 276.541 482.514 276.584 482.452C276.628 482.389 276.975 482.664 277.3 483.063Z" fill="#353A3E"/>
<path d="M276.65 484.696C277.137 484.696 277.528 484.758 277.528 484.845C277.528 484.933 277.137 484.995 276.65 484.995C276.162 484.995 275.782 484.92 275.782 484.845C275.782 484.771 276.173 484.696 276.65 484.696Z" fill="#353A3E"/>
<path d="M277.202 486.379C277.549 485.98 277.864 485.706 277.918 485.768C277.972 485.831 277.734 486.192 277.387 486.591C277.04 486.99 276.725 487.252 276.671 487.19C276.617 487.127 276.856 486.766 277.202 486.379Z" fill="#353A3E"/>
<path d="M278.623 487.128C278.623 486.579 278.688 486.118 278.753 486.118C278.818 486.118 278.883 486.579 278.883 487.128C278.883 487.677 278.829 488.138 278.753 488.138C278.677 488.138 278.623 487.677 278.623 487.128Z" fill="#353A3E"/>
<path d="M280.086 486.492C279.75 486.093 279.512 485.731 279.555 485.669C279.598 485.607 279.924 485.881 280.27 486.28C280.617 486.679 280.845 487.041 280.802 487.09C280.758 487.14 280.433 486.878 280.086 486.492Z" fill="#353A3E"/>
<path d="M280.737 484.846C280.249 484.846 279.858 484.784 279.858 484.696C279.858 484.609 280.249 484.547 280.737 484.547C281.224 484.547 281.604 484.621 281.604 484.696C281.604 484.771 281.214 484.846 280.737 484.846Z" fill="#353A3E"/>
<path d="M280.227 483.175C279.88 483.561 279.566 483.836 279.512 483.773C279.457 483.711 279.696 483.349 280.043 482.963C280.39 482.576 280.704 482.289 280.758 482.352C280.813 482.414 280.531 482.776 280.227 483.175Z" fill="#353A3E"/>
</svg>
